<?xml version="1.0" encoding="UTF-8"?>
<svg width="51px" height="51px" viewBox="0 0 51 51" version="1.1" xmlns="http://www.w3.org/2000/svg" xmlns:xlink="http://www.w3.org/1999/xlink">
    <!-- Generator: Sketch 54.1 (76490) - https://sketchapp.com -->
    <title>Group 3</title>
    <desc>Created with Sketch.</desc>
    <g id="Page-1" stroke="none" stroke-width="1" fill="none" fill-rule="evenodd">
        <g id="Artboard" transform="translate(-218.000000, -130.000000)" fill-rule="nonzero">
            <g id="Group-3" transform="translate(218.075068, 130.000000)">
                <path d="M30.891594,-1.42108547e-14 C19.8866506,-1.42108547e-14 10.9333616,8.95328906 10.9333616,19.9582324 C10.9333616,23.8354277 12.0458987,27.457125 13.9666663,30.5232012 L1.35014282,43.139625 C-0.449997802,44.939666 -0.450097412,47.853041 1.35014282,49.6531816 C3.14580103,51.4489395 6.06784204,51.4490391 7.86359985,49.6531816 L20.5155842,37.0011973 C23.5409202,38.8499473 27.0939866,39.9164648 30.891594,39.9164648 C41.8965374,39.9164648 50.8498264,30.9631758 50.8498264,19.9582324 C50.8498264,8.95328906 41.8965374,-1.42108547e-14 30.891594,-1.42108547e-14 Z M5.69251392,47.4819961 C5.09386157,48.0806484 4.1198811,48.0805488 3.52132837,47.4819961 C2.92128149,46.8819492 2.9213811,45.9108574 3.52132837,45.3108105 L15.8127268,33.0195117 C16.4842932,33.7936758 17.2150276,34.5148477 17.9965627,35.1779473 L5.69251392,47.4819961 Z M30.891594,36.8459062 C21.5797112,36.8459062 14.0039202,29.2701152 14.0039202,19.9582324 C14.0039202,10.6463496 21.5797112,3.07045898 30.891594,3.07045898 C40.2034768,3.07045898 47.7792678,10.64625 47.7792678,19.9581328 C47.7792678,29.2700156 40.2034768,36.8459062 30.891594,36.8459062 Z" id="Shape" fill="#343A6E"></path>
                <path d="M37.0326116,18.4229531 L32.4268733,18.4229531 L32.4268733,13.8172148 C32.4268733,12.9693398 31.739469,12.2819355 30.891594,12.2819355 C30.043719,12.2819355 29.3563147,12.9693398 29.3563147,13.8172148 L29.3563147,19.9582324 C29.3563147,20.8061074 30.043719,21.4935117 30.891594,21.4935117 L37.0326116,21.4935117 C37.8804866,21.4935117 38.5678909,20.8061074 38.5678909,19.9582324 C38.5678909,19.1103574 37.8804866,18.4229531 37.0326116,18.4229531 Z" id="Path" fill="#5897D1"></path>
                <path d="M30.891594,6.14101758 C23.2727717,6.14101758 17.0743792,12.3394102 17.0743792,19.9582324 C17.0743792,27.5770547 23.2727717,33.7754473 30.891594,33.7754473 C38.5104163,33.7754473 44.7088088,27.5770547 44.7088088,19.9582324 C44.7088088,12.3394102 38.5104163,6.14101758 30.891594,6.14101758 Z M30.891594,30.7049883 C24.9658323,30.7049883 20.1448381,25.8839941 20.1448381,19.9582324 C20.1448381,14.0324707 24.9658323,9.21147656 30.891594,9.21147656 C36.8173557,9.21147656 41.6383499,14.0324707 41.6383499,19.9582324 C41.6383499,25.8839941 36.8173557,30.7049883 30.891594,30.7049883 Z" id="Shape" fill="#343A6E"></path>
            </g>
        </g>
    </g>
</svg>