<?xml version="1.0" encoding="UTF-8"?>
<svg width="51px" height="51px" viewBox="0 0 51 51" version="1.1" xmlns="http://www.w3.org/2000/svg" xmlns:xlink="http://www.w3.org/1999/xlink">
    <!-- Generator: Sketch 54.1 (76490) - https://sketchapp.com -->
    <title>Group 2</title>
    <desc>Created with Sketch.</desc>
    <g id="Page-1" stroke="none" stroke-width="1" fill="none" fill-rule="evenodd">
        <g id="Artboard" transform="translate(-127.000000, -130.000000)" fill-rule="nonzero">
            <g id="Group-2" transform="translate(127.000000, 130.000000)">
                <path d="M51,25.5 C51,31.1787305 49.1431816,36.4243594 46.0040918,40.6626387 C44.8498184,42.2207285 43.5217266,43.6435488 42.049002,44.9008184 C37.5953672,48.7040039 31.8167285,51 25.5,51 C21.8415469,51 18.3641836,50.2298203 15.2198145,48.8423613 C13.861541,48.2439082 12.5657227,47.5299082 11.3448105,46.7128125 C10.510084,46.1559961 9.71181445,45.5501719 8.95089844,44.9007187 C7.47817383,43.6434492 6.15008203,42.2206289 4.99580859,40.6625391 C1.85681836,36.4243594 0,31.1787305 0,25.5 C0,19.8212695 1.85681836,14.5756406 4.9959082,10.3373613 C6.97345313,7.66763086 9.46000195,5.39763281 12.3118184,3.6709043 C16.1597285,1.34054297 20.6727305,0 25.5,0 C25.5332695,0 25.5666387,0 25.5999082,0.00099609375 C30.3897246,0.0187265625 34.8673652,1.35618164 38.6881816,3.6709043 C41.539998,5.39763281 44.0265469,7.66763086 46.0040918,10.3373613 C49.1431816,14.575541 51,19.8212695 51,25.5 Z" id="Path" fill="#EF487D"></path>
                <path d="M47.4753223,21.9753223 C47.4753223,26.8690312 45.8751973,31.3897031 43.1700059,35.0420801 C42.1753066,36.3848145 41.0307949,37.6109062 39.7616719,38.6945566 C35.923623,41.9720039 30.943752,43.9506445 25.5001992,43.9506445 C22.3474629,43.9506445 19.3507148,43.2869473 16.6409414,42.0912363 C15.4704316,41.5755586 14.3537109,40.9601719 13.3015371,40.2560332 C12.5822578,39.7762148 11.8942559,39.2541621 11.2385273,38.694457 C9.9694043,37.6110059 8.82489258,36.3848145 7.83019336,35.0419805 C5.12500195,31.3896035 3.52487695,26.8689316 3.52487695,21.9752227 C3.52487695,17.0815137 5.12490234,12.5608418 7.83009375,8.90846484 C9.53431055,6.60778711 11.677207,4.65155859 14.1347695,3.16349414 C17.4507656,1.15526953 21.3399141,-2.13162821e-14 25.5,-2.13162821e-14 C25.5286875,-2.13162821e-14 25.5574746,-2.13162821e-14 25.5860625,0.000896484375 C29.713875,0.0161367187 33.572543,1.1687168 36.8652305,3.16349414 C39.3228926,4.65155859 41.4657891,6.60778711 43.1699062,8.90846484 C45.8750977,12.5608418 47.4753223,17.0816133 47.4753223,21.9753223 Z" id="Path" fill="#FF668C"></path>
                <path d="M46.0040918,7.46054297 L46.0040918,40.6625391 C44.8498184,42.2206289 43.5217266,43.6434492 42.049002,44.9007188 C37.5953672,48.7040039 31.8167285,51 25.5,51 C21.8415469,51 18.3641836,50.2298203 15.2198145,48.8423613 C13.861541,48.2439082 12.5657227,47.5299082 11.3448105,46.7128125 C10.510084,46.1559961 9.71181445,45.5501719 8.95089844,44.9007188 C7.47817383,43.6434492 6.15008203,42.2206289 4.99580859,40.6625391 L4.99580859,7.46054297 C4.99580859,5.36745117 6.69235547,3.6709043 8.78544727,3.6709043 L42.2143535,3.6709043 C44.3075449,3.67100391 46.0040918,5.36745117 46.0040918,7.46054297 Z" id="Path" fill="#343A6E"></path>
                <path d="M42.049002,14.5943672 L42.049002,44.9008184 C37.5953672,48.7040039 31.8167285,51 25.5,51 C21.8415469,51 18.3641836,50.2298203 15.2198145,48.8423613 C13.861541,48.2439082 12.5657227,47.5299082 11.3448105,46.7128125 C10.510084,46.1559961 9.71181445,45.5501719 8.95089844,44.9007187 L8.95089844,14.5943672 C8.95089844,13.2746426 10.0198066,12.2057344 11.3385352,12.2057344 L39.6601699,12.2057344 C40.978998,12.2056348 42.049002,13.274543 42.049002,14.5943672 Z" id="Path" fill="#F0F0F0"></path>
                <path d="M35.6476055,4.69000781 L35.6476055,11.3949141 C35.6476055,12.6480996 34.6327852,13.6628203 33.3796992,13.6628203 L17.6197031,13.6628203 C16.3665176,13.6628203 15.3517969,12.648 15.3517969,11.3949141 L15.3517969,4.69000781 C15.3517969,3.43682227 16.3666172,2.42210156 17.6197031,2.42210156 L21.5873438,2.42210156 C22.3034355,0.986830078 23.7866191,9.9609375e-05 25.4998008,9.9609375e-05 C25.7662559,9.9609375e-05 26.0275313,0.0240058594 26.2804395,0.0698261719 C27.4794375,0.28528125 28.5078047,0.990914063 29.1520781,1.97037305 C29.1604453,1.98282422 29.1677168,1.9942793 29.1749883,2.00683008 C29.2363477,2.10155859 29.2947188,2.199375 29.3478105,2.2992832 C29.3717168,2.34301172 29.3936309,2.38464844 29.4123574,2.42210156 L33.379998,2.42210156 C34.6328848,2.42210156 35.6476055,3.43692188 35.6476055,4.69000781 Z" id="Path" fill="#F2AE5A"></path>
                <path d="M35.6476055,4.69000781 L35.6476055,11.3949141 C35.6476055,12.6480996 34.6327852,13.6628203 33.3796992,13.6628203 L19.1808809,13.6628203 C17.9276953,13.6628203 16.9129746,12.648 16.9129746,11.3949141 L16.9129746,4.69000781 C16.9129746,3.43682227 17.9277949,2.42210156 19.1808809,2.42210156 L21.5872441,2.42210156 C22.3033359,0.986830078 23.7865195,9.9609375e-05 25.4997012,9.9609375e-05 C25.7661562,9.9609375e-05 26.0274316,0.0240058594 26.2803398,0.0698261719 C27.4793379,0.28528125 28.5077051,0.990914063 29.1519785,1.97037305 C29.1603457,1.98282422 29.1676172,1.9942793 29.1748887,2.00683008 C29.2415273,2.11400977 29.2997988,2.21292188 29.3477109,2.2992832 C29.3716172,2.34301172 29.3935312,2.38464844 29.4122578,2.42210156 L33.3798984,2.42210156 C34.6328848,2.42210156 35.6476055,3.43692188 35.6476055,4.69000781 Z" id="Path" fill="#F9DF73"></path>
                <circle id="Oval" fill="#343A6E" cx="25.5" cy="3.56691211" r="1.50918164"></circle>
                <path d="M31.1200605,10.3322812 L19.8792422,10.3322812 C19.275709,10.3322812 18.7864277,9.843 18.7864277,9.2394668 L18.7864277,9.2394668 C18.7864277,8.63593359 19.275709,8.14665234 19.8792422,8.14665234 L31.1200605,8.14665234 C31.7235937,8.14665234 32.212875,8.63593359 32.212875,9.2394668 L32.212875,9.2394668 C32.2129746,9.843 31.7236934,10.3322812 31.1200605,10.3322812 Z" id="Path" fill="#F2AE5A"></path>
                <path d="M18.9428145,26.3607246 L12.3856289,26.3607246 C11.8108828,26.3607246 11.3448105,25.894752 11.3448105,25.3199062 L11.3448105,18.7627207 C11.3448105,18.187875 11.8108828,17.7219023 12.3856289,17.7219023 L18.9428145,17.7219023 C19.5175605,17.7219023 19.9836328,18.187875 19.9836328,18.7627207 L19.9836328,25.3199062 C19.9836328,25.894752 19.5175605,26.3607246 18.9428145,26.3607246 Z M13.4265469,24.2790879 L17.9020957,24.2790879 L17.9020957,19.8035391 L13.4265469,19.8035391 L13.4265469,24.2790879 L13.4265469,24.2790879 Z" id="Shape" fill="#5897D1"></path>
                <g id="Group" transform="translate(21.814453, 18.925781)" fill="#484B7F">
                    <path d="M7.64063672,2.12685938 L1.08345117,2.12685938 C0.508705078,2.12685938 0.0426328125,1.66088672 0.0426328125,1.08604102 C0.0426328125,0.511195312 0.508705078,0.0452226562 1.08345117,0.0452226562 L7.64063672,0.0452226562 C8.21538281,0.0452226562 8.68145508,0.511195312 8.68145508,1.08604102 C8.68145508,1.66088672 8.21538281,2.12685938 7.64063672,2.12685938 Z" id="Path"></path>
                    <path d="M15.759,6.18604102 L1.08355078,6.18604102 C0.508804687,6.18604102 0.0427324219,5.72006836 0.0427324219,5.14522266 C0.0427324219,4.57037695 0.508804687,4.1044043 1.08355078,4.1044043 L15.7590996,4.1044043 C16.3338457,4.1044043 16.799918,4.57037695 16.799918,5.14522266 C16.799918,5.72006836 16.3337461,6.18604102 15.759,6.18604102 Z" id="Path"></path>
                </g>
                <path d="M18.9428145,37.601543 L12.3856289,37.601543 C11.8108828,37.601543 11.3448105,37.1355703 11.3448105,36.5607246 L11.3448105,30.0035391 C11.3448105,29.4286934 11.8108828,28.9627207 12.3856289,28.9627207 L18.9428145,28.9627207 C19.5175605,28.9627207 19.9836328,29.4286934 19.9836328,30.0035391 L19.9836328,36.5607246 C19.9836328,37.1355703 19.5175605,37.601543 18.9428145,37.601543 Z M13.4265469,35.5199062 L17.9020957,35.5199062 L17.9020957,31.0443574 L13.4265469,31.0443574 L13.4265469,35.5199062 L13.4265469,35.5199062 Z" id="Shape" fill="#5897D1"></path>
                <g id="Group" transform="translate(21.814453, 30.181641)" fill="#484B7F">
                    <path d="M7.64063672,2.11171875 L1.08345117,2.11171875 C0.508705078,2.11171875 0.0426328125,1.64574609 0.0426328125,1.07090039 C0.0426328125,0.496054687 0.508705078,0.0300820312 1.08345117,0.0300820312 L7.64063672,0.0300820312 C8.21538281,0.0300820312 8.68145508,0.496054687 8.68145508,1.07090039 C8.68145508,1.64574609 8.21538281,2.11171875 7.64063672,2.11171875 Z" id="Path"></path>
                    <path d="M15.759,6.17090039 L1.08355078,6.17090039 C0.508804687,6.17090039 0.0427324219,5.70492773 0.0427324219,5.13008203 C0.0427324219,4.55523633 0.508804687,4.08926367 1.08355078,4.08926367 L15.7590996,4.08926367 C16.3338457,4.08926367 16.799918,4.55523633 16.799918,5.13008203 C16.7998184,5.70492773 16.3337461,6.17090039 15.759,6.17090039 Z" id="Path"></path>
                </g>
                <path d="M18.9428145,40.2036387 L12.3856289,40.2036387 C11.811082,40.2036387 11.3448105,40.6699102 11.3448105,41.244457 L11.3448105,46.7129121 C12.5657227,47.5299082 13.861541,48.2439082 15.2198145,48.8424609 L18.9428145,48.8424609 C19.5173613,48.8424609 19.9836328,48.3761895 19.9836328,47.8016426 L19.9836328,41.244457 C19.9836328,40.6699102 19.5173613,40.2036387 18.9428145,40.2036387 Z M17.9019961,46.7607246 L13.4264473,46.7607246 L13.4264473,42.2851758 L17.9019961,42.2851758 L17.9019961,46.7607246 L17.9019961,46.7607246 Z" id="Shape" fill="#5897D1"></path>
                <g id="Group" transform="translate(21.814453, 41.437500)" fill="#484B7F">
                    <path d="M7.64063672,2.09667773 L1.08345117,2.09667773 C0.508705078,2.09667773 0.0426328125,1.63070508 0.0426328125,1.05585937 C0.0426328125,0.481013672 0.508705078,0.0150410156 1.08345117,0.0150410156 L7.64063672,0.0150410156 C8.21538281,0.0150410156 8.68145508,0.481013672 8.68145508,1.05585937 C8.68145508,1.63070508 8.21538281,2.09667773 7.64063672,2.09667773 Z" id="Path"></path>
                    <path d="M15.759,6.15585938 L1.08355078,6.15585938 C0.508804687,6.15585938 0.0427324219,5.68988672 0.0427324219,5.11504102 C0.0427324219,4.54019531 0.508804687,4.07422266 1.08355078,4.07422266 L15.7590996,4.07422266 C16.3338457,4.07422266 16.799918,4.54019531 16.799918,5.11504102 C16.7998184,5.68988672 16.3337461,6.15585938 15.759,6.15585938 Z" id="Path"></path>
                </g>
                <path d="M15.6120762,36.6647168 C15.2659336,36.6647168 14.9401113,36.4920938 14.7463711,36.2012344 L11.4157324,31.2053262 C11.0968828,30.7271016 11.2260762,30.0808359 11.7044004,29.7619863 C12.1827246,29.4431367 12.8288906,29.5723301 13.1477402,30.0507539 L15.4586777,33.5170605 L18.4186699,27.268166 C18.6646055,26.7487031 19.2852715,26.5269727 19.804834,26.7731074 C20.3242969,27.0191426 20.5459277,27.6398086 20.2998926,28.1592715 L16.5529863,36.0693516 C16.3925156,36.4082227 16.0620117,36.6345352 15.6880781,36.6619277 C15.6624785,36.6638203 15.6371777,36.6647168 15.6120762,36.6647168 Z" id="Path" fill="#EF487D"></path>
            </g>
        </g>
    </g>
</svg>