<?xml version="1.0" encoding="UTF-8"?>
<svg width="51px" height="51px" viewBox="0 0 51 51" version="1.1" xmlns="http://www.w3.org/2000/svg" xmlns:xlink="http://www.w3.org/1999/xlink">
    <!-- Generator: Sketch 54.1 (76490) - https://sketchapp.com -->
    <title>carousel</title>
    <desc>Created with Sketch.</desc>
    <g id="Page-1" stroke="none" stroke-width="1" fill="none" fill-rule="evenodd">
        <g id="Artboard" transform="translate(-167.000000, -222.000000)" fill="#343A6E" fill-rule="nonzero">
            <g id="carousel" transform="translate(167.000000, 222.000000)">
                <path d="M45.0234375,6.97265625 L41.0390625,6.97265625 L41.0390625,5.9765625 C41.0390625,2.68089289 38.3581696,0 35.0625,0 L15.9375,0 C12.6418304,0 9.9609375,2.68089289 9.9609375,5.9765625 L9.9609375,6.97265625 L5.9765625,6.97265625 C2.68089289,6.97265625 0,9.65354914 0,12.9492188 L0,37.9511719 C0,41.2468415 2.68089289,43.9277344 5.9765625,43.9277344 L9.9609375,43.9277344 L9.9609375,45.0234375 C9.9609375,48.3191071 12.6418304,51 15.9375,51 L35.0625,51 C38.3581696,51 41.0390625,48.3191071 41.0390625,45.0234375 L41.0390625,43.9277344 L45.0234375,43.9277344 C48.3191071,43.9277344 51,41.2468415 51,37.9511719 L51,12.9492188 C51,9.65354914 48.3191071,6.97265625 45.0234375,6.97265625 Z M5.9765625,39.9433594 C4.87813566,39.9433594 3.984375,39.0495987 3.984375,37.9511719 L3.984375,12.9492188 C3.984375,11.8507919 4.87813566,10.9570312 5.9765625,10.9570312 L9.9609375,10.9570312 L9.9609375,39.9433594 L5.9765625,39.9433594 Z M37.0546875,45.0234375 C37.0546875,46.1218643 36.1609268,47.015625 35.0625,47.015625 L15.9375,47.015625 C14.8390732,47.015625 13.9453125,46.1218643 13.9453125,45.0234375 L13.9453125,5.9765625 C13.9453125,4.87813566 14.8390732,3.984375 15.9375,3.984375 L35.0625,3.984375 C36.1609268,3.984375 37.0546875,4.87813566 37.0546875,5.9765625 L37.0546875,45.0234375 Z M47.015625,37.9511719 C47.015625,39.0495987 46.1218643,39.9433594 45.0234375,39.9433594 L41.0390625,39.9433594 L41.0390625,10.9570312 L45.0234375,10.9570312 C46.1218643,10.9570312 47.015625,11.8507919 47.015625,12.9492188 L47.015625,37.9511719 Z" id="Shape"></path>
            </g>
        </g>
    </g>
</svg>