<?xml version="1.0" encoding="UTF-8"?>
<svg width="72px" height="72px" viewBox="0 0 72 72" version="1.1" xmlns="http://www.w3.org/2000/svg" xmlns:xlink="http://www.w3.org/1999/xlink">
    <!-- Generator: Sketch 54.1 (76490) - https://sketchapp.com -->
    <title>coffee</title>
    <desc>Created with Sketch.</desc>
    <g id="Page-1" stroke="none" stroke-width="1" fill="none" fill-rule="evenodd">
        <g id="Artboard" transform="translate(-91.000000, -247.000000)" fill="#040F3D" fill-rule="nonzero">
            <g id="coffee" transform="translate(91.000000, 246.999953)">
                <path d="M70.59375,29.0391099 L59.0625,29.0391099 L59.0625,26.0625005 C59.0625,25.2858286 58.4327812,24.6562505 57.65625,24.6562505 L27.28125,24.6562505 C26.5047188,24.6562505 25.875,25.2858286 25.875,26.0625005 C25.875,26.8391724 26.5047188,27.4687505 27.28125,27.4687505 L56.25,27.4687505 L56.25,38.2499068 C56.25,47.7207193 51.1935469,56.5230005 43.0287187,61.3124068 L16.0337813,61.3124068 C7.86895312,56.5231411 2.8125,47.7207193 2.8125,38.2500474 L2.8125,27.4688911 L12.234375,27.4688911 C13.0109063,27.4688911 13.640625,26.839313 13.640625,26.0626411 C13.640625,25.2859693 13.0109063,24.6563911 12.234375,24.6563911 L1.40625,24.6563911 C0.62971875,24.6563911 0,25.2859693 0,26.0626411 L0,38.2500474 C0,43.5656724 1.42875,48.7777974 4.13184375,53.3226568 C5.95476563,56.3878599 8.32007813,59.0946099 11.0899687,61.3125474 L1.40625,61.3125474 C0.62971875,61.3125474 0,61.9421255 0,62.7187974 C0,67.836563 4.16348437,72.0000474 9.28125,72.0000474 L53.15625,72.0000474 C58.2740156,72.0000474 62.4375,67.836563 62.4375,62.7187974 C62.4375,61.9421255 61.8077812,61.3125474 61.03125,61.3125474 L47.9725313,61.3125474 C50.5219219,59.2712349 52.7273438,56.814938 54.48375,54.0468755 L58.4531719,54.0468755 C65.9228906,54.0468755 72,47.9697661 72,40.5000474 L72,30.4453599 C72,29.668688 71.3704219,29.0391099 70.59375,29.0391099 Z M59.4710156,64.1250474 C58.8272344,67.0179849 56.2402969,69.1875474 53.15625,69.1875474 L9.28125,69.1875474 C6.19720313,69.1875474 3.61040625,67.0179849 2.96648438,64.1250474 L15.6570469,64.1250474 L43.4054531,64.1250474 L59.4710156,64.1250474 Z M59.0625,38.2500474 L59.0625,37.4766099 L63.5625,37.4766099 L63.5625,40.5000474 C63.5625,43.3173286 61.2704531,45.6093755 58.4531719,45.6093755 L58.1338125,45.6093755 C58.7476406,43.2179068 59.0625,40.745438 59.0625,38.2500474 Z M69.1875,40.5000474 C69.1875,46.4189536 64.3720781,51.2343755 58.4531719,51.2343755 L56.0597344,51.2343755 C56.50875,50.3173599 56.9098125,49.3785474 57.26025,48.4218755 L58.4531719,48.4218755 C62.8214062,48.4218755 66.375,44.8681411 66.375,40.5000474 L66.375,36.0703599 C66.375,35.293688 65.7452812,34.6641099 64.96875,34.6641099 L59.0625,34.6641099 L59.0625,31.8516099 L69.1875,31.8516099 L69.1875,40.5000474 Z" id="Shape"></path>
                <path d="M30.8740781,7.78265676 L30.1424062,6.86395364 C29.0683125,5.51564114 29.0667656,3.63084426 30.1386094,2.28056301 C30.6215156,1.67221926 30.5197031,0.787688013 29.9113594,0.304922388 C29.302875,-0.178124487 28.4184844,-0.0761713615 27.9355781,0.532172388 C26.0452969,2.91379739 26.0481094,6.23803176 27.9424687,8.61628176 L28.6741406,9.53498489 C30.0777187,11.2970161 30.0798281,13.760063 28.6792031,15.5247661 L27.9293906,16.4694849 C27.4464844,17.0778286 27.5482969,17.9623599 28.1566406,18.4451255 C28.41525,18.6502974 28.7236406,18.7500005 29.0299219,18.7500005 C29.4442031,18.7500005 29.8546875,18.5677505 30.1324219,18.2178755 L30.8822344,17.2731568 C33.1012969,14.4772505 33.0980625,10.5746255 30.8740781,7.78265676 Z" id="Path"></path>
                <path d="M38.6687813,10.9444693 L37.9371094,10.0259068 C36.8630156,8.67745364 36.8614688,6.79265676 37.9333125,5.44237551 C38.4162188,4.83403176 38.3144063,3.94950051 37.7060625,3.46673489 C37.0975781,2.98368801 36.2131875,3.08564114 35.7302813,3.69398489 C33.84,6.07560989 33.8428125,9.39984426 35.7371719,11.7782349 L36.4688438,12.696938 C37.8722813,14.4591099 37.8743906,16.9222974 36.4737656,18.6868599 L35.7240938,19.631438 C35.2411875,20.2397818 35.343,21.124313 35.9513438,21.6070786 C36.2099531,21.8122505 36.5183438,21.911813 36.824625,21.911813 C37.2389063,21.911813 37.6495313,21.7294224 37.927125,21.379688 L38.6766563,20.4351099 C40.8958594,17.6393443 40.892625,13.7367193 38.6687813,10.9444693 Z" id="Path"></path>
                <path d="M23.079375,10.9446099 L22.3477031,10.0260474 C21.2736094,8.67773489 21.2720625,6.79279739 22.3437656,5.44251614 C22.8266719,4.83417239 22.7248594,3.94964114 22.1165156,3.46673489 C21.5080312,2.98382864 20.6236406,3.08592239 20.1407344,3.69398489 C18.2505937,6.07560989 18.2534062,9.39998489 20.1477656,11.7782349 L20.8794375,12.696938 C22.282875,14.4591099 22.2849844,16.9222974 20.8845,18.6867193 L20.1346875,19.6312974 C19.6517812,20.2396411 19.7534531,21.1241724 20.3617969,21.6070786 C20.6204062,21.8122505 20.9286562,21.9119536 21.2350781,21.9119536 C21.6493594,21.9119536 22.0598437,21.7297036 22.3374375,21.3799693 L23.0873906,20.4352505 C25.3064531,17.6394849 25.3032187,13.7368599 23.079375,10.9446099 Z" id="Path"></path>
                <path d="M21.133125,25.0678599 C20.8715625,24.8062974 20.50875,24.6558286 20.1389062,24.6558286 C19.7690625,24.6558286 19.40625,24.8062974 19.1446875,25.0678599 C18.8832656,25.3308286 18.7326562,25.6922349 18.7326562,26.0620786 C18.7326562,26.4319224 18.883125,26.7947349 19.1446875,27.0577036 C19.40625,27.3192661 19.7690625,27.4683286 20.1389062,27.4683286 C20.50875,27.4683286 20.8715625,27.3192661 21.133125,27.0577036 C21.3959531,26.7947349 21.5451562,26.4333286 21.5451562,26.0620786 C21.5451562,25.6922349 21.3959531,25.3294224 21.133125,25.0678599 Z" id="Path"></path>
                <path d="M50.90625,36.8437974 C50.1297188,36.8437974 49.5,37.4733755 49.5,38.2500474 C49.5,43.4699068 47.38275,48.5997661 43.6910625,52.3242193 C43.1443125,52.8757505 43.1483906,53.766188 43.6999219,54.312938 C43.9741406,54.5847661 44.3320312,54.7204693 44.6899219,54.7204693 C45.0518906,54.7203286 45.4138594,54.5813911 45.6887813,54.303938 C49.89825,50.057063 52.3125,44.2056568 52.3125,38.2500474 C52.3125,37.4733755 51.6827812,36.8437974 50.90625,36.8437974 Z" id="Path"></path>
                <path d="M41.3275781,56.141063 C40.9459219,55.4645161 40.08825,55.2255943 39.4118437,55.6071099 L39.3797812,55.6252505 C38.7032344,56.0069068 38.4643125,56.8645786 38.8458281,57.5409849 C39.1042969,57.9991411 39.580875,58.2566255 40.0719375,58.2566255 C40.3059375,58.2566255 40.5433125,58.1979849 40.7615625,58.074938 L40.793625,58.0567974 C41.4701719,57.6751411 41.7090937,56.8174693 41.3275781,56.141063 Z" id="Path"></path>
            </g>
        </g>
    </g>
</svg>