<?xml version="1.0" encoding="UTF-8"?>
<svg width="78px" height="87px" viewBox="0 0 78 87" version="1.1" xmlns="http://www.w3.org/2000/svg" xmlns:xlink="http://www.w3.org/1999/xlink">
    <!-- Generator: Sketch 54.1 (76490) - https://sketchapp.com -->
    <title>creativity</title>
    <desc>Created with Sketch.</desc>
    <g id="Page-1" stroke="none" stroke-width="1" fill="none" fill-rule="evenodd">
        <g id="Artboard" transform="translate(-199.000000, -329.000000)" fill-rule="nonzero">
            <g id="creativity" transform="translate(199.000000, 329.000000)">
                <path d="M47.4782609,14.1035156 C46.5422609,14.1035156 45.7826087,14.8647656 45.7826087,15.8027344 C45.7826087,16.7407031 46.5422609,17.5019531 47.4782609,17.5019531 C48.4142609,17.5019531 49.173913,16.7407031 49.173913,15.8027344 C49.173913,14.8647656 48.4142609,14.1035156 47.4782609,14.1035156 Z" id="Path" fill="#E3826F"></path>
                <path d="M30.5217391,14.1035156 C29.5857391,14.1035156 28.826087,14.8647656 28.826087,15.8027344 C28.826087,16.7407031 29.5857391,17.5019531 30.5217391,17.5019531 C31.4577391,17.5019531 32.2173913,16.7407031 32.2173913,15.8027344 C32.2173913,14.8647656 31.4577391,14.1035156 30.5217391,14.1035156 Z" id="Path" fill="#040F3D"></path>
                <path d="M75.8165087,50.7865898 C77.271887,48.5976562 78,45.866502 78,43.5 C78,39.9323203 76.4184652,36.6176543 73.7045739,34.3699277 C74.3051739,32.931709 74.6086957,31.4358867 74.6086957,29.90625 C74.6086957,25.1730762 71.8522435,20.7639434 67.7540217,18.705 C68.3758174,13.5369961 65.0153739,8.79991406 60.035413,7.59159961 C58.0862609,3.07626563 53.7479348,0 49.173913,0 C44.9161304,0 41.0973522,2.48867578 39,6.11990625 C36.9024783,2.48867578 33.0837,0 28.826087,0 C24.2517261,0 19.9134,3.07626563 17.964587,7.59176953 C12.9547826,8.80773047 9.62587826,13.5684316 10.2459783,18.705 C6.14792609,20.7637734 3.39130435,25.1730762 3.39130435,29.90625 C3.39130435,31.4358867 3.69482609,32.931709 4.29542609,34.3699277 C1.58153478,36.6178242 0,39.9323203 0,43.5 C0,45.8789062 0.734217391,48.6064922 2.1834913,50.7864199 C0.767282609,52.7897988 0,55.1641172 0,57.6035156 C0,60.7667812 1.27987826,63.7801758 3.54374348,66.017707 C2.37984783,73.0681055 7.99076087,80.203125 15.2608696,80.203125 C15.3134348,80.203125 15.3651522,80.2022754 15.4158522,80.2007461 C17.8262217,84.3675703 22.3003696,87 27.1304348,87 C32.164487,87 36.662713,83.9719922 39,79.609418 C41.337287,83.9719922 45.835513,87 50.8695652,87 C55.6996304,87 60.1737783,84.3675703 62.5841478,80.2007461 C62.6350174,80.2022754 62.6865652,80.203125 62.7391304,80.203125 C69.173113,80.203125 74.6086957,74.5226367 74.6086957,67.7988281 C74.6086957,67.2263613 74.5585043,66.637582 74.4562565,66.017707 C76.7201217,63.7801758 78,60.7669512 78,57.6035156 C78,55.1641172 77.2327174,52.7897988 75.8165087,50.7865898 Z M37.3043478,25.7229434 C36.3059478,25.1426602 35.147987,24.8085937 33.9130435,24.8085937 C32.9765348,24.8085937 32.2173913,25.569334 32.2173913,26.5078125 C32.2173913,27.446291 32.9765348,28.2070312 33.9130435,28.2070312 C35.7830087,28.2070312 37.3043478,29.7315703 37.3043478,31.6054688 L37.3043478,63.9193418 C34.8166565,61.0916719 31.1791435,59.3027344 27.1304348,59.3027344 C26.1939261,59.3027344 25.4347826,60.0634746 25.4347826,61.0019531 C25.4347826,61.9404316 26.1939261,62.7011719 27.1304348,62.7011719 C32.7403304,62.7011719 37.3043478,67.2747891 37.3043478,72.8964844 C37.3043478,78.6991465 32.6452043,83.6015625 27.1304348,83.6015625 C23.2046609,83.6015625 19.5907174,81.2751621 17.923213,77.6746875 C17.6157913,77.0111426 16.9195565,76.6198125 16.1936478,76.7017148 C16.0737652,76.7154785 15.9545609,76.7314512 15.8353565,76.7477637 C11.0095304,77.4090996 5.57496522,71.9330273 7.04611304,65.8070039 C7.19719565,65.1777832 6.97845652,64.5174668 6.48213913,64.1035371 C4.51789565,62.4656602 3.39130435,60.0964395 3.39130435,57.6035156 C3.39130435,56.0621543 3.82623913,54.5537578 4.63557391,53.2310859 C6.66933913,54.901418 9.19908261,55.9042969 11.8695652,55.9042969 C12.8060739,55.9042969 13.5652174,55.1435566 13.5652174,54.2050781 C13.5652174,53.2665996 12.8060739,52.5058594 11.8695652,52.5058594 C7.26773478,52.5058594 3.39130435,48.2968945 3.39130435,43.5 C3.39130435,40.5900879 4.87143913,37.9131387 7.3509913,36.3391523 C8.11488261,35.8541953 8.36465217,34.8538652 7.91852609,34.0655977 C7.1648087,32.7335801 6.7826087,31.3341035 6.7826087,29.90625 C6.7826087,25.3200586 10.5133826,20.9003906 15.2608696,20.9003906 C19.7774087,20.9003906 23.7391304,25.1088457 23.7391304,29.90625 C23.7391304,30.8447285 24.4982739,31.6054688 25.4347826,31.6054688 C26.3712913,31.6054688 27.1304348,30.8447285 27.1304348,29.90625 C27.1304348,23.1824414 21.6948522,17.5019531 15.2608696,17.5019531 C14.6931652,17.5019531 14.128513,17.548002 13.5694565,17.6351719 C13.5686087,17.5904824 13.5652174,17.5469824 13.5652174,17.5019531 C13.5652174,13.7098066 16.6372304,10.7050781 20.3478261,10.7050781 C22.1591217,10.7050781 23.862913,11.412123 25.1451652,12.6957129 C25.8076565,13.358918 26.8811739,13.3582383 27.5431565,12.6945234 C28.2049696,12.0304687 28.2044609,10.9546934 27.5419696,10.2914883 C25.9950261,8.74299023 24.038413,7.7554043 21.918,7.42813477 C23.4133957,5.2036875 25.9000696,3.3984375 28.826087,3.3984375 C33.3426261,3.3984375 37.3043478,7.60672266 37.3043478,12.4042969 L37.3043478,25.7229434 Z M66.1304348,55.9042969 C68.801087,55.9042969 71.3308304,54.901248 73.3645957,53.2315957 C74.1737609,54.5540977 74.6086957,56.0623242 74.6086957,57.6035156 C74.6086957,60.0964395 73.4821043,62.4656602 71.5180304,64.1035371 C71.0215435,64.5174668 70.8029739,65.1779531 70.9540565,65.8070039 C71.1337957,66.5551699 71.2173913,67.1881289 71.2173913,67.7986582 C71.2173913,73.0730332 66.4568478,77.3356934 62.164813,76.7477637 C62.0456087,76.7314512 61.9262348,76.7153086 61.8063522,76.7017148 C61.0794261,76.6193027 60.3840391,77.0111426 60.0769565,77.6746875 C58.4094522,81.2751621 54.7951696,83.6015625 50.8695652,83.6015625 C45.3547957,83.6015625 40.6956522,78.6991465 40.6956522,72.8964844 C40.6956522,67.2747891 45.2596696,62.7011719 50.8695652,62.7011719 C51.8059043,62.7011719 52.5652174,61.9404316 52.5652174,61.0019531 C52.5652174,60.0634746 51.8059043,59.3027344 50.8695652,59.3027344 C46.8208565,59.3027344 43.1833435,61.0916719 40.6956522,63.9193418 L40.6956522,31.6054688 C40.6956522,29.7315703 42.2169913,28.2070313 44.0869565,28.2070313 C45.0232957,28.2070313 45.7826087,27.446291 45.7826087,26.5078125 C45.7826087,25.569334 45.0232957,24.8085938 44.0869565,24.8085938 C42.852013,24.8085938 41.6940522,25.1426602 40.6956522,25.7229434 L40.6956522,12.4042969 C40.6956522,7.60672266 44.6573739,3.3984375 49.173913,3.3984375 C52.0999304,3.3984375 54.5864348,5.2036875 56.0818304,7.42796484 C53.961587,7.75523438 52.0051435,8.74282031 50.4580304,10.2913184 C49.7953696,10.9545234 49.7946913,12.0302988 50.4565043,12.6943535 C51.1183174,13.3584082 52.1921739,13.358918 52.8544957,12.6957129 C54.1372565,11.412123 55.8408783,10.7050781 57.6521739,10.7050781 C61.3814217,10.7050781 64.4347826,13.7274785 64.4347826,17.5019531 C64.4347826,17.5468125 64.4313913,17.5904824 64.4305435,17.6351719 C63.871487,17.548002 63.3068348,17.5019531 62.7391304,17.5019531 C56.3051478,17.5019531 50.8695652,23.1824414 50.8695652,29.90625 C50.8695652,30.8447285 51.6288783,31.6054688 52.5652174,31.6054688 C53.5015565,31.6054688 54.2608696,30.8447285 54.2608696,29.90625 C54.2608696,25.1088457 58.2225913,20.9003906 62.7391304,20.9003906 C67.4839043,20.9003906 71.2173913,25.3178496 71.2173913,29.90625 C71.2173913,31.3341035 70.8351913,32.7335801 70.0814739,34.0655977 C69.6355174,34.8538652 69.885287,35.8541953 70.6491783,36.3391523 C73.1285609,37.9131387 74.6086957,40.5900879 74.6086957,43.5 C74.6086957,48.3140566 70.7187,52.5058594 66.1304348,52.5058594 C65.1940957,52.5058594 64.4347826,53.2665996 64.4347826,54.2050781 C64.4347826,55.1435566 65.1940957,55.9042969 66.1304348,55.9042969 Z" id="Shape" fill="#040F3D"></path>
                <path d="M33.4811609,36.3722871 C32.8568217,35.6728887 31.785,35.6130762 31.0869,36.2387285 C25.6492826,41.1129375 16.9565217,37.2174785 16.9565217,29.90625 C16.9565217,28.9677715 16.1973783,28.2070312 15.2608696,28.2070312 C14.3243609,28.2070312 13.5652174,28.9677715 13.5652174,29.90625 C13.5652174,35.8050879 17.8733609,40.7124316 23.5017391,41.6405449 C22.848913,43.7013574 20.9219739,45.1992188 18.6521739,45.1992188 C17.7156652,45.1992188 16.9565217,45.959959 16.9565217,46.8984375 C16.9565217,47.836916 17.7156652,48.5976562 18.6521739,48.5976562 C22.7822739,48.5976562 26.2300435,45.6223242 26.9781652,41.6984883 C29.3363087,41.3894004 31.5557478,40.3781953 33.3478826,38.771584 C34.045813,38.1459316 34.1055,37.0716855 33.4811609,36.3722871 Z" id="Path" fill="#040F3D"></path>
                <path d="M15.2608696,66.0996094 C14.3243609,66.0996094 13.5652174,66.8603496 13.5652174,67.7988281 C13.5652174,68.7373066 14.3243609,69.4980469 15.2608696,69.4980469 C19.7774087,69.4980469 23.7391304,73.706502 23.7391304,78.5039062 C23.7391304,79.4423848 24.4982739,80.203125 25.4347826,80.203125 C26.3712913,80.203125 27.1304348,79.4423848 27.1304348,78.5039062 C27.1304348,71.7800977 21.6948522,66.0996094 15.2608696,66.0996094 Z" id="Path" fill="#040F3D"></path>
                <path d="M28.826087,52.5058594 C23.0802,52.5058594 18.1468696,55.6638574 15.5491304,60.2556562 C15.0874043,61.0721309 15.3734609,62.1091641 16.1880522,62.5718613 C17.002813,63.0345586 18.0375,62.7480703 18.4993957,61.9315957 C20.5231565,58.3537207 24.3631304,55.9042969 28.826087,55.9042969 C29.7625957,55.9042969 30.5217391,55.1435566 30.5217391,54.2050781 C30.5217391,53.2665996 29.7625957,52.5058594 28.826087,52.5058594 Z" id="Path" fill="#040F3D"></path>
                <path d="M59.3478261,45.1992188 C57.0780261,45.1992188 55.151087,43.7013574 54.4982609,41.6405449 C60.1266391,40.7124316 64.4347826,35.8050879 64.4347826,29.90625 C64.4347826,28.9677715 63.6754696,28.2070312 62.7391304,28.2070312 C61.8027913,28.2070312 61.0434783,28.9677715 61.0434783,29.90625 C61.0434783,34.5909961 57.2401304,38.4023438 52.5652174,38.4023438 C50.4768522,38.4023438 48.4697087,37.633957 46.9131,36.2387285 C46.2153391,35.6130762 45.1431783,35.6727188 44.5188391,36.3722871 C43.8943304,37.0716855 43.954187,38.1459316 44.6521174,38.771584 C46.4442522,40.3781953 48.6638609,41.3894004 51.0218348,41.6984883 C51.7699565,45.6223242 55.2177261,48.5976562 59.3478261,48.5976562 C60.2841652,48.5976562 61.0434783,47.836916 61.0434783,46.8984375 C61.0434783,45.959959 60.2841652,45.1992188 59.3478261,45.1992188 Z" id="Path" fill="#E3826F"></path>
                <path d="M62.7391304,66.0996094 C56.3051478,66.0996094 50.8695652,71.7800977 50.8695652,78.5039062 C50.8695652,79.4423848 51.6288783,80.203125 52.5652174,80.203125 C53.5015565,80.203125 54.2608696,79.4423848 54.2608696,78.5039062 C54.2608696,73.706502 58.2225913,69.4980469 62.7391304,69.4980469 C63.6754696,69.4980469 64.4347826,68.7373066 64.4347826,67.7988281 C64.4347826,66.8603496 63.6754696,66.0996094 62.7391304,66.0996094 Z" id="Path" fill="#E3826F"></path>
                <path d="M62.4508696,60.2558262 C59.8595739,55.6749023 54.9330261,52.5058594 49.173913,52.5058594 C48.2375739,52.5058594 47.4782609,53.2665996 47.4782609,54.2050781 C47.4782609,55.1435566 48.2375739,55.9042969 49.173913,55.9042969 C53.6336478,55.9042969 57.4765043,58.353041 59.5002652,61.9315957 C59.9626696,62.7490898 60.9982043,63.0342188 61.8116087,62.5720313 C62.6263696,62.109334 62.9124261,61.0723008 62.4508696,60.2558262 Z" id="Path" fill="#E3826F"></path>
            </g>
        </g>
    </g>
</svg>