<?xml version="1.0" encoding="UTF-8"?>
<svg width="22px" height="22px" viewBox="0 0 22 22" version="1.1" xmlns="http://www.w3.org/2000/svg" xmlns:xlink="http://www.w3.org/1999/xlink">
    <!-- Generator: Sketch 54.1 (76490) - https://sketchapp.com -->
    <title>drible</title>
    <desc>Created with Sketch.</desc>
    <g id="Page-1" stroke="none" stroke-width="1" fill="none" fill-rule="evenodd">
        <g id="Artboard" transform="translate(-125.000000, -76.000000)" fill="#313A60">
            <path d="M136,76 C129.92734,76 125,80.92734 125,87 C125,93.07266 129.92734,98 136,98 C142.060736,98 147,93.07266 147,87 C147,80.92734 142.060736,76 136,76 Z M143.26572,81.070494 C144.578086,82.66919 145.36551,84.709338 145.38938,86.916488 C145.07918,86.856824 141.977224,86.224522 138.85142,86.618212 C138.779832,86.463134 138.720168,86.296088 138.648602,86.129064 C138.457708,85.67571 138.242944,85.21041 138.028202,84.76898 C141.488076,83.361178 143.062902,81.332976 143.26572,81.070494 Z M136,77.6225594 C138.38612,77.6225594 140.569422,78.51735 142.22776,79.984816 C142.060736,80.223428 140.640988,82.1204 137.300442,83.373102 C135.761388,80.545552 134.05531,78.23102 133.79285,77.873102 C134.49674,77.7060736 135.236446,77.6225594 136,77.6225594 Z M132.00326,78.505426 C132.253796,78.839474 133.92408,81.165952 135.486982,83.933838 C131.09653,85.103028 127.219096,85.07918 126.801518,85.0792166 C127.409968,82.168118 129.378528,79.746204 132.00326,78.505426 Z M126.598698,87.011924 C126.598698,86.916488 126.598698,86.821052 126.598698,86.725594 C127.004339,86.737518 131.56183,86.797182 136.250536,85.38938 C136.524942,85.914322 136.775478,86.451188 137.01409,86.988076 C136.894784,87.02387 136.763554,87.059664 136.644248,87.095436 C131.800442,88.65836 129.223428,92.929506 129.008686,93.287424 C127.51735,91.629064 126.598698,89.421914 126.598698,87.011924 Z M136,96.401304 C133.828644,96.401304 131.82429,95.661598 130.237518,94.42082 C130.404564,94.074848 132.31346,90.40021 137.61062,88.550978 C137.63449,88.539054 137.646414,88.539054 137.670284,88.527108 C138.994574,91.951188 139.531462,94.826456 139.674616,95.649674 C138.54122,96.138822 137.300442,96.401304 136,96.401304 Z M141.23754,94.790684 C141.142082,94.218002 140.64101,91.473964 139.412156,88.097624 C142.359012,87.632324 144.936004,88.395878 145.258128,88.50326 C144.852492,91.116046 143.349232,93.370936 141.23754,94.790684 Z" id="drible"></path>
        </g>
    </g>
</svg>