<?xml version="1.0" encoding="UTF-8"?>
<svg width="53px" height="41px" viewBox="0 0 53 41" version="1.1" xmlns="http://www.w3.org/2000/svg" xmlns:xlink="http://www.w3.org/1999/xlink">
    <!-- Generator: Sketch 54.1 (76490) - https://sketchapp.com -->
    <title>education</title>
    <desc>Created with Sketch.</desc>
    <g id="Page-1" stroke="none" stroke-width="1" fill="none" fill-rule="evenodd">
        <g id="Mobile" transform="translate(-444.000000, -131.000000)" fill="#040F3D" fill-rule="nonzero">
            <g id="education" transform="translate(444.000000, 131.000000)">
                <path d="M8.10739394,0.00018061674 C8.10596633,0.00018061674 8.10436027,0.00018061674 8.10293266,0.00018061674 C7.6016633,0.00018061674 7.13019529,0.197955947 6.77418519,0.55738326 C6.41424916,0.920784141 6.2159899,1.40465639 6.2159899,1.91977533 L6.2159899,30.7037621 C6.2159899,31.7592863 7.06773737,32.6201057 8.11488889,32.622815 C12.5294141,32.6334714 19.9255017,33.5647313 25.0277778,38.9689648 L25.0277778,8.84570485 C25.0277778,8.48790308 24.9374815,8.15177533 24.7670606,7.87362555 C20.5793468,1.04775771 12.5319125,0.0106563877 8.10739394,0.00018061674 Z" id="Path"></path>
                <path d="M46.7840101,30.7037621 L46.7840101,1.91959471 C46.7840101,1.40447577 46.5857508,0.920603524 46.2258148,0.557202643 C45.8698047,0.19777533 45.3979798,1.77635684e-15 44.8972458,1.77635684e-15 C44.8956397,1.77635684e-15 44.8940337,1.77635684e-15 44.8926061,1.77635684e-15 C40.468266,0.0106563877 32.4208316,1.04775771 28.2329394,7.87362555 C28.0625185,8.15177533 27.9724007,8.48790308 27.9724007,8.84570485 L27.9724007,38.9687841 C33.0746768,33.5645507 40.4707643,32.6332907 44.8852896,32.6226344 C45.9322626,32.6199251 46.7840101,31.7591057 46.7840101,30.7037621 Z" id="Path"></path>
                <path d="M51.1035993,6.63820705 L49.7284545,6.63820705 L49.7284545,30.7037621 C49.7284545,33.3987445 47.5590236,35.5963084 44.8922492,35.6029912 C41.1478081,35.612022 34.9737542,36.3530925 30.601165,40.5417753 C38.163569,38.667696 46.135697,39.8859559 50.679064,40.9338943 C51.2463603,41.0646608 51.8325724,40.9295595 52.2870875,40.5629075 C52.7399966,40.1971586 52.9998215,39.6504317 52.9998215,39.0636079 L52.9998215,8.55744053 C53,7.49920705 52.1491448,6.63820705 51.1035993,6.63820705 Z" id="Path"></path>
                <path d="M3.271367,30.7037621 L3.271367,6.63820705 L1.89622222,6.63820705 C0.850855219,6.63820705 7.10542736e-14,7.49920705 7.10542736e-14,8.55744053 L7.10542736e-14,39.0630661 C7.10542736e-14,39.6500705 0.259824916,40.1966167 0.712734007,40.5623656 C1.16689226,40.928837 1.75256902,41.0644802 2.32075758,40.9333524 C6.86412458,39.8852335 14.836431,38.6671542 22.3984781,40.5412335 C18.0260673,36.3527313 11.8520135,35.6118414 8.10757239,35.6028106 C5.44097643,35.5963084 3.271367,33.3987445 3.271367,30.7037621 Z" id="Path"></path>
            </g>
        </g>
    </g>
</svg>