<?xml version="1.0" encoding="UTF-8"?>
<svg width="56px" height="43px" viewBox="0 0 56 43" version="1.1" xmlns="http://www.w3.org/2000/svg" xmlns:xlink="http://www.w3.org/1999/xlink">
    <!-- Generator: Sketch 54.1 (76490) - https://sketchapp.com -->
    <title>education</title>
    <desc>Created with Sketch.</desc>
    <g id="Page-1" stroke="none" stroke-width="1" fill="none" fill-rule="evenodd">
        <g id="Mobile" transform="translate(-443.000000, -130.000000)" fill="#040F3D" fill-rule="nonzero">
            <g id="education" transform="translate(443.000000, 130.000000)">
                <path d="M8.56630303,0.000189427313 C8.56479461,0.000189427313 8.56309764,0.000189427313 8.56158923,0.000189427313 C8.03194613,0.000189427313 7.53379125,0.207612335 7.15762963,0.584572687 C6.77731987,0.965700441 6.56783838,1.47317621 6.56783838,2.01342291 L6.56783838,32.2015066 C6.56783838,33.3085198 7.46779798,34.2113304 8.57422222,34.2141718 C13.2386263,34.225348 21.0533603,35.2020352 26.4444444,40.8698899 L26.4444444,9.27720264 C26.4444444,8.90194714 26.349037,8.54942291 26.1689697,8.25770485 C21.7442155,1.09886784 13.241266,0.0111762115 8.56630303,0.000189427313 Z" id="Path"></path>
                <path d="M49.4321616,32.2015066 L49.4321616,2.01323348 C49.4321616,1.47298678 49.2226801,0.965511013 48.8423704,0.58438326 C48.4662088,0.207422907 47.9676768,1.77635684e-15 47.4385993,1.77635684e-15 C47.4369024,1.77635684e-15 47.4352054,1.77635684e-15 47.433697,1.77635684e-15 C42.7589226,0.0111762115 34.2559731,1.09886784 29.8310303,8.25770485 C29.650963,8.54942291 29.5557441,8.90194714 29.5557441,9.27720264 L29.5557441,40.8697004 C34.9468283,35.2018458 42.7615623,34.2251586 47.4259663,34.2139824 C48.532202,34.211141 49.4321616,33.3083304 49.4321616,32.2015066 Z" id="Path"></path>
                <path d="M53.9962559,6.96202203 L52.5432727,6.96202203 L52.5432727,32.2015066 C52.5432727,35.0279515 50.2510438,37.3327137 47.4333199,37.3397225 C43.4769293,37.3491938 36.9534007,38.1264141 32.3333064,42.5194229 C40.323771,40.5539251 48.7471515,41.8316123 53.5476902,42.9306696 C54.1470976,43.067815 54.7664916,42.9261233 55.246734,42.5415859 C55.7252795,42.1579956 55.9998114,41.5845991 55.9998114,40.9691498 L55.9998114,8.97487665 C56,7.86502203 55.1009832,6.96202203 53.9962559,6.96202203 Z" id="Path"></path>
                <path d="M3.45653872,32.2015066 L3.45653872,6.96202203 L2.00355556,6.96202203 C0.899016835,6.96202203 7.10542736e-14,7.86502203 7.10542736e-14,8.97487665 L7.10542736e-14,40.9685815 C7.10542736e-14,41.5842203 0.274531987,42.1574273 0.753077441,42.5410176 C1.23294276,42.9253656 1.85177104,43.0676256 2.45212121,42.9301013 C7.25265993,41.8308546 15.676229,40.5533568 23.6663165,42.5188546 C19.0464108,38.1260352 12.5228822,37.3490044 8.56649158,37.339533 C5.74895623,37.3327137 3.45653872,35.0279515 3.45653872,32.2015066 Z" id="Path"></path>
            </g>
        </g>
    </g>
</svg>