<?xml version="1.0" encoding="UTF-8"?>
<svg width="30px" height="23px" viewBox="0 0 30 23" version="1.1" xmlns="http://www.w3.org/2000/svg" xmlns:xlink="http://www.w3.org/1999/xlink">
    <!-- Generator: Sketch 54.1 (76490) - https://sketchapp.com -->
    <title>education</title>
    <desc>Created with Sketch.</desc>
    <g id="Page-1" stroke="none" stroke-width="1" fill="none" fill-rule="evenodd">
        <g id="Mobile" transform="translate(-455.000000, -140.000000)" fill="#040F3D" fill-rule="nonzero">
            <g id="education" transform="translate(455.000000, 140.004863)">
                <path d="M4.58909091,0.000101321586 C4.58828283,0.000101321586 4.58737374,0.000101321586 4.58656566,0.000101321586 C4.30282828,0.000101321586 4.0359596,0.111048458 3.83444444,0.312678414 C3.63070707,0.516537445 3.51848485,0.787977974 3.51848485,1.07694714 L3.51848485,17.2240617 C3.51848485,17.816185 4.00060606,18.2990837 4.59333333,18.3006035 C7.09212121,18.3065815 11.2785859,18.8289956 14.1666667,21.8606388 L14.1666667,4.96222467 C14.1666667,4.76150661 14.1155556,4.57294714 14.0190909,4.41691189 C11.6486869,0.58776652 7.09353535,0.00597797357 4.58909091,0.000101321586 Z" id="Path"></path>
                <path d="M26.4815152,17.2240617 L26.4815152,1.07684581 C26.4815152,0.787876652 26.3692929,0.516436123 26.1655556,0.312577093 C25.9640404,0.110947137 25.6969697,1.77635684e-15 25.4135354,1.77635684e-15 C25.4126263,1.77635684e-15 25.4117172,1.77635684e-15 25.4109091,1.77635684e-15 C22.9065657,0.00597797357 18.3514141,0.58776652 15.9809091,4.41691189 C15.8844444,4.57294714 15.8334343,4.76150661 15.8334343,4.96222467 L15.8334343,21.8605374 C18.7215152,18.8288943 22.9079798,18.3064802 25.4067677,18.3005022 C25.9993939,18.2989824 26.4815152,17.8160837 26.4815152,17.2240617 Z" id="Path"></path>
                <path d="M28.9265657,3.72387225 L28.1481818,3.72387225 L28.1481818,17.2240617 C28.1481818,18.7358811 26.920202,19.9686608 25.4107071,19.9724097 C23.2912121,19.9774758 19.7964646,20.3931982 17.3214141,22.7429471 C21.6020202,21.6916344 26.1145455,22.3750485 28.6862626,22.9629163 C29.0073737,23.0362731 29.3391919,22.9604846 29.5964646,22.7548018 C29.8528283,22.5496256 29.999899,22.2429251 29.999899,21.9137313 L29.999899,4.80051542 C30,4.20687225 29.5183838,3.72387225 28.9265657,3.72387225 Z" id="Path"></path>
                <path d="M1.85171717,17.2240617 L1.85171717,3.72387225 L1.07333333,3.72387225 C0.481616162,3.72387225 7.10542736e-14,4.20687225 7.10542736e-14,4.80051542 L7.10542736e-14,21.9134273 C7.10542736e-14,22.2427225 0.147070707,22.5493216 0.403434343,22.7544978 C0.660505051,22.9600793 0.992020202,23.0361718 1.31363636,22.9626123 C3.88535354,22.3746432 8.3979798,21.6913304 12.6783838,22.7426432 C10.2034343,20.3929956 6.70868687,19.9773744 4.58919192,19.9723084 C3.07979798,19.9686608 1.85171717,18.7358811 1.85171717,17.2240617 Z" id="Path"></path>
            </g>
        </g>
    </g>
</svg>