<?xml version="1.0" encoding="UTF-8"?>
<svg width="61px" height="47px" viewBox="0 0 61 47" version="1.1" xmlns="http://www.w3.org/2000/svg" xmlns:xlink="http://www.w3.org/1999/xlink">
    <!-- Generator: Sketch 54.1 (76490) - https://sketchapp.com -->
    <title>education</title>
    <desc>Created with Sketch.</desc>
    <g id="Page-1" stroke="none" stroke-width="1" fill="none" fill-rule="evenodd">
        <g id="Mobile" transform="translate(-440.000000, -128.000000)" fill="#040F3D" fill-rule="nonzero">
            <g id="education" transform="translate(440.000000, 128.000000)">
                <path d="M9.33115152,0.000207048458 C9.32950842,0.000207048458 9.32765993,0.000207048458 9.32601684,0.000207048458 C8.74908418,0.000207048458 8.20645118,0.22692511 7.7967037,0.638951542 C7.38243771,1.05553304 7.15425253,1.61021586 7.15425253,2.20071806 L7.15425253,35.1969956 C7.15425253,36.4069868 8.13456566,37.3937797 9.33977778,37.3968855 C14.4206465,37.4091013 22.9331246,38.4766432 28.8055556,44.6717401 L28.8055556,10.1401982 C28.8055556,9.73003524 28.7016296,9.34471806 28.5054848,9.02586344 C23.6856633,1.20108811 14.4235219,0.012215859 9.33115152,0.000207048458 Z" id="Path"></path>
                <path d="M53.8457475,35.1969956 L53.8457475,2.20051101 C53.8457475,1.61000881 53.6175623,1.05532599 53.2032963,0.638744493 C52.7935488,0.226718062 52.2505051,1.77635684e-15 51.6741886,1.77635684e-15 C51.6723401,1.77635684e-15 51.6704916,1.77635684e-15 51.6688485,1.77635684e-15 C46.5766835,0.012215859 37.3145421,1.20108811 32.4945152,9.02586344 C32.2983704,9.34471806 32.1946498,9.73003524 32.1946498,10.1401982 L32.1946498,44.671533 C38.0670808,38.4764361 46.5795589,37.4088943 51.6604276,37.3966784 C52.8654343,37.3935727 53.8457475,36.4067797 53.8457475,35.1969956 Z" id="Path"></path>
                <path d="M58.8173502,7.60965198 L57.2346364,7.60965198 L57.2346364,35.1969956 C57.2346364,38.2863656 54.7377441,40.8055242 51.6684377,40.813185 C47.358798,40.8235374 40.2528114,41.6730573 35.2202088,46.4747181 C43.9241077,44.3263833 53.0995758,45.7229251 58.328734,46.9242203 C58.9816599,47.0741233 59.6563569,46.9192511 60.1794781,46.4989427 C60.7007508,46.0796696 60.9997946,45.4529339 60.9997946,44.7802335 L60.9997946,9.8097489 C61,8.59665198 60.0207138,7.60965198 58.8173502,7.60965198 Z" id="Path"></path>
                <path d="M3.76515825,35.1969956 L3.76515825,7.60965198 L2.18244444,7.60965198 C0.979286195,7.60965198 7.10542736e-14,8.59665198 7.10542736e-14,9.8097489 L7.10542736e-14,44.7796123 C7.10542736e-14,45.4525198 0.299043771,46.0790485 0.820316498,46.4983216 C1.34302694,46.9184229 2.01710774,47.0739163 2.67106061,46.9235991 C7.90021886,45.7220969 17.0758923,44.3257621 25.7793805,46.4740969 C20.7469832,41.6726432 13.6409966,40.8233304 9.3313569,40.812978 C6.26225589,40.8055242 3.76515825,38.2863656 3.76515825,35.1969956 Z" id="Path"></path>
            </g>
        </g>
    </g>
</svg>