<?xml version="1.0" encoding="UTF-8"?>
<svg width="51px" height="50px" viewBox="0 0 51 50" version="1.1" xmlns="http://www.w3.org/2000/svg" xmlns:xlink="http://www.w3.org/1999/xlink">
    <!-- Generator: Sketch 54.1 (76490) - https://sketchapp.com -->
    <title>Group 3</title>
    <desc>Created with Sketch.</desc>
    <g id="Page-1" stroke="none" stroke-width="1" fill="none" fill-rule="evenodd">
        <g id="Mobile" transform="translate(-317.000000, -162.000000)">
            <g id="Group-3" transform="translate(311.000000, 156.000000)">
                <g id="Group-2">
                    <path d="M31.1570248,54.5172414 C44.211028,54.5172414 54.7933884,43.9882138 54.7933884,31 C54.7933884,18.0117862 44.211028,7.48275862 31.1570248,7.48275862 C18.1030216,7.48275862 7.52066116,18.0117862 7.52066116,31 C7.52066116,43.9882138 18.1030216,54.5172414 31.1570248,54.5172414 Z M31.1570248,53.173399 C18.8489647,53.173399 8.87131051,43.2460301 8.87131051,31 C8.87131051,18.7539699 18.8489647,8.82660099 31.1570248,8.82660099 C43.4650849,8.82660099 53.4427391,18.7539699 53.4427391,31 C53.4427391,43.2460301 43.4650849,53.173399 31.1570248,53.173399 Z" id="Oval" fill-rule="nonzero" transform="translate(31.157025, 31.000000) rotate(67.000000) translate(-31.157025, -31.000000) "></path>
                    <g id="Group" transform="translate(18.801653, 16.034483)" fill="#F98F7A">
                        <polygon id="Path-2" points="16.2706612 19.8966244 22.3140496 0 24.1735537 0 18.1301653 19.7508082 23.2438017 28.9372306 21.3842975 28.9372306"></polygon>
                        <path d="M14.411157,20.6694504 L6.02479339,20.7934671 L2.30113636,28.9372306 L0,28.9372306 L13.4721074,0 L16.2706612,0 L16.2706612,28.9372306 L14.411157,28.9372306 L14.411157,20.6694504 Z M14.411157,18.8321659 L14.5180785,2.31497845 L6.86157025,19.0158944 L14.411157,18.8321659 Z" id="A" fill-rule="nonzero"></path>
                    </g>
                    <path d="M36.1244894,8.12388525 C34.3582521,7.70469974 32.5150933,7.48275862 30.6198347,7.48275862 C17.5658315,7.48275862 6.98347107,18.0117862 6.98347107,31 C6.98347107,43.9882138 17.5658315,54.5172414 30.6198347,54.5172414 L30.6198347,54.5172414 C31.8268684,54.5172414 33.0127703,54.4272212 34.1711285,54.2535606" id="Path" stroke="#F98F7A" stroke-width="1.07107433"></path>
                </g>
                <path d="M22.861582,23.1824599 L21.2141414,24.604475 L21.5464905,25.7115428 L21.323315,25.9041803 L20.1657368,21.9502754 L20.3726813,21.7716479 L24.1434413,23.4699427 L23.9202658,23.6625802 L22.861582,23.1824599 Z M22.6331147,23.0754042 L20.4643137,22.0888009 L21.1439257,24.3608218 L22.6331147,23.0754042 Z M25.6408053,19.1350174 C25.9513377,18.9722975 26.2444688,18.9334693 26.5202072,19.0185316 C26.7959456,19.1035939 27.0230932,19.3147929 27.2016567,19.6521349 L27.9651371,21.0945012 L27.7274859,21.2190311 L26.9740184,19.7955811 C26.8271624,19.518141 26.6448508,19.3438548 26.4270781,19.2727174 C26.2093054,19.20158 25.9736746,19.2324272 25.7201788,19.3652598 C25.4286585,19.5180172 25.2448231,19.7250937 25.1686671,19.9864954 C25.092511,20.2478971 25.1320325,20.5251956 25.2872325,20.8183994 L25.9831261,22.1330808 L25.7454749,22.2576107 L24.438797,19.7890364 L24.6669422,19.6694876 L24.9498054,20.2038725 C24.9435753,19.9856414 24.9993554,19.7832457 25.1171474,19.5966793 C25.2349394,19.4101129 25.4094903,19.2562272 25.6408053,19.1350174 Z M31.9058913,16.7250854 L32.6194003,19.4232558 L32.3700359,19.4885352 L32.2169459,18.9096174 C32.1770162,19.1227182 32.0826324,19.3049366 31.9337917,19.4562781 C31.784951,19.6076195 31.5910459,19.7145685 31.3520705,19.7771282 C30.9988026,19.8696078 30.6957634,19.8439314 30.4429441,19.7000983 C30.1901247,19.5562652 30.0149655,19.2999938 29.9174612,18.9312764 L29.5005642,17.3547593 L29.7603188,17.2867599 L30.1717483,18.8426015 C30.2519387,19.1458456 30.3909174,19.3563217 30.5886887,19.4740359 C30.7864599,19.59175 31.0273418,19.6134337 31.3113415,19.5390874 C31.6161217,19.4593011 31.8326319,19.3012999 31.9608785,19.0650792 C32.0891252,18.8288585 32.1108748,18.5505154 32.0261281,18.2300414 L31.6461368,16.7930848 L31.9058913,16.7250854 Z M36.0535461,17.3612598 L35.3520938,18.0544693 L35.3876678,18.8821611 L35.119318,18.8935788 L34.9490219,14.9313379 L35.2173717,14.9199202 L35.3378642,17.7233926 L37.0604404,16.0184387 L37.4039281,16.0038242 L36.2447806,17.1819324 L37.6418061,18.7862529 L37.3090523,18.8004108 L36.0535461,17.3612598 Z M41.0234898,16.1898422 C41.3664441,16.2448663 41.6157327,16.3741905 41.771363,16.5778188 C41.9269933,16.781447 41.9774414,17.0521111 41.9227087,17.3898193 L41.6396396,19.1363949 L41.3850768,19.0955525 L41.4646098,18.6048228 C41.3499935,18.7524598 41.2005637,18.8575144 41.0163159,18.9199897 C40.8320682,18.9824651 40.6215045,18.9946994 40.3846184,18.956693 C40.0770202,18.9073415 39.845638,18.7962294 39.690465,18.6233533 C39.535292,18.4504772 39.4768058,18.2461962 39.5150047,18.010504 C39.5520633,17.7818475 39.664339,17.6094752 39.8518353,17.4933821 C40.0393316,17.377289 40.3133919,17.3481731 40.6740243,17.4060335 L41.6233314,17.5583416 L41.6592495,17.3367218 C41.7008692,17.0799228 41.6626837,16.8734851 41.5446921,16.7174022 C41.4267004,16.5613193 41.2333542,16.4617236 40.9646477,16.4186119 C40.7807959,16.3891145 40.5997707,16.3925534 40.4215667,16.4289289 C40.2433628,16.4653044 40.0873736,16.5268984 39.9535944,16.6137127 L39.8517966,16.4024807 C40.0096401,16.301481 40.1913472,16.2322833 40.3969235,16.1948856 C40.6024997,16.1574878 40.8113531,16.1558067 41.0234898,16.1898422 Z M40.4568051,18.746306 C40.6866199,18.7831778 40.8905114,18.7617523 41.0684857,18.6820288 C41.24646,18.6023052 41.3923533,18.4687118 41.5061699,18.2812445 L41.5899789,17.7641315 L40.6459751,17.6126742 C40.373733,17.5689953 40.1686439,17.5866195 40.0307016,17.6655473 C39.8927593,17.7444751 39.8098211,17.870123 39.7818846,18.0424949 C39.7528079,18.2219024 39.7970361,18.3742692 39.9145704,18.4995999 C40.0321048,18.6249306 40.2128479,18.7071652 40.4568051,18.746306 Z M46.4174201,17.5437875 C46.7437209,17.6723834 46.9641745,17.8684915 47.0787873,18.1321178 C47.1934001,18.395744 47.1801483,18.7047884 47.0390314,19.0592602 L46.435661,20.5748678 L46.1859422,20.4764531 L46.7813996,18.9807223 C46.8974583,18.6891941 46.9117374,18.4380425 46.8242372,18.2272597 C46.7367371,18.016477 46.5598056,17.8585999 46.2934376,17.7536237 C45.9871143,17.6329011 45.7094541,17.628869 45.4604486,17.7415274 C45.211443,17.8541857 45.0256166,18.0645579 44.9029636,18.3726502 L44.3530062,19.7540893 L44.1032874,19.6556746 L45.1359412,17.0617494 L45.3756712,17.1562275 L45.1521274,17.7177477 C45.3145633,17.5709721 45.5052874,17.4813383 45.7243053,17.4488437 C45.9433233,17.4163491 46.1743592,17.4479967 46.4174201,17.5437875 Z M53.0528445,19.7657396 L50.7868989,23.0284342 L50.5703465,22.8795504 L50.9459682,22.3386994 C50.7304429,22.4547234 50.5065946,22.5043858 50.2744168,22.487688 C50.0422391,22.4709902 49.8215596,22.3907324 49.612372,22.2469119 C49.3972917,22.0990402 49.2374483,21.915516 49.1328369,21.6963338 C49.0282255,21.4771515 48.9876468,21.2456907 49.0110996,21.0019444 C49.0345524,20.7581981 49.1246596,20.5234674 49.2814239,20.2977452 C49.4381882,20.0720231 49.6275041,19.9044175 49.8493773,19.7949233 C50.0712505,19.6854291 50.3032009,19.6413372 50.5452356,19.6626461 C50.7872703,19.6839551 51.0158243,19.7685441 51.2309046,19.9164158 C51.4371459,20.0582106 51.5884319,20.2336859 51.6847672,20.442847 C51.7811024,20.652008 51.8163513,20.8754734 51.7905149,21.1132498 L52.8318727,19.6138174 L53.0528445,19.7657396 Z M49.7630529,22.058155 C49.9398312,22.1796933 50.1266949,22.2475301 50.3236496,22.2616672 C50.5206043,22.2758043 50.710488,22.2374396 50.8933064,22.1465718 C51.0761248,22.0557041 51.2326804,21.9164657 51.362978,21.7288525 C51.4932756,21.5412393 51.5688091,21.3462967 51.5895808,21.1440188 C51.6103524,20.9417409 51.5792665,20.7514555 51.4963222,20.5731568 C51.4133779,20.3948581 51.2835186,20.2449419 51.1067403,20.1234035 C50.929962,20.0018651 50.7430983,19.9340284 50.5461436,19.9198913 C50.3491889,19.9057541 50.1593052,19.9441189 49.9764868,20.0349866 C49.7936684,20.1258543 49.6371127,20.2650927 49.5068151,20.4527059 C49.3765175,20.6403191 49.300984,20.8352617 49.2802124,21.0375396 C49.2594408,21.2398175 49.2905267,21.430103 49.3734709,21.6084016 C49.4564152,21.7867003 49.5862746,21.9366166 49.7630529,22.058155 Z M54.7969769,22.5667215 L54.9877494,22.754843 L53.0138126,24.7364709 L52.8230401,24.5483493 L54.7969769,22.5667215 Z M55.3726122,22.1786621 C55.3293702,22.136021 55.3069834,22.0850992 55.3054512,22.0258951 C55.303919,21.966691 55.3245811,21.9155776 55.3674382,21.8725536 C55.4102953,21.8295295 55.462111,21.8078826 55.5228868,21.8076123 C55.5836626,21.807342 55.6356707,21.828527 55.6789127,21.8711681 C55.7221547,21.9138092 55.7445415,21.964731 55.7460737,22.0239352 C55.7476059,22.0831393 55.7269437,22.1342526 55.6840867,22.1772766 C55.6412296,22.2203007 55.5894139,22.2419476 55.5286381,22.2422179 C55.4678623,22.2424882 55.4158542,22.2213032 55.3726122,22.1786621 Z M58.9992304,28.0376335 C59.1857284,28.3292342 59.2462199,28.6129718 59.1807066,28.8888549 C59.1151933,29.1647379 58.9207936,29.4050197 58.5975017,29.6097076 L57.2152088,30.4848873 L57.07101,30.259424 L58.4351744,29.395722 C58.7010594,29.2273806 58.8621549,29.0345813 58.9184658,28.8173184 C58.9747768,28.6000554 58.9289105,28.3756889 58.7808656,28.1442121 C58.6116715,27.8796671 58.3944802,27.7225942 58.129285,27.6729886 C57.8640899,27.6233831 57.5910004,27.6875325 57.3100083,27.8654388 L56.0500824,28.6631436 L55.9058836,28.4376802 L57.270048,27.5739783 C57.535933,27.4056369 57.6970285,27.2128376 57.7533394,26.9955746 C57.8096503,26.7783117 57.7637841,26.5539451 57.6157392,26.3224683 C57.4465451,26.0579233 57.2293537,25.9008504 56.9641586,25.8512449 C56.6989635,25.8016393 56.425874,25.8657887 56.1448819,26.043695 L54.884956,26.8413998 L54.7407572,26.6159365 L57.1065173,25.1180879 L57.2449482,25.3345327 L56.7373521,25.6559102 C56.9535194,25.6288578 57.1571852,25.6635678 57.3483555,25.7600411 C57.5395258,25.8565144 57.703363,26.0114686 57.8398719,26.2249083 C57.9763808,26.438348 58.0438773,26.6500755 58.0423636,26.8600971 C58.0408498,27.0701187 57.966618,27.2659937 57.8196658,27.4477279 C58.0448973,27.4149366 58.2622278,27.4494418 58.4716638,27.5512445 C58.6810997,27.6530472 58.8569535,27.8151752 58.9992304,28.0376335 Z M61.4044368,32.7146455 C61.5079947,33.0445643 61.5029248,33.3242414 61.389227,33.5536853 C61.2755292,33.7831292 61.0545979,33.9488355 60.7264264,34.0508093 L59.0291732,34.5782023 L58.9523059,34.3333153 L59.4291776,34.1851354 C59.2452386,34.1489673 59.0840637,34.0627985 58.945648,33.9266265 C58.8072323,33.7904545 58.7022612,33.6084302 58.6307315,33.3805482 C58.5378497,33.0846417 58.53453,32.8290357 58.6207724,32.6137226 C58.7070148,32.3984095 58.8646518,32.2551705 59.0936881,32.1840013 C59.3158875,32.1149565 59.5210297,32.1380022 59.7091207,32.2531389 C59.8972118,32.3682757 60.0457031,32.599303 60.154599,32.9462279 L60.4412501,33.859452 L60.6566116,33.7925321 C60.9061586,33.7149895 61.074795,33.5888637 61.1625257,33.4141507 C61.2502564,33.2394377 61.2535526,33.0228379 61.1724144,32.7643449 C61.1168989,32.5874812 61.0330206,32.4278328 60.9207771,32.2853947 C60.8085336,32.1429566 60.6835214,32.0315525 60.5457368,31.9511789 L60.6902972,31.7662736 C60.8515798,31.8617434 60.994908,31.9926533 61.1202862,32.1590073 C61.2456644,32.3253612 61.3403804,32.5105721 61.4044368,32.7146455 Z M58.8521751,33.3509343 C58.9215696,33.5720138 59.03183,33.7439955 59.1829597,33.8668844 C59.3340894,33.9897733 59.5193549,34.0600573 59.7387617,34.0777385 L60.2412717,33.921592 L59.9562219,33.0134697 C59.8740162,32.7515754 59.7666404,32.5768309 59.6340912,32.489231 C59.5015421,32.4016312 59.3515177,32.383856 59.1840135,32.4359051 C59.0096725,32.4900787 58.892366,32.597455 58.8320908,32.7580372 C58.7718155,32.9186194 58.7785102,33.1162498 58.8521751,33.3509343 Z M63.6408569,36.4674481 L63.6772436,36.7322259 L59.7280381,37.2694828 L59.6916514,37.004705 L63.6408569,36.4674481 Z M63.9890121,39.763364 L63.9915636,40.0305933 L60.0057931,40.0682668 L60.0032416,39.8010375 L63.9890121,39.763364 Z M62.5826962,43.9790977 C62.5290113,44.3205793 62.4002091,44.5692186 62.1962856,44.7250231 C61.9923621,44.8808276 61.7205679,44.9322972 61.3808948,44.8794336 L59.6241568,44.6060306 L59.6640052,44.352561 L60.1575902,44.4293781 C60.0086665,44.3160369 59.9023763,44.1678572 59.8387163,43.9848347 C59.7750564,43.8018122 59.7617673,43.5923697 59.7988486,43.3565009 C59.846999,43.0502236 59.9575816,42.8194861 60.1305996,42.6642816 C60.3036177,42.5090771 60.5086554,42.449923 60.7457189,42.4868175 C60.9757059,42.5226106 61.1494788,42.6335064 61.2670429,42.8195082 C61.3846069,43.00551 61.4151624,43.2780487 61.3587102,43.6371325 L61.2101089,44.5823631 L61.4330183,44.6170547 C61.6913114,44.6572531 61.8986124,44.618287 62.0549278,44.5001553 C62.2112431,44.3820235 62.3104304,44.1891842 62.3524928,43.9216316 C62.3812724,43.7385693 62.3769623,43.5584747 62.3395626,43.3813423 C62.3021629,43.20421 62.2395221,43.0492991 62.1516382,42.9166051 L62.3634577,42.8143253 C62.4657122,42.9708953 62.5361165,43.1513583 62.5746727,43.3557198 C62.6132289,43.5600814 62.6159034,43.7678719 62.5826962,43.9790977 Z M60.0106394,43.4273309 C59.974665,43.6561588 59.9971603,43.8589194 60.078126,44.0356188 C60.1590918,44.2123182 60.2940484,44.3568446 60.4829999,44.4692023 L61.0031217,44.5501494 L61.1508928,43.6101995 C61.1935086,43.3391265 61.1748282,43.1351563 61.094851,42.9982829 C61.0148738,42.8614095 60.8881997,42.7794828 60.7148249,42.7525003 C60.5343736,42.7244165 60.3814453,42.7691398 60.2560354,42.8866715 C60.1306255,43.0042033 60.0488276,43.1844212 60.0106394,43.4273309 Z" id="Anukandimalla" stroke="#F98F7A" stroke-width="0.719999969" fill="#F98F7A" fill-rule="nonzero" transform="translate(42.078650, 29.909721) rotate(65.000000) translate(-42.078650, -29.909721) "></path>
            </g>
        </g>
    </g>
</svg>