<?xml version="1.0" encoding="UTF-8"?>
<svg width="77px" height="77px" viewBox="0 0 77 77" version="1.1" xmlns="http://www.w3.org/2000/svg" xmlns:xlink="http://www.w3.org/1999/xlink">
    <!-- Generator: Sketch 54.1 (76490) - https://sketchapp.com -->
    <title>hiking</title>
    <desc>Created with Sketch.</desc>
    <g id="Page-1" stroke="none" stroke-width="1" fill="none" fill-rule="evenodd">
        <g id="Artboard" transform="translate(-74.000000, -353.000000)" fill="#040F3D" fill-rule="nonzero">
            <g id="hiking" transform="translate(74.061660, 353.000000)">
                <path d="M69.7271094,47.1103145 L65.4891016,47.1103145 L65.4891016,41.5165352 C68.1311641,40.7635293 70.0721055,38.3296074 70.0721055,35.4493262 L70.0721055,18.4341309 C70.0721055,12.6090508 65.5579805,7.82166602 59.8444902,7.37816406 L59.8444902,2.25585938 C59.8444902,1.01002344 58.8344668,0 57.5886309,0 L44.6727832,0 C43.4269473,0 42.4169238,1.01002344 42.4169238,2.25585938 L42.4169238,7.34116797 L34.4597559,7.34116797 L34.4597559,2.25585938 C34.4597559,1.01002344 33.4497324,0 32.2038965,0 L19.2880488,0 C18.0422129,0 17.0321895,1.01002344 17.0321895,2.25585938 L17.0321895,7.37831445 C11.3186992,7.82181641 6.80457422,12.6090508 6.80457422,18.4342812 L6.80457422,35.4494766 C6.80457422,38.3297578 8.74551563,40.7638301 11.3875781,41.5166855 L11.3875781,47.1104648 L7.14957031,47.1104648 C3.20723047,47.1104648 7.10542736e-15,50.3176953 7.10542736e-15,54.2600352 L7.10542736e-15,68.4581133 C7.10542736e-15,72.4004531 3.20723047,75.6076836 7.14957031,75.6076836 L11.5594746,75.6076836 C11.8984551,76.4249062 12.7034961,77 13.6434375,77 L63.2332422,77 C64.1731836,77 64.9782246,76.4249062 65.3172051,75.6075332 L69.7271094,75.6075332 C73.6694492,75.6075332 76.8766797,72.4003027 76.8766797,68.4579629 L76.8766797,54.2598848 C76.8766797,50.3175449 73.6694492,47.1103145 69.7271094,47.1103145 Z M69.7271094,51.6220332 C71.1816875,51.6220332 72.3649609,52.8053066 72.3649609,54.2598848 L72.3649609,57.3889121 L65.4891016,54.2698105 L65.4891016,51.6218828 L69.7271094,51.6218828 L69.7271094,51.6220332 Z M11.316293,18.4341309 C11.316293,14.8052051 14.2687617,11.8528867 17.8976875,11.8528867 L58.9789922,11.8528867 C62.607918,11.8528867 65.5603867,14.8052051 65.5603867,18.4341309 L65.5603867,35.4493262 C65.5603867,36.4405508 64.7539922,37.2469453 63.7627676,37.2469453 L58.0083711,37.2469453 C57.3786855,34.7390313 55.1043281,32.8761426 52.3936875,32.8761426 C49.6932734,32.8761426 47.4207207,34.7390313 46.7911855,37.2469453 L30.0854941,37.2469453 C29.4558086,34.7390313 27.1814512,32.8761426 24.4708105,32.8761426 C21.7703965,32.8761426 19.4978438,34.7390313 18.8683086,37.2469453 L13.1139121,37.2469453 C12.1226875,37.2469453 11.316293,36.4405508 11.316293,35.4493262 L11.316293,18.4341309 Z M25.747627,43.1624102 C25.747627,43.8597715 25.1805039,44.4270449 24.4831426,44.4270449 L24.4708105,44.4270449 C23.7734492,44.4270449 23.2063262,43.8597715 23.2063262,43.1624102 L23.2063262,38.6526465 C23.2063262,37.9552852 23.7734492,37.3880117 24.4831426,37.3880117 C25.1805039,37.3880117 25.747627,37.9552852 25.747627,38.6526465 L25.747627,43.1624102 L25.747627,43.1624102 Z M53.6703535,43.1624102 C53.6703535,43.8597715 53.1032305,44.4270449 52.4058691,44.4270449 L52.3935371,44.4270449 C51.6961758,44.4270449 51.1290527,43.8597715 51.1290527,43.1624102 L51.1290527,38.6526465 C51.1290527,37.9552852 51.6961758,37.3880117 52.4058691,37.3880117 C53.1032305,37.3880117 53.6703535,37.9552852 53.6703535,38.6526465 L53.6703535,43.1624102 Z M18.6946074,41.7586641 L18.6946074,43.1624102 C18.6946074,46.3475332 21.2856875,48.9387637 24.4708105,48.9387637 L24.4831426,48.9387637 C27.6682656,48.9387637 30.2593457,46.3475332 30.2593457,43.1624102 L30.2593457,41.7586641 L46.617334,41.7586641 L46.617334,43.1624102 C46.617334,46.3475332 49.2084141,48.9387637 52.3935371,48.9387637 L52.4058691,48.9387637 C55.5909922,48.9387637 58.1820723,46.3475332 58.1820723,43.1624102 L58.1820723,41.7586641 L60.9773828,41.7586641 L60.9773828,72.4882812 L53.8396934,72.4882812 L53.8396934,57.970623 C53.8396934,54.0881387 50.6810391,50.9294844 46.7985547,50.9294844 L30.078125,50.9294844 C26.1956406,50.9294844 23.0369863,54.0881387 23.0369863,57.970623 L23.0369863,72.4882812 L15.8992969,72.4882812 L15.8992969,41.7586641 L18.6946074,41.7586641 Z M27.5487051,72.4882813 L27.5487051,66.2129316 L36.1824805,66.2129316 L36.1824805,66.6982422 C36.1824805,67.9440781 37.1925039,68.9541016 38.4383398,68.9541016 C39.6841758,68.9541016 40.6941992,67.9440781 40.6941992,66.6982422 L40.6941992,66.2129316 L49.3279746,66.2129316 L49.3279746,72.4882813 L27.5487051,72.4882813 Z M49.3279746,61.7012129 L40.6941992,61.7012129 L40.6941992,61.3589238 C40.6941992,60.1130879 39.6841758,59.1030645 38.4383398,59.1030645 C37.1925039,59.1030645 36.1824805,60.1130879 36.1824805,61.3589238 L36.1824805,61.7012129 L27.5487051,61.7012129 L27.5487051,57.9704727 C27.5487051,56.57575 28.6834023,55.4410527 30.078125,55.4410527 L46.7985547,55.4410527 C48.1932773,55.4410527 49.3279746,56.57575 49.3279746,57.9704727 L49.3279746,61.7012129 L49.3279746,61.7012129 Z M46.9286426,4.51171875 L55.3327715,4.51171875 L55.3327715,7.34116797 L46.9286426,7.34116797 L46.9286426,4.51171875 Z M29.9480371,4.51171875 L29.9480371,7.34116797 L21.5439082,7.34116797 L21.5439082,4.51171875 L29.9480371,4.51171875 Z M7.14957031,51.6220332 L11.3875781,51.6220332 L11.3875781,54.2699609 L4.51171875,57.3890625 L4.51171875,54.2600352 C4.51171875,52.8053066 5.69499219,51.6220332 7.14957031,51.6220332 Z M4.51171875,68.4579629 L4.51171875,62.3430801 L11.3875781,59.2239785 L11.3875781,71.0958145 L7.14957031,71.0958145 C5.69499219,71.0958145 4.51171875,69.912541 4.51171875,68.4579629 Z M69.7271094,71.0958145 L65.4891016,71.0958145 L65.4891016,59.2239785 L72.3649609,62.3430801 L72.3649609,68.4579629 C72.3649609,69.912541 71.1816875,71.0958145 69.7271094,71.0958145 Z" id="Shape"></path>
                <path d="M20.2612266,19.4094141 C20.2612266,20.65525 21.27125,21.6652734 22.5170859,21.6652734 L24.7345957,21.6652734 L24.7345957,24.2864316 C24.7345957,25.5322676 25.7446191,26.542291 26.9904551,26.542291 C28.236291,26.542291 29.2463145,25.5322676 29.2463145,24.2864316 L29.2463145,21.6652734 L54.3595938,21.6652734 C55.6054297,21.6652734 56.6154531,20.65525 56.6154531,19.4094141 C56.6154531,18.1635781 55.6054297,17.1535547 54.3595938,17.1535547 L22.5170859,17.1535547 C21.27125,17.1535547 20.2612266,18.1634277 20.2612266,19.4094141 Z" id="Path"></path>
            </g>
        </g>
    </g>
</svg>