<?xml version="1.0" encoding="UTF-8"?>
<svg width="22px" height="22px" viewBox="0 0 22 22" version="1.1" xmlns="http://www.w3.org/2000/svg" xmlns:xlink="http://www.w3.org/1999/xlink">
    <!-- Generator: Sketch 54.1 (76490) - https://sketchapp.com -->
    <title>Instagram</title>
    <desc>Created with Sketch.</desc>
    <g id="Page-1" stroke="none" stroke-width="1" fill="none" fill-rule="evenodd">
        <g id="Artboard" transform="translate(-76.000000, -76.000000)" fill="#313A60">
            <path d="M94.1917656,81.1282344 C94.1917656,81.8573281 93.6006875,82.4482344 92.8717656,82.4482344 C92.1428437,82.4482344 91.5517656,81.8573281 91.5517656,81.1282344 C91.5517656,80.3991406 92.1428437,79.8082344 92.8717656,79.8082344 C93.6008594,79.8082344 94.1917656,80.3991406 94.1917656,81.1282344 Z M87,90.6666094 C84.9749688,90.6666094 83.3333906,89.0250312 83.3333906,87 C83.3333906,84.9749688 84.9749688,83.3333906 87,83.3333906 C89.0250312,83.3333906 90.6666094,84.9749688 90.6666094,87 C90.6666094,89.0250312 89.0250312,90.6666094 87,90.6666094 Z M87,81.3513281 C83.8802969,81.3513281 81.3513281,83.8802969 81.3513281,87 C81.3513281,90.1197031 83.8802969,92.6486719 87,92.6486719 C90.1197031,92.6486719 92.6486719,90.1197031 92.6486719,87 C92.6486719,83.8802969 90.1197031,81.3513281 87,81.3513281 Z M87,77.9820625 C89.9371719,77.9820625 90.2850469,77.9932344 91.4448594,78.0461719 C92.5173594,78.0951563 93.0998437,78.27425 93.4874219,78.4249844 C94.0008125,78.6245313 94.36725,78.8629219 94.75225,79.2479219 C95.13725,79.63275 95.3756406,79.9991875 95.5751875,80.51275 C95.72575,80.9003281 95.9050156,81.4828125 95.954,82.5553125 C96.0069375,83.7152969 96.0181094,84.0631719 96.0181094,87.0003437 C96.0181094,89.9375156 96.0069375,90.2853906 95.954,91.4452031 C95.9050156,92.5177031 95.7259219,93.1001875 95.5751875,93.4877656 C95.3756406,94.0011562 95.13725,94.3675937 94.75225,94.7525937 C94.3674219,95.1375937 94.0009844,95.3759844 93.4874219,95.5755312 C93.0998437,95.7260937 92.5173594,95.9053594 91.4448594,95.9543437 C90.2850469,96.0072813 89.9371719,96.0184531 87,96.0184531 C84.0626563,96.0184531 83.7147813,96.0072813 82.5549688,95.9543437 C81.4824687,95.9053594 80.8999844,95.7262656 80.5124062,95.5755312 C79.9990156,95.3759844 79.6325781,95.1375937 79.2475781,94.7525937 C78.86275,94.3677656 78.6241875,94.0013281 78.4246406,93.4877656 C78.2740781,93.1001875 78.0948125,92.5177031 78.0458281,91.4452031 C77.9928906,90.2852187 77.9817187,89.9373437 77.9817187,87.0003437 C77.9817187,84.0631719 77.9928906,83.7152969 78.0458281,82.5553125 C78.0948125,81.4828125 78.2739062,80.9003281 78.4246406,80.51275 C78.6241875,79.9993594 78.8625781,79.6329219 79.2475781,79.2479219 C79.6324063,78.8629219 79.9988438,78.6245313 80.5124062,78.4249844 C80.8999844,78.2744219 81.4824687,78.0951563 82.5549688,78.0461719 C83.7149531,77.9932344 84.0628281,77.9820625 87,77.9820625 Z M87,76 C84.0126406,76 83.6379531,76.0127188 82.4647344,76.0661719 C81.2939219,76.119625 80.4941875,76.3055937 79.7946563,76.5775 C79.0712344,76.8585156 78.4578125,77.23475 77.8462813,77.8462813 C77.23475,78.4578125 76.8585156,79.0712344 76.5775,79.7946563 C76.3055937,80.4943594 76.119625,81.2939219 76.0661719,82.4647344 C76.0127188,83.6379531 76,84.0126406 76,87 C76,89.9873594 76.0127188,90.3620469 76.0661719,91.5352656 C76.119625,92.7060781 76.3055937,93.5056406 76.5775,94.2053437 C76.8585156,94.9287656 77.23475,95.5421875 77.8462813,96.1537187 C78.4578125,96.76525 79.0712344,97.1413125 79.7946563,97.4225 C80.4943594,97.6944063 81.2939219,97.880375 82.4647344,97.9338281 C83.6379531,97.9872812 84.0126406,98 87,98 C89.9873594,98 90.3620469,97.9872812 91.5352656,97.9338281 C92.7060781,97.880375 93.5056406,97.6944063 94.2053437,97.4225 C94.9287656,97.1413125 95.5421875,96.76525 96.1537187,96.1537187 C96.76525,95.5421875 97.1413125,94.9287656 97.4225,94.2053437 C97.6944063,93.5056406 97.880375,92.7060781 97.9338281,91.5352656 C97.9872812,90.3620469 98,89.9873594 98,87 C98,84.0126406 97.9872812,83.6379531 97.9338281,82.4647344 C97.880375,81.2939219 97.6944063,80.4943594 97.4225,79.7946563 C97.1413125,79.0712344 96.76525,78.4578125 96.1537187,77.8462813 C95.5421875,77.23475 94.9287656,76.8586875 94.2053437,76.5775 C93.5056406,76.3055937 92.7060781,76.119625 91.5352656,76.0661719 C90.3620469,76.0127188 89.9873594,76 87,76 Z" id="Instagram"></path>
        </g>
    </g>
</svg>