<?xml version="1.0" encoding="UTF-8"?>
<svg width="55px" height="48px" viewBox="0 0 55 48" version="1.1" xmlns="http://www.w3.org/2000/svg" xmlns:xlink="http://www.w3.org/1999/xlink">
    <!-- Generator: Sketch 54.1 (76490) - https://sketchapp.com -->
    <title>Shape</title>
    <desc>Created with Sketch.</desc>
    <g id="Page-1" stroke="none" stroke-width="1" fill="none" fill-rule="evenodd">
        <g id="Artboard" transform="translate(-131.000000, -179.000000)" fill="#040F3D" fill-rule="nonzero">
            <path d="M184.572404,180.408235 C183.676275,179.506218 182.599417,179.054756 181.340428,179.054756 L135.576421,179.054756 C134.317933,179.054756 133.240874,179.506218 132.344144,180.408235 C131.447914,181.310555 131,182.394588 131,183.661445 L131,214.985782 C131,216.252941 131.447914,217.336874 132.344144,218.239395 C133.240874,219.141412 134.317933,219.592067 135.576421,219.592067 L151.136512,219.592067 C151.136512,220.321244 150.983834,221.070487 150.678679,221.837681 C150.373725,222.605479 150.06857,223.276975 149.763415,223.852571 C149.458661,224.428874 149.306084,224.850588 149.306084,225.119126 C149.306084,225.618084 149.487113,226.050891 149.849472,226.414622 C150.21163,226.779765 150.64071,226.962689 151.136512,226.962689 L165.781038,226.962689 C166.27684,226.962689 166.70602,226.779866 167.068179,226.414622 C167.430838,226.050992 167.611867,225.618185 167.611867,225.119126 C167.611867,224.870252 167.458989,224.452471 167.153934,223.867193 C166.84878,223.282218 166.543625,222.600034 166.238871,221.823462 C165.933716,221.045983 165.781138,220.302286 165.781138,219.592067 L181.34123,219.592067 C182.599517,219.592067 183.676375,219.141412 184.572505,218.239395 C185.469035,217.336975 185.917149,216.253042 185.917149,214.985782 L185.917149,183.661445 C185.91745,182.394588 185.468934,181.310555 184.572404,180.408235 Z M182.255893,207.615261 C182.255893,207.86484 182.165428,208.080437 181.984299,208.263059 C181.802969,208.444975 181.588379,208.536034 181.340428,208.536034 L135.576421,208.536034 C135.32867,208.536034 135.11408,208.444975 134.932951,208.263059 C134.751922,208.079832 134.661257,207.86484 134.661257,207.615261 L134.661257,183.661445 C134.661257,183.411866 134.751621,183.196067 134.932951,183.013748 C135.11418,182.831731 135.32877,182.740269 135.576421,182.740269 L181.341129,182.740269 C181.588679,182.740269 181.80367,182.831429 181.984299,183.013748 C182.165428,183.196168 182.255893,183.411966 182.255893,183.661445 L182.255893,207.615261 L182.255893,207.615261 Z" id="Shape"></path>
        </g>
    </g>
</svg>