<?xml version="1.0" encoding="UTF-8"?>
<svg width="24px" height="24px" viewBox="0 0 24 24" version="1.1" xmlns="http://www.w3.org/2000/svg" xmlns:xlink="http://www.w3.org/1999/xlink">
    <!-- Generator: Sketch 54.1 (76490) - https://sketchapp.com -->
    <title>linkedin</title>
    <desc>Created with Sketch.</desc>
    <g id="Page-1" stroke="none" stroke-width="1" fill="none" fill-rule="evenodd">
        <g id="Artboard" transform="translate(-228.000000, -78.000000)" fill-rule="nonzero">
            <g id="linkedin" transform="translate(228.000000, 78.000000)">
                <path d="M11.9719726,0.315000013 C5.53397056,0.315000013 0.315000013,5.53424281 0.315000013,11.9720548 C0.315000013,18.4098792 5.53390074,23.6290274 11.9719726,23.6290274 C18.4100895,23.6290274 23.6290274,18.4099163 23.6290274,11.9720548 C23.6290274,5.53417696 18.4100732,0.315000013 11.9719726,0.315000013 Z" id="Path" stroke="#313A60" stroke-width="0.630000025"></path>
                <path d="M6.74621918,16.4495342 L8.988,16.4495342 L8.988,8.97747945 L6.74621918,8.97747945 L6.74621918,16.4495342 Z M15.4798356,8.71865753 C14.391863,8.71865753 13.4183836,9.1159726 12.7278082,9.9929589 L12.7278082,8.95290411 L10.4778082,8.95290411 L10.4778082,16.4496164 L12.7278082,16.4496164 L12.7278082,12.395589 C12.7278082,11.5388219 13.5127397,10.7030137 14.4959178,10.7030137 C15.4790959,10.7030137 15.7215616,11.5388219 15.7215616,12.3746301 L15.7215616,16.4488767 L17.9633425,16.4488767 L17.9633425,12.2077808 C17.9632603,9.26186301 16.5685479,8.71865753 15.4798356,8.71865753 Z M7.85663014,8.23076712 C8.47619178,8.23076712 8.9790411,7.72791781 8.9790411,7.10835616 C8.9790411,6.48879452 8.47619178,5.9860274 7.85663014,5.9860274 C7.23706849,5.9860274 6.73421918,6.48887671 6.73421918,7.10843836 C6.73421918,7.728 7.23706849,8.23076712 7.85663014,8.23076712 Z" id="Shape" fill="#313A60"></path>
            </g>
        </g>
    </g>
</svg>