<?xml version="1.0" encoding="UTF-8"?>
<svg width="35px" height="35px" viewBox="0 0 35 35" version="1.1" xmlns="http://www.w3.org/2000/svg" xmlns:xlink="http://www.w3.org/1999/xlink">
    <!-- Generator: Sketch 54.1 (76490) - https://sketchapp.com -->
    <title>Group 3</title>
    <desc>Created with Sketch.</desc>
    <g id="Page-1" stroke="none" stroke-width="1" fill="none" fill-rule="evenodd">
        <g id="Mobile" transform="translate(-242.000000, -144.000000)">
            <g id="Group-3" transform="translate(238.000000, 140.000000)">
                <g id="Group-2">
                    <path d="M21.5702479,37.8103448 C30.6076347,37.8103448 37.9338843,30.5079547 37.9338843,21.5 C37.9338843,12.4920453 30.6076347,5.18965517 21.5702479,5.18965517 C12.5328611,5.18965517 5.20661157,12.4920453 5.20661157,21.5 C5.20661157,30.5079547 12.5328611,37.8103448 21.5702479,37.8103448 Z M21.5702479,36.8783251 C13.0492832,36.8783251 6.14167651,29.9932144 6.14167651,21.5 C6.14167651,13.0067856 13.0492832,6.12167488 21.5702479,6.12167488 C30.0912126,6.12167488 36.9988194,13.0067856 36.9988194,21.5 C36.9988194,29.9932144 30.0912126,36.8783251 21.5702479,36.8783251 Z" id="Oval" fill-rule="nonzero" transform="translate(21.570248, 21.500000) rotate(67.000000) translate(-21.570248, -21.500000) "></path>
                    <g id="Group" transform="translate(13.016529, 11.120690)" fill="#040F3D">
                        <polygon id="Path-2" points="11.2643039 13.7992718 15.4481882 0 16.7355372 0 12.5516529 13.6981412 16.0918627 20.0693696 14.8045137 20.0693696"></polygon>
                        <path d="M9.97695486,14.335264 L4.17101081,14.4212756 L1.59309441,20.0693696 L0,20.0693696 L9.32684361,0 L11.2643039,0 L11.2643039,20.0693696 L9.97695486,20.0693696 L9.97695486,14.335264 Z M9.97695486,13.0610183 L10.0509774,1.60554957 L4.75031786,13.1884429 L9.97695486,13.0610183 Z" id="A" fill-rule="nonzero"></path>
                    </g>
                    <path d="M25.0092619,5.63430751 C23.7864822,5.34358207 22.5104492,5.18965517 21.1983471,5.18965517 C12.1609603,5.18965517 4.83471074,12.4920453 4.83471074,21.5 C4.83471074,30.5079547 12.1609603,37.8103448 21.1983471,37.8103448 L21.1983471,37.8103448 C22.0339858,37.8103448 22.8549948,37.7479115 23.6569351,37.6274694" id="Path" stroke="#040F3D" stroke-width="0.743801653"></path>
                </g>
                <path d="M15.8272491,16.0781577 L14.6867133,17.064394 L14.9168011,17.832199 L14.762295,17.9658025 L13.9608947,15.2235781 L14.104164,15.0996913 L16.7146901,16.2775409 L16.560184,16.4111443 L15.8272491,16.0781577 Z M15.6690794,16.0039093 L14.1676018,15.3196522 L14.6381024,16.8954086 L15.6690794,16.0039093 Z M17.7513267,13.2710605 C17.9663107,13.1582063 18.1692476,13.1312771 18.3601434,13.1902719 C18.5510393,13.2492668 18.7082953,13.3957435 18.8319162,13.6297065 L19.3604795,14.6300573 L19.1959518,14.7164248 L18.6743204,13.7291934 C18.5726509,13.5367752 18.4464352,13.4158993 18.2956694,13.3665621 C18.1449037,13.3172249 17.9817747,13.3386188 17.8062776,13.4307447 C17.6044559,13.5366894 17.4771852,13.6803069 17.4244618,13.8616016 C17.3717384,14.0428964 17.3990994,14.2352163 17.5065456,14.4385673 L17.9883181,15.3503625 L17.8237903,15.43673 L16.9191672,13.7246543 L17.0771138,13.6417414 L17.2729422,14.0123632 C17.268629,13.8610094 17.307246,13.7206382 17.3887943,13.5912453 C17.4703427,13.4618525 17.5911856,13.3551253 17.7513267,13.2710605 Z M22.088694,11.599656 L22.5826617,13.4709678 L22.4100249,13.5162421 L22.3040395,13.1147347 C22.2763958,13.2625304 22.2110532,13.3889077 22.1080097,13.4938703 C22.0049661,13.5988329 21.8707241,13.6730072 21.7052796,13.7163954 C21.4607095,13.7805344 21.2509132,13.7627266 21.0758844,13.6629714 C20.9008556,13.5632162 20.7795915,13.3854796 20.7120885,13.1297562 L20.4234675,12.0363653 L20.6032976,11.9892045 L20.8881334,13.0682559 C20.9436499,13.2785704 21.0398659,13.4245457 21.1767845,13.5061862 C21.313703,13.5878266 21.4804674,13.6028653 21.6770826,13.5513025 C21.8880842,13.4959669 22.0379759,13.3863854 22.1267621,13.222555 C22.2155482,13.0587245 22.2306057,12.86568 22.1719349,12.6434158 L21.9088639,11.6468169 L22.088694,11.599656 Z M24.9601473,12.0408737 L24.4745265,12.5216481 L24.4991547,13.0956924 L24.313374,13.1036111 L24.1954767,10.3556053 L24.3812573,10.3476866 L24.4646752,12.2920303 L25.657228,11.1095624 L25.8950272,11.0994264 L25.0925404,11.9165015 L26.0597119,13.0291754 L25.8293439,13.0389946 L24.9601473,12.0408737 Z M28.4008775,11.228439 C28.6383075,11.2666008 28.8108919,11.3562934 28.9186359,11.4975195 C29.02638,11.6387455 29.0613056,11.8264642 29.0234137,12.0606811 L28.8274428,13.2720158 L28.651207,13.2436896 L28.7062684,12.9033448 C28.6269186,13.0057383 28.5234672,13.0785987 28.395911,13.1219284 C28.2683549,13.165258 28.12258,13.1737431 27.958582,13.1473839 C27.7456294,13.1131562 27.5854417,13.0360946 27.4780143,12.9161967 C27.3705868,12.7962987 27.3300964,12.6546199 27.3565417,12.491156 C27.3821976,12.3325716 27.459927,12.2130231 27.5897321,12.132507 C27.7195373,12.0519908 27.9092713,12.0317975 28.1589399,12.0719264 L28.8161525,12.1775595 L28.8410189,12.0238554 C28.8698325,11.8457529 28.8433964,11.7025783 28.7617099,11.5943273 C28.6800234,11.4860763 28.5461683,11.4170018 28.3601407,11.3871018 C28.2328587,11.3666439 28.1075336,11.369029 27.9841616,11.3942572 C27.8607896,11.4194853 27.7527971,11.4622037 27.6601808,11.5224136 L27.5897053,11.375914 C27.6989816,11.3058659 27.8247789,11.2578739 27.9671009,11.2319368 C28.1094229,11.2059996 28.2540137,11.2048337 28.4008775,11.228439 Z M28.0085574,13.0014703 C28.1676599,13.0270427 28.3088156,13.012183 28.4320286,12.9568909 C28.5552415,12.9015988 28.6562446,12.8089453 28.7350407,12.6789277 L28.7930623,12.3202848 L28.1395213,12.2152418 C27.9510459,12.1849484 27.8090611,12.1971716 27.7135626,12.2519118 C27.6180641,12.3066521 27.5606454,12.393795 27.5413048,12.5133432 C27.5211747,12.637771 27.5517942,12.7434447 27.6331642,12.8303677 C27.7145341,12.9172906 27.8396639,12.9743242 28.0085574,13.0014703 Z M32.135137,12.1674655 C32.3610376,12.256653 32.5136592,12.3926634 32.5930066,12.575501 C32.6723539,12.7583386 32.6631796,12.9726758 32.5654833,13.2185192 L32.1477653,14.2696664 L31.974883,14.201411 L32.3871228,13.1640493 C32.4674711,12.9618604 32.4773567,12.7876746 32.4167796,12.6414866 C32.3562026,12.4952986 32.2337116,12.3858031 32.0493029,12.3129971 C31.837233,12.2292701 31.6450067,12.2264737 31.4726182,12.3046077 C31.3002298,12.3827417 31.1715807,12.528645 31.0866671,12.7423219 L30.7059274,13.7004167 L30.5330451,13.6321614 L31.2479593,11.8331488 L31.4139262,11.8986739 L31.2591651,12.2881153 C31.3716208,12.1863193 31.5036605,12.124154 31.6552883,12.1016174 C31.8069161,12.0790808 31.9668641,12.10103 32.135137,12.1674655 Z M36.7288923,13.7084968 L35.1601607,15.9713334 L35.0102399,15.8680753 L35.2702857,15.4929689 C35.1210758,15.5734372 34.966104,15.6078805 34.8053655,15.5962997 C34.644627,15.584719 34.491849,15.5290563 34.3470268,15.4293099 C34.198125,15.3267537 34.0874642,15.1994708 34.0150409,15.0474573 C33.9426177,14.8954438 33.9145247,14.7349145 33.9307613,14.5658647 C33.9469978,14.3968148 34.0093797,14.2340177 34.1179089,14.0774685 C34.226438,13.9209192 34.3575029,13.8046766 34.5111074,13.7287371 C34.6647119,13.6527976 34.825293,13.6222177 34.9928554,13.6369965 C35.1604179,13.6517753 35.3186476,13.7104419 35.4675493,13.8129981 C35.6103318,13.9113396 35.7150683,14.0330402 35.7817619,14.1781035 C35.8484555,14.3231669 35.8728586,14.4781509 35.8549719,14.6430603 L36.5759119,13.6031314 L36.7288923,13.7084968 Z M34.4513443,15.2983978 C34.5737293,15.3826905 34.7030964,15.4297386 34.8394497,15.4395434 C34.9758029,15.4493481 35.1072609,15.4227403 35.2338275,15.3597192 C35.3603941,15.296698 35.4687788,15.2001295 35.5589848,15.0700106 C35.6491908,14.9398918 35.7014832,14.8046896 35.7158636,14.6644001 C35.7302439,14.5241106 35.708723,14.3921385 35.6513,14.2684797 C35.593877,14.144821 35.5039744,14.0408468 35.3815894,13.956554 C35.2592045,13.8722613 35.1298373,13.8252132 34.993484,13.8154085 C34.8571308,13.8056037 34.7256728,13.8322115 34.5991062,13.8952326 C34.4725397,13.9582538 34.364155,14.0548224 34.2739489,14.1849412 C34.1837429,14.31506 34.1314505,14.4502622 34.1170701,14.5905517 C34.1026898,14.7308412 34.1242108,14.8628134 34.1816337,14.9864721 C34.2390567,15.1101309 34.3289593,15.214105 34.4513443,15.2983978 Z M37.9363686,15.6511133 L38.0684419,15.7815847 L36.7018703,17.1559395 L36.569797,17.0254681 L37.9363686,15.6511133 Z M38.3348853,15.3819753 C38.3049486,15.3524017 38.2894501,15.3170849 38.2883893,15.276024 C38.2873285,15.2349631 38.3016331,15.1995135 38.3313034,15.1696743 C38.3609737,15.139835 38.396846,15.1248218 38.4389216,15.1246343 C38.4809972,15.1244469 38.5170028,15.1391397 38.5469396,15.1687134 C38.5768763,15.198287 38.5923749,15.2336038 38.5934356,15.2746647 C38.5944964,15.3157256 38.5801918,15.3511752 38.5505215,15.3810144 C38.5208513,15.4108537 38.4849789,15.4258669 38.4429033,15.4260544 C38.4008277,15.4262418 38.3648221,15.411549 38.3348853,15.3819753 Z M40.845621,19.4454555 C40.9747351,19.6476947 41.0166138,19.8444805 40.9712584,20.0358187 C40.9259031,20.2271569 40.7913187,20.393804 40.5675011,20.535765 L39.6105292,21.1427444 L39.5106992,20.9863747 L40.4551207,20.3873556 C40.639195,20.2706027 40.7507226,20.136887 40.7897071,19.9862047 C40.8286916,19.8355223 40.796938,19.6799133 40.6944454,19.5193729 C40.5773111,19.3358981 40.4269478,19.2269605 40.2433512,19.1925566 C40.0597545,19.1581528 39.8706926,19.2026435 39.6761596,19.3260301 L38.8039032,19.879277 L38.7040733,19.7229072 L39.6484948,19.1238882 C39.832569,19.0071352 39.9440966,18.8734196 39.9830811,18.7227372 C40.0220656,18.5720549 39.990312,18.4164458 39.8878195,18.2559054 C39.7706851,18.0724307 39.6203218,17.963493 39.4367252,17.9290892 C39.2531286,17.8946853 39.0640666,17.9391761 38.8695336,18.0625627 L37.9972772,18.6158095 L37.8974473,18.4594398 L39.5352812,17.4206094 L39.631118,17.5707243 L39.2797053,17.7936151 C39.4293596,17.774853 39.570359,17.798926 39.7027077,17.8658349 C39.8350564,17.9327439 39.9484821,18.0402121 40.0429882,18.1882428 C40.1374944,18.3362736 40.1842228,18.4831168 40.1831748,18.628777 C40.1821268,18.7744371 40.1307355,18.9102859 40.0289994,19.0363274 C40.1849289,19.0135851 40.3353885,19.0375161 40.4803826,19.1081212 C40.6253767,19.1787263 40.7471216,19.2911699 40.845621,19.4454555 Z M42.5107639,22.6891896 C42.5824579,22.9180043 42.578948,23.1119739 42.5002341,23.2711043 C42.4215202,23.4302348 42.2685677,23.5451601 42.0413721,23.6158839 L40.8663507,23.9816564 L40.8131348,23.8118155 L41.1432768,23.7090455 C41.0159344,23.6839612 40.9043518,23.6241989 40.8085255,23.5297571 C40.7126993,23.4353152 40.640027,23.3090726 40.5905064,23.1510254 C40.5262036,22.9457999 40.5239054,22.7685248 40.5836117,22.6191947 C40.6433179,22.4698646 40.7524512,22.3705214 40.9110148,22.3211622 C41.0648452,22.2732763 41.2068667,22.2892596 41.3370836,22.3691125 C41.4673005,22.4489654 41.5701021,22.609194 41.6454916,22.8498032 L41.8439424,23.4831683 L41.9930388,23.4367561 C42.1658021,23.3829766 42.2825504,23.2955022 42.343287,23.1743303 C42.4040236,23.0531584 42.4063056,22.902936 42.3501331,22.7236586 C42.3116992,22.6009951 42.2536296,22.4902711 42.1759226,22.3914834 C42.0982156,22.2926957 42.0116687,22.2154315 41.9162793,22.1596886 L42.0163596,22.0314478 C42.1280168,22.0976608 42.227244,22.1884531 42.3140443,22.3038276 C42.4008446,22.4192021 42.4664172,22.5476548 42.5107639,22.6891896 Z M40.7438135,23.1304867 C40.7918559,23.2838161 40.86819,23.4030937 40.9728183,23.4883231 C41.0774465,23.5735525 41.2057072,23.6222978 41.3576042,23.6345606 L41.7054958,23.5262654 L41.5081537,22.8964386 C41.451242,22.7148023 41.3769049,22.5936085 41.2851401,22.5328538 C41.1933753,22.472099 41.0895123,22.4597711 40.9735478,22.4958697 C40.8528502,22.5334417 40.771638,22.6079123 40.729909,22.7192839 C40.68818,22.8306554 40.6928148,22.9677216 40.7438135,23.1304867 Z M44.0590548,25.2919398 L44.0842456,25.475576 L41.3501802,25.8481897 L41.3249894,25.6645535 L44.0590548,25.2919398 Z M44.3000853,27.577817 L44.3018518,27.7631534 L41.5424721,27.7892818 L41.5407057,27.6039454 L44.3000853,27.577817 Z M43.326482,30.5016323 C43.2893155,30.7384663 43.2001447,30.9109097 43.0589669,31.0189677 C42.9177892,31.1270256 42.7296239,31.1627223 42.4944656,31.1260588 L41.2782624,30.9364406 L41.3058498,30.7606471 L41.6475625,30.8139235 C41.5444614,30.7353159 41.4708759,30.6325461 41.4268036,30.5056112 C41.3827314,30.3786762 41.3735312,30.2334177 41.3992029,30.0698313 C41.4325378,29.8574131 41.5090949,29.6973855 41.6288767,29.5897437 C41.7486584,29.4821019 41.8906076,29.4410756 42.0547285,29.4666637 C42.2139503,29.491488 42.3342546,29.5683996 42.4156451,29.6974009 C42.4970355,29.8264021 42.5181893,30.0154209 42.4791071,30.2644629 L42.3762293,30.920026 L42.5305511,30.9440863 C42.7093694,30.9719659 42.8528855,30.944941 42.9611038,30.8630109 C43.0693221,30.7810808 43.1379903,30.6473374 43.1671104,30.4617768 C43.1870347,30.3348142 43.1840509,30.2099098 43.1581588,30.08706 C43.1322666,29.9642102 43.0888999,29.856772 43.0280572,29.7647422 L43.1747015,29.6938063 C43.2454931,29.8023951 43.2942345,29.9275549 43.3209272,30.0692896 C43.34762,30.2110242 43.3494716,30.355137 43.326482,30.5016323 Z M41.5458273,30.1189553 C41.5209219,30.2776585 41.5364956,30.4182828 41.5925488,30.5408324 C41.648602,30.663382 41.7420335,30.7636181 41.8728461,30.8415435 L42.2329304,30.8976843 L42.3352335,30.2457835 C42.3647368,30.0577812 42.3518042,29.9163181 42.2964353,29.8213898 C42.2410665,29.7264614 42.153369,29.6696413 42.0333403,29.6509276 C41.9084125,29.6314501 41.802539,29.6624679 41.7157168,29.7439819 C41.6288945,29.8254958 41.5722653,29.9504857 41.5458273,30.1189553 Z" id="Anukandimalla" stroke="#040F3D" stroke-width="0.5" fill="#040F3D" fill-rule="nonzero" transform="translate(29.131373, 20.743839) rotate(65.000000) translate(-29.131373, -20.743839) "></path>
            </g>
        </g>
    </g>
</svg>