<?xml version="1.0" encoding="UTF-8"?>
<svg width="19px" height="19px" viewBox="0 0 19 19" version="1.1" xmlns="http://www.w3.org/2000/svg" xmlns:xlink="http://www.w3.org/1999/xlink">
    <!-- Generator: Sketch 54.1 (76490) - https://sketchapp.com -->
    <title>Group 3</title>
    <desc>Created with Sketch.</desc>
    <g id="Page-1" stroke="none" stroke-width="1" fill="none" fill-rule="evenodd">
        <g id="Mobile" transform="translate(-182.000000, -94.000000)">
            <g id="Group-3" transform="translate(180.000000, 92.000000)">
                <g id="Group-2">
                    <path d="M11.5041322,20.2241379 C16.3240719,20.2241379 20.231405,16.3182083 20.231405,11.5 C20.231405,6.68179167 16.3240719,2.77586207 11.5041322,2.77586207 C6.6841926,2.77586207 2.7768595,6.68179167 2.7768595,11.5 C2.7768595,16.3182083 6.6841926,20.2241379 11.5041322,20.2241379 Z M11.5041322,19.7256158 C6.95961772,19.7256158 3.2755608,16.0428821 3.2755608,11.5 C3.2755608,6.95711786 6.95961772,3.27438424 11.5041322,3.27438424 C16.0486467,3.27438424 19.7327037,6.95711786 19.7327037,11.5 C19.7327037,16.0428821 16.0486467,19.7256158 11.5041322,19.7256158 Z" id="Oval" fill-rule="nonzero" transform="translate(11.504132, 11.500000) rotate(67.000000) translate(-11.504132, -11.500000) "></path>
                    <g id="Group" transform="translate(6.942149, 5.948276)" fill="#040F3D">
                        <polygon id="Path-2" points="6.00762873 7.38100583 8.23903369 0 8.92561983 0 6.69421488 7.32691272 8.58232676 10.7347791 7.89574062 10.7347791"></polygon>
                        <path d="M5.32104259,7.66769935 L2.2245391,7.71370555 L0.84965035,10.7347791 L0,10.7347791 L4.97431659,0 L6.00762873,0 L6.00762873,10.7347791 L5.32104259,10.7347791 L5.32104259,7.66769935 Z M5.32104259,6.98612608 L5.3605213,0.858782328 L2.53350286,7.05428341 L5.32104259,6.98612608 Z" id="A" fill-rule="nonzero"></path>
                    </g>
                    <path d="M13.338273,3.01369937 C12.6861239,2.85819506 12.0055729,2.77586207 11.3057851,2.77586207 C6.48584549,2.77586207 2.5785124,6.68179167 2.5785124,11.5 C2.5785124,16.3182083 6.48584549,20.2241379 11.3057851,20.2241379 L11.3057851,20.2241379 C11.7514591,20.2241379 12.1893306,20.1907434 12.6170321,20.1263209" id="Path" stroke="#040F3D" stroke-width="0.5"></path>
                </g>
                <path d="M8.44119952,8.59994482 L7.83291373,9.12746654 L7.95562725,9.53815297 L7.873224,9.60961528 L7.44581052,8.1428441 L7.52222081,8.07657905 L8.91450139,8.70659163 L8.83209814,8.77805393 L8.44119952,8.59994482 Z M8.35684234,8.56023058 L7.55605431,8.19423258 L7.80698795,9.03707904 L8.35684234,8.56023058 Z M9.46737426,7.09847421 C9.58203239,7.03811036 9.69026539,7.02370635 9.79207651,7.05526172 C9.89388762,7.0868171 9.97775749,7.16516511 10.0436886,7.29030811 L10.3255891,7.82537946 L10.2378409,7.87157605 L9.95963755,7.34352203 C9.90541381,7.24060069 9.83809876,7.17594614 9.75769037,7.14955646 C9.67728199,7.12316678 9.59027986,7.13461007 9.49668139,7.18388668 C9.38904314,7.24055478 9.32116545,7.31737347 9.2930463,7.41434506 C9.26492715,7.51131666 9.27951968,7.61418548 9.33682432,7.72295463 L9.59376964,8.21065901 L9.50602151,8.2568556 L9.02355583,7.34109413 L9.10779404,7.29674541 L9.21223584,7.49498496 C9.20993549,7.41402827 9.23053122,7.33894599 9.27402365,7.26973587 C9.31751609,7.20052576 9.38196564,7.14343911 9.46737426,7.09847421 Z M11.7806368,6.20446718 L12.0440863,7.20540136 L11.9520133,7.22961789 L11.8954877,7.01485807 C11.8807444,7.0939116 11.8458951,7.16150875 11.7909385,7.21765155 C11.7359819,7.27379434 11.6643862,7.31346896 11.5761491,7.33667659 C11.4457117,7.37098352 11.3338203,7.36145841 11.2404717,7.30810097 C11.147123,7.25474353 11.0824488,7.15967511 11.0464472,7.02289288 L10.892516,6.43805586 L10.9884254,6.4128303 L11.1403378,6.98999732 C11.1699466,7.10249113 11.2212618,7.18057094 11.294285,7.22423911 C11.3673083,7.26790728 11.4562493,7.2759512 11.5611107,7.24837112 C11.6736449,7.21877298 11.7535871,7.16015966 11.8009398,7.07252939 C11.8482924,6.98489913 11.856323,6.8816428 11.8250319,6.7627573 L11.6847274,6.22969274 L11.7806368,6.20446718 Z M13.3120785,6.44046735 L13.0530808,6.6976257 L13.0662158,7.00467267 L12.9671328,7.00890825 L12.9042542,5.5390447 L13.0033372,5.53480912 L13.0478268,6.57480691 L13.6838549,5.94232405 L13.8106812,5.93690251 L13.3826882,6.37394268 L13.898513,6.96909381 L13.7756501,6.97434592 L13.3120785,6.44046735 Z M15.1471347,6.00590922 C15.273764,6.02632138 15.365809,6.07429649 15.4232725,6.14983599 C15.480736,6.22537549 15.499363,6.32578315 15.479154,6.45106199 L15.3746362,7.09898521 L15.2806438,7.083834 L15.3100098,6.9017891 C15.2676899,6.95655768 15.2125158,6.99552954 15.1444859,7.01870587 C15.0764559,7.0418822 14.9987093,7.04642073 14.9112437,7.03232161 C14.797669,7.0140138 14.7122356,6.97279478 14.6549409,6.90866333 C14.5976463,6.84453188 14.5760514,6.7687502 14.5901556,6.68131601 C14.6038387,6.5964918 14.6452944,6.53254726 14.7145238,6.48948046 C14.7837532,6.44641367 14.8849447,6.4356126 15.0181013,6.45707693 L15.3686147,6.51357835 L15.3818768,6.43136452 C15.397244,6.33610041 15.3831448,6.25951865 15.3395786,6.20161694 C15.2960125,6.14371524 15.2246231,6.10676842 15.1254084,6.09077539 C15.0575246,6.07983279 14.9906846,6.08110853 14.9248862,6.09460267 C14.8590878,6.10809681 14.8014918,6.13094618 14.7520964,6.16315147 L14.7145095,6.08479122 C14.7727902,6.0473236 14.8398821,6.02165349 14.9157871,6.00778013 C14.9916922,5.99390677 15.0688073,5.99328314 15.1471347,6.00590922 Z M14.9378973,6.95427481 C15.022752,6.96795306 15.098035,6.96000488 15.1637486,6.93043002 C15.2294622,6.90085516 15.2833304,6.85129632 15.325355,6.78175201 L15.3562999,6.58991975 L15.0077447,6.53373399 C14.9072245,6.51753052 14.8314993,6.52406852 14.7805667,6.55334818 C14.7296342,6.58262785 14.6990109,6.62923919 14.6886959,6.69318359 C14.6779598,6.75973797 14.6942902,6.81626114 14.7376875,6.8627548 C14.7810849,6.90924846 14.8478208,6.93975482 14.9378973,6.95427481 Z M17.1387397,6.50817924 C17.25922,6.55588415 17.3406183,6.62863393 17.3829368,6.72643078 C17.4252554,6.82422763 17.4203625,6.93887313 17.3682578,7.07037071 L17.1454748,7.63261224 L17.053271,7.59610357 L17.2731322,7.04123569 C17.3159846,6.93308815 17.3212569,6.83991897 17.2889491,6.76172538 C17.2566414,6.68353178 17.1913128,6.62496447 17.0929616,6.58602169 C16.9798576,6.54123749 16.8773369,6.53974173 16.7853964,6.58153435 C16.6934559,6.62332697 16.624843,6.70136826 16.5795558,6.81566055 L16.3764946,7.32812989 L16.2842907,7.29162121 L16.6655783,6.32935865 L16.754094,6.36440698 L16.6715547,6.57271286 C16.7315311,6.51826383 16.8019523,6.48501259 16.8828204,6.47295815 C16.9636886,6.4609037 17.0489942,6.47264395 17.1387397,6.50817924 Z M19.5887426,7.33245179 L18.7520857,8.54280622 L18.6721279,8.48757514 L18.810819,8.28693687 C18.7312404,8.32997804 18.6485888,8.34840118 18.5628616,8.34220684 C18.4771344,8.33601251 18.3956528,8.30623942 18.3184143,8.25288669 C18.239,8.19803106 18.1799809,8.12994949 18.1413552,8.04863994 C18.1027294,7.9673304 18.0877465,7.8814659 18.096406,7.79104388 C18.1050655,7.70062187 18.1383359,7.61354435 18.1962181,7.52980872 C18.2541003,7.44607309 18.3240015,7.3838968 18.4059239,7.34327799 C18.4878463,7.30265919 18.5734896,7.28630249 18.6628562,7.29420743 C18.7522229,7.30211237 18.836612,7.33349218 18.9160263,7.38834781 C18.992177,7.4409491 19.0480364,7.50604477 19.0836063,7.58363678 C19.1191763,7.66122878 19.1321912,7.74412723 19.1226517,7.8323346 L19.507153,7.27609355 L19.5887426,7.33245179 Z M18.3740503,8.18286394 C18.4393223,8.22795076 18.5083181,8.25311599 18.5810398,8.25836041 C18.6537616,8.26360482 18.7238725,8.24937274 18.7913747,8.21566375 C18.8588768,8.18195475 18.916682,8.13030181 18.9647919,8.06070336 C19.0129018,7.99110491 19.0407911,7.91878749 19.0484606,7.84374891 C19.0561301,7.76871033 19.0446522,7.69812057 19.0140267,7.63197752 C18.9834011,7.56583447 18.935453,7.51022037 18.870181,7.46513355 C18.804909,7.42004673 18.7359132,7.39488149 18.6631915,7.38963708 C18.5904697,7.38439267 18.5203588,7.39862474 18.4528567,7.43233374 C18.3853545,7.46604273 18.3275493,7.51769568 18.2794394,7.58729412 C18.2313295,7.65689257 18.2034403,7.72921 18.1957707,7.80424858 C18.1881012,7.87928716 18.1995791,7.94987691 18.2302047,8.01601996 C18.2608302,8.08216302 18.3087783,8.13777712 18.3740503,8.18286394 Z M20.2327299,8.37152572 L20.303169,8.44131274 L19.5743308,9.17643274 L19.5038917,9.10664572 L20.2327299,8.37152572 Z M20.4452722,8.2275682 C20.4293059,8.21174973 20.42104,8.19285937 20.4204743,8.17089656 C20.4199086,8.14893374 20.4275376,8.12997235 20.4433618,8.11401181 C20.459186,8.09805127 20.4783179,8.09002098 20.5007582,8.0899207 C20.5231985,8.08982041 20.5424015,8.09767938 20.5583678,8.11349785 C20.574334,8.12931632 20.5825999,8.14820668 20.5831657,8.17016949 C20.5837314,8.19213231 20.5761023,8.2110937 20.5602782,8.22705424 C20.544454,8.24301478 20.5253221,8.25104507 20.5028818,8.25114535 C20.4804415,8.25124564 20.4612385,8.24338667 20.4452722,8.2275682 Z M21.7843312,10.4010576 C21.853192,10.509232 21.8755274,10.6144896 21.8513378,10.7168333 C21.8271483,10.819177 21.7553699,10.9083138 21.6360006,10.9842464 L21.1256156,11.3089098 L21.0723729,11.2252702 L21.5760644,10.9048646 C21.6742373,10.8424154 21.7337187,10.7708931 21.7545105,10.6902955 C21.7753022,10.609698 21.758367,10.5264652 21.7037042,10.4405948 C21.6412326,10.3424571 21.5610388,10.2841882 21.4631206,10.2657861 C21.3652024,10.2473841 21.2643694,10.2711814 21.1606185,10.3371789 L20.695415,10.6331016 L20.6421724,10.549462 L21.1458639,10.2290565 C21.2440368,10.1666072 21.3035182,10.0950849 21.3243099,10.0144874 C21.3451017,9.93388982 21.3281664,9.85065707 21.2735037,9.76478663 C21.211032,9.66664898 21.1308383,9.60838 21.0329201,9.58997794 C20.9350019,9.57157588 20.8341689,9.59537324 20.7304179,9.66137073 L20.2652145,9.95729347 L20.2119719,9.87365385 L21.0854833,9.31800035 L21.1365963,9.39829439 L20.9491762,9.51751507 C21.0289918,9.50747951 21.1041915,9.52035578 21.1747774,9.55614427 C21.2453634,9.59193277 21.3058571,9.64941577 21.3562604,9.72859501 C21.4066637,9.80777425 21.4315855,9.88631831 21.4310266,9.96422956 C21.4304676,10.0421408 21.4030589,10.1148041 21.3487997,10.1822216 C21.4319621,10.1700571 21.5122072,10.1828574 21.5895374,10.220623 C21.6668676,10.2583885 21.7317982,10.3185328 21.7843312,10.4010576 Z M22.6724074,12.1360782 C22.7106442,12.2584674 22.7087722,12.3622186 22.6667915,12.4473349 C22.6248108,12.5324511 22.5432361,12.5939229 22.4220651,12.6317518 L21.795387,12.8273976 L21.7670052,12.7365525 L21.943081,12.6815825 C21.875165,12.6681653 21.8156543,12.6361994 21.764547,12.585684 C21.7134396,12.5351686 21.6746811,12.4676435 21.6482701,12.3831066 C21.6139753,12.2733348 21.6127495,12.1785132 21.6445929,12.098639 C21.6764362,12.0187648 21.7346407,11.9656278 21.8192079,11.9392263 C21.9012508,11.9136129 21.9769956,11.9221621 22.0464446,11.9648741 C22.1158936,12.0075861 22.1707211,12.0932898 22.2109289,12.2219878 L22.3167693,12.5607645 L22.3962874,12.5359393 C22.4884278,12.5071735 22.5506935,12.4603849 22.5830864,12.395572 C22.6154793,12.3307591 22.6166963,12.2504076 22.5867376,12.154515 C22.5662396,12.0889043 22.5352691,12.0296799 22.4938254,11.97684 C22.4523816,11.924 22.4062233,11.8826727 22.355349,11.8528567 L22.4087251,11.7842628 C22.4682756,11.819679 22.5211968,11.8682424 22.5674903,11.9299543 C22.6137838,11.9916662 22.6487558,12.0603735 22.6724074,12.1360782 Z M21.7300339,12.3721208 C21.7556565,12.4541342 21.796368,12.5179338 21.8521697,12.5635216 C21.9079715,12.6091095 21.9763772,12.6351826 22.0573889,12.6417417 L22.2429311,12.5838164 L22.1376819,12.2469323 C22.1073291,12.149778 22.0676826,12.0849534 22.0187414,12.0524567 C21.9698002,12.0199599 21.9144065,12.0133659 21.8525588,12.0326745 C21.7881868,12.0527711 21.7448736,12.0926043 21.7226181,12.1521751 C21.7003626,12.2117459 21.7028345,12.2850604 21.7300339,12.3721208 Z M23.4981626,13.5282469 L23.5115976,13.6264709 L22.0534294,13.8257759 L22.0399944,13.7275518 L23.4981626,13.5282469 Z M23.6267122,14.7509254 L23.6276543,14.8500588 L22.1559851,14.8640345 L22.155043,14.764901 L23.6267122,14.7509254 Z M23.1074571,16.3148266 C23.0876349,16.4415052 23.0400772,16.5337424 22.9647824,16.5915408 C22.8894875,16.6493393 22.7891328,16.6684329 22.663715,16.6488221 L22.0150733,16.5473984 L22.0297865,16.4533694 L22.2120333,16.4818661 C22.1570461,16.4398201 22.1178005,16.3848503 22.0942953,16.3169548 C22.0707901,16.2490594 22.0658833,16.1713629 22.0795749,16.0838632 C22.0973535,15.9702442 22.138184,15.8846481 22.2020676,15.8270722 C22.2659512,15.7694964 22.3416574,15.7475521 22.4291885,15.7612387 C22.5141068,15.7745168 22.5782691,15.8156556 22.6216774,15.8846563 C22.6650856,15.9536569 22.6763676,16.05476 22.6555238,16.1879685 L22.6006556,16.5386186 L22.6829606,16.551488 C22.7783303,16.5664003 22.8548723,16.5519452 22.9125887,16.5081221 C22.9703051,16.464299 23.0069282,16.3927619 23.0224589,16.2935085 C23.0330852,16.2255983 23.0314938,16.158789 23.0176847,16.0930786 C23.0038755,16.0273682 22.9807466,15.9699013 22.9482972,15.9206761 L23.0265075,15.8827336 C23.064263,15.940816 23.0902584,16.0077619 23.1044945,16.0835735 C23.1187307,16.159385 23.1197182,16.2364686 23.1074571,16.3148266 Z M22.1577745,16.1101389 C22.1444917,16.1950266 22.1527976,16.2702443 22.1826927,16.3357941 C22.2125877,16.4013439 22.2624179,16.4549585 22.3321846,16.4966396 L22.5242295,16.5266683 L22.5787912,16.1779772 C22.5945263,16.0774179 22.5876289,16.0017515 22.5580988,15.9509759 C22.5285688,15.9002003 22.4817968,15.8698081 22.4177815,15.8597985 C22.3511533,15.8493803 22.2946875,15.8659712 22.2483823,15.9095717 C22.2020771,15.9531722 22.1718748,16.0200272 22.1577745,16.1101389 Z" id="Anukandimalla" fill="#040F3D" fill-rule="nonzero" transform="translate(15.536732, 11.095542) rotate(65.000000) translate(-15.536732, -11.095542) "></path>
            </g>
        </g>
    </g>
</svg>