<?xml version="1.0" encoding="UTF-8"?>
<svg width="93px" height="91px" viewBox="0 0 93 91" version="1.1" xmlns="http://www.w3.org/2000/svg" xmlns:xlink="http://www.w3.org/1999/xlink">
    <!-- Generator: Sketch 54.1 (76490) - https://sketchapp.com -->
    <title>Group 3</title>
    <desc>Created with Sketch.</desc>
    <g id="Page-1" stroke="none" stroke-width="1" fill="none" fill-rule="evenodd">
        <g id="Mobile" transform="translate(-71.000000, -104.000000)">
            <g id="Group-3" transform="translate(59.000000, 92.000000)">
                <g id="Group-2">
                    <path d="M58,102 C82.300529,102 102,82.300529 102,58 C102,33.699471 82.300529,14 58,14 C33.699471,14 14,33.699471 14,58 C14,82.300529 33.699471,102 58,102 Z M58,99.4857143 C35.0880727,99.4857143 16.5142857,80.9119273 16.5142857,58 C16.5142857,35.0880727 35.0880727,16.5142857 58,16.5142857 C80.9119273,16.5142857 99.4857143,35.0880727 99.4857143,58 C99.4857143,80.9119273 80.9119273,99.4857143 58,99.4857143 Z" id="Oval" fill-rule="nonzero" transform="translate(58.000000, 58.000000) rotate(67.000000) translate(-58.000000, -58.000000) "></path>
                    <g id="Group" transform="translate(35.000000, 30.000000)" fill="#040F3D">
                        <polygon id="Path-2" points="30.2884615 37.2259425 41.5384615 0 45 0 33.75 36.953125 43.2692308 54.140625 39.8076923 54.140625"></polygon>
                        <path d="M26.8269231,38.671875 L11.2153846,38.9039062 L4.28365385,54.140625 L0,54.140625 L25.0788462,0 L30.2884615,0 L30.2884615,54.140625 L26.8269231,54.140625 L26.8269231,38.671875 Z M26.8269231,35.234375 L27.0259615,4.33125 L12.7730769,35.578125 L26.8269231,35.234375 Z" id="A" fill-rule="nonzero"></path>
                    </g>
                    <path d="M67.2471265,15.1995272 C63.9592078,14.4152447 60.5280967,14 57,14 C32.699471,14 13,33.699471 13,58 C13,82.300529 32.699471,102 57,102 L57,102 C59.2469397,102 61.4545417,101.831575 63.6108699,101.506662" id="Path" stroke="#040F3D" stroke-width="2"></path>
                </g>
                <path d="M42.5577142,43.3736347 L39.4909401,46.0341791 L40.1096207,48.1054672 L39.694171,48.4658857 L37.5392947,41.0682572 L37.9245299,40.7340509 L44.9439445,43.9115056 L44.5284948,44.2719242 L42.5577142,43.3736347 Z M42.1324134,43.1733368 L38.0951071,41.3274339 L39.3602309,45.5783117 L42.1324134,43.1733368 Z M47.7313452,35.8010003 C48.3094133,35.4965566 48.855088,35.4239103 49.3683857,35.5830591 C49.8816834,35.742208 50.3045273,36.1373545 50.6369302,36.7685105 L52.0581783,39.4671312 L51.6157814,39.7001227 L50.2131727,37.0368937 C49.9397946,36.5178122 49.6004146,36.1917284 49.1950223,36.0586326 C48.78963,35.9255368 48.3509943,35.9832508 47.879102,36.2317763 C47.3364258,36.5175806 46.9942092,36.905014 46.8524418,37.3940881 C46.7106744,37.8831623 46.784245,38.401979 47.0731559,38.9505538 L48.3685886,41.4102802 L47.9261918,41.6432717 L45.4937606,37.0246487 L45.9184616,36.8009768 L46.4450224,37.8007937 C46.4334247,37.3924904 46.5372616,37.0138145 46.7565359,36.6647548 C46.9758103,36.3156951 47.3007435,36.0277799 47.7313452,35.8010003 Z M59.3940439,31.2920953 L60.7222683,36.3402851 L60.2580669,36.4624207 L59.9730839,35.3792842 C59.8987533,35.7779889 59.7230542,36.1189137 59.4459815,36.4020687 C59.1689088,36.6852236 58.807947,36.8853217 58.3630851,37.0023689 C57.7054632,37.1753952 57.1413443,37.1273555 56.6707113,36.8582484 C56.2000783,36.5891413 55.8740127,36.1096658 55.6925047,35.4198075 L54.9164349,32.4701947 L55.399978,32.3429702 L56.1658698,35.2538995 C56.3151474,35.8212596 56.5738617,36.2150534 56.9420204,36.4352929 C57.3101792,36.6555323 57.75859,36.6961017 58.2872665,36.5570021 C58.8546265,36.4077246 59.2576685,36.1121096 59.4964046,35.6701482 C59.7351407,35.2281869 59.7756286,34.7074158 59.6178693,34.1078194 L58.9105008,31.4193199 L59.3940439,31.2920953 Z M67.1150627,32.4823571 L65.8092824,33.7793296 L65.8755047,35.3279143 L65.3759613,35.3492764 L65.0589484,27.9360515 L65.5584919,27.9146895 L65.7827934,33.1598957 L68.9894352,29.9699822 L69.6288508,29.9426388 L67.4710531,32.1468414 L70.0716697,35.1484731 L69.4522359,35.1749621 L67.1150627,32.4823571 Z M76.366804,30.2906726 C77.0052268,30.3936209 77.4692871,30.6355823 77.7589989,31.0165641 C78.0487107,31.397546 78.1426217,31.9039498 78.0407347,32.5357909 L77.5137907,35.8035776 L77.0399123,35.7271628 L77.187966,34.8090233 C76.9746032,35.0852474 76.6964339,35.2818012 76.3534496,35.3986905 C76.0104654,35.5155798 75.6184929,35.5384698 75.1775205,35.4673612 C74.6049145,35.3750261 74.1741877,35.1671389 73.8853272,34.8436933 C73.5964667,34.5202478 73.4875924,34.1380445 73.558701,33.6970721 C73.627687,33.269263 73.8366926,32.9467601 74.1857242,32.7295536 C74.5347558,32.5123472 75.0449295,32.4578722 75.7162606,32.5661271 L77.4834323,32.8510908 L77.5502953,32.4364472 C77.6277718,31.9559847 77.5566882,31.5697462 77.3370421,31.2777202 C77.1173961,30.9856942 76.7574748,30.7993538 76.2572672,30.7186933 C75.91502,30.6635045 75.5780347,30.6699387 75.2463012,30.7379961 C74.9145677,30.8060535 74.6241877,30.9212938 74.3751527,31.0837205 L74.1856521,30.6885122 C74.4794839,30.4995451 74.8177387,30.3700785 75.2004268,30.3001085 C75.5831148,30.2301385 75.9719034,30.2269932 76.366804,30.2906726 Z M75.3118988,35.0737338 C75.7397078,35.1427198 76.1192597,35.1026333 76.4505657,34.9534731 C76.7818717,34.804313 77.0534576,34.554364 77.2653316,34.2036188 L77.4213452,33.236117 L75.664046,32.9527453 C75.1572569,32.8710235 74.7754755,32.9039978 74.5186906,33.0516691 C74.2619057,33.1993405 74.1075131,33.4344237 74.0555083,33.7569259 C74.0013809,34.0925915 74.0837133,34.3776649 74.302508,34.6121546 C74.5213028,34.8466444 74.857763,35.0005026 75.3118988,35.0737338 Z M86.4078128,32.8238605 C87.0152343,33.0644592 87.4256171,33.4313711 87.6389733,33.9246074 C87.8523295,34.4178437 87.8276607,34.9960558 87.5649662,35.659261 L86.4417689,38.4949139 L85.9769077,38.3107832 L87.0853746,35.5123191 C87.3014224,34.9668794 87.3280035,34.4969827 87.1651185,34.102615 C87.0022336,33.7082473 86.6728689,33.4128643 86.1770146,33.2164572 C85.606782,32.9905891 85.0899068,32.9830452 84.6263735,33.1938254 C84.1628401,33.4046056 83.816917,33.7982051 83.5885937,34.3746358 L82.564827,36.9592638 L82.0999658,36.7751331 L84.0222905,31.9219827 L84.4685572,32.0987482 L84.0524218,33.1493344 C84.3548025,32.8747219 84.7098427,32.70702 85.117553,32.6462237 C85.5252634,32.5854274 85.9553457,32.644639 86.4078128,32.8238605 Z M98.7599105,36.9810612 L94.5417656,43.0854575 L94.1386451,42.8069007 L94.8378793,41.794986 C94.4366706,42.0120631 94.0199685,42.1049798 93.5877606,42.0737389 C93.1555527,42.0424979 92.7447495,41.892338 92.3553386,41.6232546 C91.9549584,41.3465914 91.6574037,41.0032235 91.4626656,40.5931406 C91.2679275,40.1830576 91.1923887,39.7500019 91.236047,39.2939605 C91.2797052,38.837919 91.4474433,38.3987454 91.7392661,37.9764266 C92.0310889,37.5541077 92.3835077,37.240523 92.7965332,37.0356629 C93.2095586,36.8308028 93.6413433,36.7483082 94.0919001,36.7881766 C94.5424569,36.828045 94.9679191,36.9863084 95.3682993,37.2629716 C95.7522255,37.528265 96.0338502,37.8565736 96.2131819,38.2479072 C96.3925137,38.6392408 96.4581309,39.0573373 96.4100355,39.5022093 L98.348563,36.6968196 L98.7599105,36.9810612 Z M92.6358369,41.2700964 C92.9649165,41.4974908 93.3127704,41.6244111 93.6794092,41.6508612 C94.0460479,41.6773113 94.3995237,41.6055321 94.7398472,41.4355215 C95.0801707,41.2655109 95.3716051,41.0050004 95.6141591,40.6539822 C95.8567131,40.3029639 95.9973216,39.9382325 96.0359888,39.5597771 C96.074656,39.1813217 96.0167884,38.8253038 95.8623844,38.4917127 C95.7079805,38.1581217 95.4662423,37.8776332 95.1371627,37.6502388 C94.8080831,37.4228444 94.4602291,37.295924 94.0935904,37.269474 C93.7269516,37.2430239 93.3734758,37.3148031 93.0331523,37.4848136 C92.6928289,37.6548242 92.4013945,37.9153347 92.1588405,38.266353 C91.9162864,38.6173712 91.775678,38.9821026 91.7370108,39.360558 C91.6983436,39.7390135 91.7562112,40.0950314 91.9106151,40.4286224 C92.0650191,40.7622135 92.3067573,41.042702 92.6358369,41.2700964 Z M102.00668,42.221608 L102.361811,42.5735773 L98.6872512,46.281139 L98.3321208,45.9291697 L102.00668,42.221608 Z M103.078247,41.4955613 C102.997751,41.4157812 102.956077,41.3205081 102.953225,41.2097392 C102.950372,41.0989702 102.988836,41.0033388 103.068616,40.9228422 C103.148396,40.8423456 103.244853,40.8018449 103.357989,40.8013392 C103.471126,40.8008334 103.567941,40.8404699 103.648437,40.92025 C103.728934,41.0000301 103.770608,41.0953033 103.77346,41.2060722 C103.776312,41.3168412 103.737849,41.4124726 103.658069,41.4929692 C103.578289,41.5734658 103.481832,41.6139664 103.368696,41.6144722 C103.255559,41.614978 103.158744,41.5753414 103.078247,41.4955613 Z M109.829337,52.4575079 C110.17651,53.0030834 110.289117,53.5339473 110.167162,54.0501156 C110.045206,54.5662838 109.683323,55.0158434 109.081503,55.3988078 L106.508312,57.0362408 L106.23988,56.6144062 L108.779325,54.9984477 C109.27428,54.6834863 109.574165,54.3227651 109.67899,53.9162731 C109.783815,53.5097811 109.698433,53.0899986 109.422842,52.6569129 C109.107881,52.1619578 108.703571,51.8680794 108.2099,51.7752691 C107.716229,51.6824587 107.207862,51.8024802 106.684785,52.1353371 L104.339384,53.627817 L104.070953,53.2059823 L106.610397,51.5900239 C107.105352,51.2750625 107.405238,50.9143413 107.510063,50.5078493 C107.614888,50.1013573 107.529506,49.6815748 107.253915,49.2484891 C106.938953,48.753534 106.534643,48.4596556 106.040972,48.3668453 C105.547301,48.2740349 105.038935,48.3940564 104.515857,48.7269133 L102.170457,50.2193932 L101.902025,49.7975585 L106.305978,46.9951322 L106.563673,47.4000935 L105.618763,48.0013803 C106.021167,47.9507662 106.400299,48.0157074 106.756169,48.1962059 C107.11204,48.3767044 107.41703,48.6666187 107.671146,49.0659574 C107.925263,49.4652962 108.05091,49.8614315 108.048092,50.2543752 C108.045274,50.6473188 107.907089,51.0137946 107.633532,51.3538135 C108.052809,51.292462 108.457378,51.3570201 108.847251,51.5474897 C109.237124,51.7379593 109.564483,52.0412956 109.829337,52.4575079 Z M114.306721,61.2080465 C114.499498,61.8253138 114.49006,62.3485807 114.278407,62.7778628 C114.066754,63.2071449 113.655482,63.5171761 113.044578,63.7079658 L109.885076,64.694701 L109.741985,64.2365255 L110.6297,63.9592857 C110.28729,63.8916162 109.987257,63.7303971 109.729591,63.4756238 C109.471925,63.2208504 109.276517,62.8802888 109.143362,62.4539289 C108.970459,61.9002974 108.964279,61.4220668 109.124822,61.0192229 C109.285366,60.616379 109.578813,60.3483834 110.005173,60.2152282 C110.418806,60.0860477 110.800686,60.1291654 111.150825,60.3445825 C111.500963,60.5599996 111.777386,60.9922443 111.9801,61.6413296 L112.513712,63.3499425 L112.914615,63.2247375 C113.379157,63.0796578 113.69308,62.8436804 113.856394,62.516798 C114.019708,62.1899157 114.025844,61.7846645 113.874802,61.3010324 C113.771458,60.9701262 113.615315,60.671429 113.40637,60.404932 C113.197424,60.138435 112.964709,59.9300014 112.708218,59.779625 L112.977323,59.4336732 C113.277556,59.6122942 113.544367,59.8572224 113.777764,60.1684652 C114.01116,60.479708 114.187477,60.8262316 114.306721,61.2080465 Z M109.555588,62.3985222 C109.684768,62.8121549 109.890022,63.1339271 110.171356,63.3638482 C110.45269,63.5937694 110.797568,63.7252685 111.206002,63.7583495 L112.141444,63.4662044 L111.610813,61.7671368 C111.457784,61.277141 111.2579,60.9501998 111.011154,60.7863032 C110.764409,60.6224067 110.485133,60.58915 110.173318,60.6865322 C109.848775,60.7878892 109.630404,60.9887868 109.5182,61.2892309 C109.405995,61.589675 109.418457,61.9594351 109.555588,62.3985222 Z M118.469903,68.229419 L118.537638,68.7248097 L111.18604,69.73 L111.118305,69.2346093 L118.469903,68.229419 Z M119.118007,74.3959714 L119.122757,74.8959488 L111.703092,74.9664347 L111.698342,74.4664573 L119.118007,74.3959714 Z M116.500096,82.2834731 C116.40016,82.9223742 116.160389,83.3875704 115.780778,83.6790755 C115.401166,83.9705807 114.895211,84.0668787 114.262897,83.9679725 L110.992661,83.4564443 L111.066841,82.9822108 L111.985668,83.1259332 C111.708441,82.9138754 111.510577,82.6366361 111.392072,82.2942068 C111.273567,81.9517776 111.248828,81.5599174 111.317857,81.1186146 C111.40749,80.5455796 111.613344,80.1138772 111.935424,79.8234947 C112.257504,79.5331121 112.639189,79.4224366 113.080492,79.4914649 C113.508622,79.5584327 113.832107,79.7659152 114.050957,80.1139186 C114.269807,80.461922 114.326687,80.9718331 114.221599,81.6436673 L113.944972,83.4121631 L114.359926,83.47707 C114.840749,83.55228 115.226648,83.4793757 115.517635,83.258355 C115.808622,83.0373343 115.993263,82.6765382 116.071564,82.1759559 C116.125138,81.8334522 116.117115,81.496501 116.047494,81.1650921 C115.977873,80.8336832 115.861264,80.54385 115.697665,80.2955837 L116.091975,80.1042215 C116.282326,80.3971589 116.413386,80.7347994 116.48516,81.1171533 C116.556934,81.4995071 116.561912,81.8882765 116.500096,82.2834731 Z M111.712113,81.2511351 C111.645146,81.6792648 111.687021,82.0586234 111.837742,82.3892223 C111.988463,82.7198212 112.23969,82.9902254 112.591431,83.200443 L113.559657,83.3518925 L113.834739,81.5932765 C113.91407,81.0861076 113.879296,80.704486 113.730415,80.4484003 C113.581534,80.1923146 113.345726,80.0390324 113.022982,79.988549 C112.687065,79.936005 112.402383,80.0196809 112.168927,80.239579 C111.935472,80.4594771 111.783202,80.7966591 111.712113,81.2511351 Z" id="Anukandimalla" stroke="#040F3D" stroke-width="0.3" fill="#040F3D" fill-rule="nonzero" transform="translate(78.331026, 55.960124) rotate(65.000000) translate(-78.331026, -55.960124) "></path>
            </g>
        </g>
    </g>
</svg>