<?xml version="1.0" encoding="UTF-8"?>
<svg width="40px" height="79px" viewBox="0 0 40 79" version="1.1" xmlns="http://www.w3.org/2000/svg" xmlns:xlink="http://www.w3.org/1999/xlink">
    <!-- Generator: Sketch 54.1 (76490) - https://sketchapp.com -->
    <title>Shape</title>
    <desc>Created with Sketch.</desc>
    <g id="Page-1" stroke="none" stroke-width="1" fill="none" fill-rule="evenodd">
        <g id="Artboard" transform="translate(-67.000000, -163.000000)" fill="#040F3D" fill-rule="nonzero">
            <path d="M99.7076768,242 C99.7076768,242 106.969192,242 106.969192,234.818481 L106.969192,170.181519 C106.969192,163 99.7076768,163 99.7076768,163 L74.2923232,163 C74.2923232,163 67.0308081,163 67.0308081,170.181519 L67.0308081,234.818481 C67.0308081,242 74.2923232,242 74.2923232,242 L99.7076768,242 Z M87,239.00977 C84.9958586,239.00977 83.3692929,237.403437 83.3692929,235.424447 C83.3692929,233.445258 84.9958586,231.839124 87,231.839124 C89.0042424,231.839124 90.6307071,233.445357 90.6307071,235.424447 C90.6307071,237.403537 89.0042424,239.00977 87,239.00977 Z M81.5538384,167.377717 C81.5538384,166.933143 81.7680808,166.585323 82.0366667,166.585323 L91.9631313,166.585323 C92.2281818,166.585323 92.4460606,166.940324 92.4460606,167.377717 L92.4460606,167.589282 C92.4460606,168.033856 92.2281818,168.381676 91.9631313,168.381676 L82.0366667,168.381676 C81.7716162,168.381676 81.5538384,168.026674 81.5538384,167.589282 L81.5538384,167.377717 Z M70.6616162,171.963408 L103.338384,171.963408 L103.338384,229.329278 L70.6616162,229.329278 L70.6616162,171.963408 Z" id="Shape"></path>
        </g>
    </g>
</svg>