<?xml version="1.0" encoding="UTF-8"?>
<svg width="25px" height="49px" viewBox="0 0 25 49" version="1.1" xmlns="http://www.w3.org/2000/svg" xmlns:xlink="http://www.w3.org/1999/xlink">
    <!-- Generator: Sketch 54.1 (76490) - https://sketchapp.com -->
    <title>Shape</title>
    <desc>Created with Sketch.</desc>
    <g id="Page-1" stroke="none" stroke-width="1" fill="none" fill-rule="evenodd">
        <g id="Artboard" transform="translate(-75.000000, -178.000000)" fill="#040F3D" fill-rule="nonzero">
            <path d="M95.4545512,227 C95.4545512,227 100,227 100,222.54564 L100,182.45436 C100,178 95.4545512,178 95.4545512,178 L79.5454488,178 C79.5454488,178 75,178 75,182.45436 L75,222.54564 C75,227 79.5454488,227 79.5454488,227 L95.4545512,227 Z M87.5,225.145301 C86.2454791,225.145301 85.2273072,224.148967 85.2273072,222.921492 C85.2273072,221.693894 86.2454791,220.697684 87.5,220.697684 C88.7545841,220.697684 89.7726928,221.693956 89.7726928,222.921492 C89.7726928,224.149029 88.7545841,225.145301 87.5,225.145301 Z M84.0908976,180.715293 C84.0908976,180.439544 84.2250057,180.223808 84.3931308,180.223808 L90.6067427,180.223808 C90.7726548,180.223808 90.9090392,180.443999 90.9090392,180.715293 L90.9090392,180.846516 C90.9090392,181.122265 90.7726548,181.338001 90.6067427,181.338001 L84.3931308,181.338001 C84.2272187,181.338001 84.0908976,181.117811 84.0908976,180.846516 L84.0908976,180.715293 Z M77.272756,183.559582 L97.727244,183.559582 L97.727244,219.140944 L77.272756,219.140944 L77.272756,183.559582 Z" id="Shape"></path>
        </g>
    </g>
</svg>