<?xml version="1.0" encoding="UTF-8"?>
<svg width="74px" height="71px" viewBox="0 0 74 71" version="1.1" xmlns="http://www.w3.org/2000/svg" xmlns:xlink="http://www.w3.org/1999/xlink">
    <!-- Generator: Sketch 54.1 (76490) - https://sketchapp.com -->
    <title>nationalpark</title>
    <desc>Created with Sketch.</desc>
    <g id="Page-1" stroke="none" stroke-width="1" fill="none" fill-rule="evenodd">
        <g id="Artboard" transform="translate(-297.000000, -381.000000)" fill="#040F3D" fill-rule="nonzero">
            <g id="nationalpark" transform="translate(297.000000, 381.000000)">
                <path d="M73.786117,63.0105022 L71.6560294,57.6387298 C71.6274729,57.5664558 71.6129032,57.4906564 71.6129032,57.414857 L71.6129032,51.9684604 C71.6129032,51.9191026 71.618731,51.8709199 71.6309697,51.8227374 L72.67649,47.6026466 C72.7802262,47.1825178 72.7947959,46.755338 72.7167024,46.3340341 L70.5481508,34.3071868 C70.3907983,33.4310862 69.8610445,32.6754419 69.0935137,32.2329846 L62.3640687,28.3554604 C62.1793252,28.2496938 62.0645161,28.0499122 62.0645161,27.8330906 L62.0645161,23.1570279 C62.0645161,22.830914 62.0132308,22.5106761 61.9118258,22.2051279 L59.708307,15.5383011 C59.686744,15.4789543 59.6774194,15.4166694 59.6774194,15.3502715 L59.6774194,8.33558983 C59.6774194,7.18802135 59.0450952,6.15679629 58.0281312,5.64500302 L47.4592837,0.316712498 C47.047253,0.109292165 46.586851,-7.10542736e-15 46.1258663,-7.10542736e-15 L43.1752142,-7.10542736e-15 C42.9438477,-7.10542736e-15 42.712481,0.0264416335 42.4916048,0.0793250508 L22.8994613,4.72835842 C22.3586347,4.855866 21.8655967,5.1337973 21.4733809,5.52983485 L14.0026305,13.0615979 C13.4478169,13.6209861 13.1290323,14.3960209 13.1290323,15.1880959 L13.1290323,18.7077762 C13.1290323,18.8270574 13.0946478,18.9428132 13.0287928,19.0415288 L6.46777336,28.9630314 C6.14082973,29.4589596 5.96774194,30.0365632 5.96774194,30.6312069 L5.96774194,36.9137481 C5.96774194,36.9995365 5.94850999,37.0859127 5.91529115,37.1628874 L0.267499407,49.6891883 C0.0920804677,50.0764119 -7.10542736e-15,50.5077049 -7.10542736e-15,50.9337095 L-7.10542736e-15,67.9915254 C-7.10542736e-15,69.6497121 1.33924514,71 2.98387097,71 L24.4677419,71 C26.1123678,71 27.4516129,69.6497121 27.4516129,67.9915254 L27.4516129,63.3236891 C27.4516129,62.5316141 27.1328282,61.7565793 26.5780147,61.196016 L22.8528383,57.4401235 C22.7409431,57.3284808 22.6774194,57.1727688 22.6774194,57.015294 L22.6774194,47.8987933 C22.6774194,46.8898967 22.1808846,45.9550367 21.3492471,45.3956485 L19.363108,44.0606379 C19.195848,43.9489953 19.0967742,43.7615532 19.0967742,43.5588338 L19.0967742,40.6766915 C19.0967742,40.4757349 19.195848,40.2882928 19.363108,40.1766503 L24.9298922,36.43486 C25.7615297,35.8754718 26.2580645,34.9406118 26.2580645,33.9317151 L26.2580645,31.8898305 C26.2580645,31.5578407 26.5255639,31.2881356 26.8548387,31.2881356 C27.4959047,31.2881356 28.1305601,31.0754271 28.6451613,30.6864407 L32.6040354,27.6926559 C32.9741053,27.4129618 33.2771547,27.0463039 33.4828786,26.6308759 L35.1857832,23.1963966 C35.2871881,22.9919144 35.4911637,22.8644068 35.7190334,22.8644068 L37.8689359,22.8644068 C37.9406188,22.8644068 38.011136,22.8779214 38.0787393,22.9031878 L46.1602508,25.9580823 C46.3933658,26.0462212 46.5483871,26.2724444 46.5483871,26.5227588 L46.5483871,37.9067797 C46.5483871,38.5531316 46.759356,39.19302 47.1451613,39.7118644 L50.0083952,43.5617717 C50.0870716,43.6675384 50.1290323,43.7926956 50.1290323,43.9237288 L50.1290323,48.9564602 C50.1290323,49.040486 50.1109658,49.1233365 50.077747,49.2003112 L45.6124306,59.3292339 C45.4422569,59.7170452 45.3548387,60.12836 45.3548387,60.5520144 L45.3548387,67.9915254 C45.3548387,69.6497121 46.6940838,71 48.3387097,71 L71.016129,71 C72.6607549,71 74,69.6497121 74,67.9915254 L74,64.1275159 C74,63.7438179 73.9283171,63.3683461 73.786117,63.0105022 L73.786117,63.0105022 Z M2.38709677,67.9915254 L2.38709677,58.9661017 L8.61651017,58.9661017 L9.47670422,62.4364241 L6.42348168,68.5932203 L2.98387097,68.5932203 C2.65459618,68.5932203 2.38709677,68.3235153 2.38709677,67.9915254 Z M25.0645161,63.3236891 L25.0645161,67.9915254 C25.0645161,68.3235153 24.7970167,68.5932203 24.4677419,68.5932203 L9.09264735,68.5932203 L11.4797441,63.779661 L15.0603893,63.779661 L16.2539377,61.3728814 L23.3767641,61.3728814 L24.8902627,62.8988595 C25.0009924,63.0105022 25.0645161,63.1662142 25.0645161,63.3236891 L25.0645161,63.3236891 Z M20.0239888,47.3981644 C20.1912488,47.5086318 20.2903226,47.6960739 20.2903226,47.8987933 L20.2903226,57.015294 C20.2903226,57.7303942 20.5613186,58.4243413 21.0217207,58.9661017 L14.7783204,58.9661017 L13.584772,61.3728814 L11.6738124,61.3728814 L10.480264,56.559322 L2.38709677,56.559322 L2.38709677,50.9337095 C2.38709677,50.8479211 2.40632872,50.7615449 2.43954756,50.6845702 L7.86762853,38.6430333 L13.7485352,39.6313642 L16.7085119,42.6157476 L16.7085119,43.5576585 C16.7085119,44.5665553 17.2050465,45.5014152 18.0366841,46.0608034 L20.0239888,47.3981644 Z M52.2585371,50.1792407 C52.4287109,49.7914293 52.516129,49.3801146 52.516129,48.9564602 L52.516129,43.9237288 C52.516129,43.2773769 52.3051601,42.6374885 51.9193548,42.1186441 L49.0561209,38.2687368 C48.9774446,38.1629701 48.9354839,38.0378129 48.9354839,37.9067797 L48.9354839,36.1016949 L54.9032258,36.1016949 L54.9032258,33.6949153 L48.9354839,33.6949153 L48.9354839,26.5227588 C48.9354839,25.2758872 48.1574628,24.143596 46.9994645,23.7058395 L38.917953,20.6515326 C38.5828503,20.5228499 38.2290984,20.4576271 37.8689359,20.4576271 L35.7190334,20.4576271 C34.5808499,20.4576271 33.5580583,21.0951652 33.0504505,22.1205145 L31.3463805,25.5561689 C31.3055853,25.6384318 31.2449754,25.711881 31.172127,25.7682899 L27.2138357,28.7608995 C27.108934,28.8390493 26.9848003,28.8813559 26.8548387,28.8813559 C25.2102129,28.8813559 23.8709677,30.2316439 23.8709677,31.8898305 L23.8709677,33.9317151 C23.8709677,34.1326718 23.771894,34.3207014 23.604634,34.4323441 L18.0378497,38.1741344 C17.5535534,38.5002482 17.2015499,38.9609209 16.9760112,39.4809405 L14.8954606,37.3832345 L8.35483871,36.2856114 L8.35483871,30.6312069 C8.35483871,30.5119257 8.3892232,30.3961698 8.45507812,30.2974542 L14.9613155,20.4576271 L18.1322612,20.4576271 L30.067745,15.6440678 L35.8064516,15.6440678 L35.8064516,13.2372881 L29.6096743,13.2372881 L17.6741904,18.0508475 L15.516129,18.0508475 L15.516129,15.1880959 C15.516129,15.030621 15.5796528,14.874909 15.6903825,14.7620912 L23.16055,7.22974047 C23.2398091,7.15159068 23.3377173,7.09518178 23.4461158,7.06991525 L43.0405903,2.42146944 C43.0848821,2.4114804 43.1303396,2.40677966 43.1752142,2.40677966 L46.1258663,2.40677966 C46.2179467,2.40677966 46.3106099,2.42969581 46.3933657,2.47082723 L56.9610478,7.79794264 C57.1638578,7.90018369 57.2903226,8.10584121 57.2903226,8.33558983 L57.2903226,12.1913731 L55.2651367,10.8305085 L47.5484501,10.8305085 L40.2035817,13.2983978 L40.9588741,15.581783 L47.9354209,13.2372881 L54.5413149,13.2372881 L57.2903226,15.0846796 L57.2903226,15.3502715 C57.2903226,15.6763854 57.3416079,15.9966234 57.4430129,16.3021716 L59.6465317,22.9689982 C59.6680948,23.0295203 59.6774194,23.0918052 59.6774194,23.1582031 L59.6774194,27.6779661 L56.0967742,27.6779661 L56.0967742,30.0847458 L60.7124496,30.0847458 C60.8604776,30.2146037 61.0085055,30.3456369 61.1810106,30.4455277 L67.9092899,34.3230518 C68.0631458,34.4111908 68.1697959,34.5627896 68.2006836,34.7384799 L70.3692351,46.7670899 C70.3849704,46.850528 70.380891,46.935729 70.3610761,47.0185796 L69.3155556,51.2392577 C69.2555286,51.4772329 69.2258065,51.7228466 69.2258065,51.9684604 L69.2258065,54.9657707 L66.3013799,51.9020623 L63.2580645,50.8778883 L63.2580645,48.1355932 L60.8709677,48.1355932 L60.8709677,52.6136371 L64.9889427,53.9974179 L69.525359,58.7504551 L71.0435201,62.5762712 L63.5395508,62.5762712 L59.6774194,60.6289891 L59.6774194,57.7627119 L57.2903226,57.7627119 L57.2903226,60.1694915 L50.3225176,60.1694915 L48.1726153,59.4473401 L52.2585371,50.1792407 Z M71.016129,68.5932203 L48.3387097,68.5932203 C48.0094349,68.5932203 47.7419355,68.3235153 47.7419355,67.9915254 L47.7419355,61.8388423 L49.9355469,62.5762712 L58.2023847,62.5762712 L62.9765782,64.9830508 L71.6129032,64.9830508 L71.6129032,67.9915254 C71.6129032,68.3235153 71.3454038,68.5932203 71.016129,68.5932203 Z" id="Shape"></path>
                <polygon id="Path" points="62.0645161 37.3050847 64.4516129 37.3050847 64.4516129 39.7118644 62.0645161 39.7118644"></polygon>
                <polygon id="Path" points="16.7096774 25.2711864 19.0967742 25.2711864 19.0967742 27.6779661 16.7096774 27.6779661"></polygon>
                <polygon id="Path" points="38.1935484 6.01694915 40.5806452 6.01694915 40.5806452 8.42372881 38.1935484 8.42372881"></polygon>
                <polygon id="Path" points="51.3225806 16.8474576 53.7096774 16.8474576 53.7096774 19.2542373 51.3225806 19.2542373"></polygon>
                <polygon id="Path" points="13.1290323 31.2881356 15.516129 31.2881356 15.516129 33.6949153 13.1290323 33.6949153"></polygon>
                <polygon id="Path" points="7.16129032 44.5254237 9.5483871 44.5254237 9.5483871 46.9322034 7.16129032 46.9322034"></polygon>
                <polygon id="Path" points="14.3225806 50.5423729 16.7096774 50.5423729 16.7096774 52.9491525 14.3225806 52.9491525"></polygon>
                <polygon id="Path" points="4.77419355 50.5423729 7.16129032 50.5423729 7.16129032 52.9491525 4.77419355 52.9491525"></polygon>
                <polygon id="Path" points="56.0967742 43.3220339 58.483871 43.3220339 58.483871 45.7288136 56.0967742 45.7288136"></polygon>
            </g>
        </g>
    </g>
</svg>