<?xml version="1.0" encoding="UTF-8"?>
<svg width="42px" height="51px" viewBox="0 0 42 51" version="1.1" xmlns="http://www.w3.org/2000/svg" xmlns:xlink="http://www.w3.org/1999/xlink">
    <!-- Generator: Sketch 54.1 (76490) - https://sketchapp.com -->
    <title>landing-page</title>
    <desc>Created with Sketch.</desc>
    <g id="Page-1" stroke="none" stroke-width="1" fill="none" fill-rule="evenodd">
        <g id="Artboard" transform="translate(-85.000000, -209.000000)" fill="#343A6E" fill-rule="nonzero">
            <g id="landing-page" transform="translate(85.000000, 209.000000)">
                <path d="M2.34605443,51 L39.5591277,51 C40.8527428,51 41.9051821,49.9591598 41.9051821,48.6798019 C41.9051821,48.0580216 41.9051821,3.74546809 41.9051821,2.32019808 C41.9051821,1.04084017 40.8527428,0 39.5591277,0 C39.0952675,0 3.05502471,0 2.34605443,0 C1.05243932,0 2.84217094e-14,1.04084017 2.84217094e-14,2.32019808 L2.84217094e-14,48.6798019 C2.84217094e-14,49.9591598 1.05243932,51 2.34605443,51 Z M40.3943908,6.26683039 L40.3943908,21.2572632 L1.51079137,21.2572632 L1.51079137,6.26683039 L40.3943908,6.26683039 Z M39.5591277,49.5058594 L2.34605443,49.5058594 C1.88573514,49.5058594 1.51079137,49.1350479 1.51079137,48.6798019 L1.51079137,22.7514038 L40.3943908,22.7514038 L40.3943908,48.6798019 C40.3943908,49.1350479 40.0198404,49.5058594 39.5591277,49.5058594 L39.5591277,49.5058594 Z M40.3900629,2.23615267 C40.392817,2.26377864 40.3943908,2.29179377 40.3943908,2.32019808 L40.3943908,4.77268977 L6.37601174,4.77268977 L6.37601174,1.49414062 L39.5591277,1.49414062 C39.9907261,1.49414062 40.3471785,1.81981656 40.3900629,2.23615267 Z M1.51079137,2.32019808 C1.51079137,1.86495206 1.88573514,1.49414062 2.34605443,1.49414062 L4.86522037,1.49414062 L4.86522037,4.77268977 L1.51079137,4.77268977 L1.51079137,2.32019808 Z" id="Shape"></path>
                <path d="M12.5848134,27.0906372 L5.31058898,27.0906372 C4.43362183,27.0906372 3.72032374,27.7964631 3.72032374,28.6633758 L3.72032374,37.7301636 C3.72032374,38.5974655 4.43362183,39.3029022 5.31058898,39.3029022 L12.5848134,39.3029022 C13.4617806,39.3029022 14.1750787,38.5974655 14.1750787,37.7301636 L14.1750787,28.6633758 C14.1750787,27.7964631 13.4617806,27.0906372 12.5848134,27.0906372 Z M12.6642873,37.7301636 C12.6642873,37.7737427 12.6284847,37.8087615 12.5848134,37.8087615 L5.31058898,37.8087615 C5.26691774,37.8087615 5.23111511,37.7737427 5.23111511,37.7301636 L5.23111511,28.6633758 C5.23111511,28.6201859 5.26691774,28.5851669 5.31058898,28.5851669 L12.5848134,28.5851669 C12.6284847,28.5851669 12.6642873,28.6201859 12.6642873,28.6633758 L12.6642873,37.7301636 Z" id="Shape"></path>
                <path d="M24.5897032,27.0906372 L17.3154789,27.0906372 C16.4385117,27.0906372 15.7252136,27.7964631 15.7252136,28.6633758 L15.7252136,37.7301636 C15.7252136,38.5974655 16.4385117,39.3029022 17.3154789,39.3029022 L24.5897032,39.3029022 C25.4666704,39.3029022 26.1799686,38.5974655 26.1799686,37.7301636 L26.1799686,28.6633758 C26.1799686,27.7964631 25.4666704,27.0906372 24.5897032,27.0906372 Z M24.6691772,37.7301636 C24.6691772,37.7737427 24.6333746,37.8087615 24.5897032,37.8087615 L17.3154789,37.8087615 C17.2718076,37.8087615 17.2360049,37.7737427 17.2360049,37.7301636 L17.2360049,28.6633758 C17.2360049,28.6201859 17.2718076,28.5851669 17.3154789,28.5851669 L24.5897032,28.5851669 C24.6333746,28.5851669 24.6691772,28.6201859 24.6691772,28.6633758 L24.6691772,37.7301636 Z" id="Shape"></path>
                <path d="M6.79305301,25.6992188 L11.1023494,25.6992188 C11.5193908,25.6992188 11.8577451,25.3649826 11.8577451,24.9521484 C11.8577451,24.5397034 11.5193908,24.2050781 11.1023494,24.2050781 L6.79305301,24.2050781 C6.37601174,24.2050781 6.03765732,24.5397034 6.03765732,24.9521484 C6.03765732,25.3649826 6.37601174,25.6992188 6.79305301,25.6992188 Z" id="Path"></path>
                <path d="M18.7979429,25.6992188 L23.1072392,25.6992188 C23.5242806,25.6992188 23.8626349,25.3649826 23.8626349,24.9521484 C23.8626349,24.5397034 23.5242806,24.2050781 23.1072392,24.2050781 L18.7979429,24.2050781 C18.3809016,24.2050781 18.0425472,24.5397034 18.0425472,24.9521484 C18.0425472,25.3649826 18.3809016,25.6992188 18.7979429,25.6992188 Z" id="Path"></path>
                <path d="M30.8032261,25.6992188 L35.112129,25.6992188 C35.5295638,25.6992188 35.8675247,25.3649826 35.8675247,24.9521484 C35.8675247,24.5397034 35.5295638,24.2050781 35.112129,24.2050781 L30.8032261,24.2050781 C30.3857914,24.2050781 30.0474371,24.5397034 30.0474371,24.9521484 C30.0474371,25.3649826 30.3857914,25.6992188 30.8032261,25.6992188 Z" id="Path"></path>
                <path d="M13.419683,40.5682526 L4.47571942,40.5682526 C4.05867806,40.5682526 3.72032374,40.9028778 3.72032374,41.3153229 C3.72032374,41.7277679 4.05867806,42.0623932 4.47571942,42.0623932 L13.419683,42.0623932 C13.8367243,42.0623932 14.1750787,41.7277679 14.1750787,41.3153229 C14.1750787,40.9028778 13.8367243,40.5682526 13.419683,40.5682526 Z" id="Path"></path>
                <path d="M13.419683,43.137474 L4.47571942,43.137474 C4.05867806,43.137474 3.72032374,43.4717102 3.72032374,43.8845443 C3.72032374,44.2969894 4.05867806,44.6316147 4.47571942,44.6316147 L13.419683,44.6316147 C13.8367243,44.6316147 14.1750787,44.2969894 14.1750787,43.8845443 C14.1750787,43.4717102 13.8367243,43.137474 13.419683,43.137474 Z" id="Path"></path>
                <path d="M13.419683,45.7066956 L4.47571942,45.7066956 C4.05867806,45.7066956 3.72032374,46.0409317 3.72032374,46.4537659 C3.72032374,46.8662109 4.05867806,47.2008362 4.47571942,47.2008362 L13.419683,47.2008362 C13.8367243,47.2008362 14.1750787,46.8662109 14.1750787,46.4537659 C14.1750787,46.0409317 13.8367243,45.7066956 13.419683,45.7066956 Z" id="Path"></path>
                <path d="M25.4245729,40.5682526 L16.4810026,40.5682526 C16.0635679,40.5682526 15.7252136,40.9028778 15.7252136,41.3153229 C15.7252136,41.7277679 16.0635679,42.0623932 16.4810026,42.0623932 L25.4245729,42.0623932 C25.8416142,42.0623932 26.1799686,41.7277679 26.1799686,41.3153229 C26.1799686,40.9028778 25.8416142,40.5682526 25.4245729,40.5682526 Z" id="Path"></path>
                <path d="M25.4245729,43.137474 L16.4810026,43.137474 C16.0635679,43.137474 15.7252136,43.4717102 15.7252136,43.8845443 C15.7252136,44.2969894 16.0635679,44.6316147 16.4810026,44.6316147 L25.4245729,44.6316147 C25.8416142,44.6316147 26.1799686,44.2969894 26.1799686,43.8845443 C26.1799686,43.4717102 25.8416142,43.137474 25.4245729,43.137474 Z" id="Path"></path>
                <path d="M25.4245729,45.7066956 L16.4810026,45.7066956 C16.0635679,45.7066956 15.7252136,46.0409317 15.7252136,46.4537659 C15.7252136,46.8662109 16.0635679,47.2008362 16.4810026,47.2008362 L25.4245729,47.2008362 C25.8416142,47.2008362 26.1799686,46.8662109 26.1799686,46.4537659 C26.1799686,46.0409317 25.8416142,45.7066956 25.4245729,45.7066956 Z" id="Path"></path>
                <path d="M37.4294627,40.5682526 L28.4858926,40.5682526 C28.0684578,40.5682526 27.7304969,40.9028778 27.7304969,41.3153229 C27.7304969,41.7277679 28.0684578,42.0623932 28.4858926,42.0623932 L37.4294627,42.0623932 C37.8468975,42.0623932 38.1848584,41.7277679 38.1848584,41.3153229 C38.1848584,40.9028778 37.8468975,40.5682526 37.4294627,40.5682526 Z" id="Path"></path>
                <path d="M37.4294627,43.137474 L28.4858926,43.137474 C28.0684578,43.137474 27.7304969,43.4717102 27.7304969,43.8845443 C27.7304969,44.2969894 28.0684578,44.6316147 28.4858926,44.6316147 L37.4294627,44.6316147 C37.8468975,44.6316147 38.1848584,44.2969894 38.1848584,43.8845443 C38.1848584,43.4717102 37.8468975,43.137474 37.4294627,43.137474 Z" id="Path"></path>
                <path d="M37.4294627,45.7066956 L28.4858926,45.7066956 C28.0684578,45.7066956 27.7304969,46.0409317 27.7304969,46.4537659 C27.7304969,46.8662109 28.0684578,47.2008362 28.4858926,47.2008362 L37.4294627,47.2008362 C37.8468975,47.2008362 38.1848584,46.8662109 38.1848584,46.4537659 C38.1848584,46.0409317 37.8468975,45.7066956 37.4294627,45.7066956 Z" id="Path"></path>
                <path d="M4.70587902,19.6763534 L37.1993031,19.6763534 C38.026304,19.6763534 38.6986848,19.0113831 38.6986848,18.1934968 L38.6986848,9.5084152 C38.6986848,8.69091797 38.026304,8.02555842 37.1993031,8.02555842 L22.7153777,8.02555842 C22.2979429,8.02555842 21.959982,8.36018377 21.959982,8.77262873 C21.959982,9.1850739 22.2979429,9.51969905 22.7153777,9.51969905 L37.1878934,9.51969905 L37.1878934,18.1822128 L4.71728872,18.1822128 L4.71728872,9.51969905 L19.1898044,9.51969905 C19.6072392,9.51969905 19.9452001,9.1850739 19.9452001,8.77262873 C19.9452001,8.36018377 19.6072392,8.02555842 19.1898044,8.02555842 L4.70587902,8.02555842 C3.87927158,8.02555842 3.20649735,8.69091797 3.20649735,9.5084152 L3.20649735,18.1934968 C3.20649735,19.0113831 3.87927158,19.6763534 4.70587902,19.6763534 Z" id="Path"></path>
                <path d="M36.5945931,27.0906372 L29.3207621,27.0906372 C28.443795,27.0906372 27.7304969,27.7964631 27.7304969,28.6633758 L27.7304969,37.7301636 C27.7304969,38.5974655 28.443795,39.3029022 29.3207621,39.3029022 L36.5945931,39.3029022 C37.4715602,39.3029022 38.1848584,38.5974655 38.1848584,37.7301636 L38.1848584,34.9403229 C38.1848584,34.5274887 37.8468975,34.1932526 37.4294627,34.1932526 C37.0120278,34.1932526 36.674067,34.5274887 36.674067,34.9403229 L36.674067,37.7301636 C36.674067,37.7737427 36.6382644,37.8087615 36.5945931,37.8087615 L29.3207621,37.8087615 C29.2766974,37.8087615 29.2412882,37.7737427 29.2412882,37.7301636 L29.2412882,28.6633758 C29.2412882,28.6201859 29.2766974,28.5851669 29.3207621,28.5851669 L36.5945931,28.5851669 C36.6386578,28.5851669 36.674067,28.6201859 36.674067,28.6633758 L36.674067,31.4536056 C36.674067,31.8664398 37.0120278,32.2006759 37.4294627,32.2006759 C37.8468975,32.2006759 38.1848584,31.8664398 38.1848584,31.4536056 L38.1848584,28.6633758 C38.1848584,27.7964631 37.4715602,27.0906372 36.5945931,27.0906372 L36.5945931,27.0906372 Z" id="Path"></path>
            </g>
        </g>
    </g>
</svg>