<?xml version="1.0" encoding="UTF-8"?>
<svg width="50px" height="50px" viewBox="0 0 50 50" version="1.1" xmlns="http://www.w3.org/2000/svg" xmlns:xlink="http://www.w3.org/1999/xlink">
    <!-- Generator: Sketch 54.1 (76490) - https://sketchapp.com -->
    <title>Group</title>
    <desc>Created with Sketch.</desc>
    <g id="Page-1" stroke="none" stroke-width="1" fill="none" fill-rule="evenodd">
        <g id="Artboard" transform="translate(-209.000000, -178.000000)" fill="#040F3D" fill-rule="nonzero">
            <g id="Group" transform="translate(210.000325, 178.999957)">
                <path d="M46.8745192,41.754754 L34.3685732,29.2480097 C40.1501283,20.6384463 37.8576044,8.97225084 29.248041,3.19069575 C20.6384776,-2.59085934 8.97228216,-0.298235642 3.19072707,8.31132777 C-2.59082802,16.9208912 -0.298304114,28.5870866 8.3112593,34.3686417 C14.6426689,38.6202841 22.9166314,38.6202841 29.248041,34.3686417 L41.7539869,46.875386 C43.1679412,48.2893402 45.4605649,48.2893402 46.8745192,46.875386 C48.2884734,45.4614317 48.2885732,43.168808 46.8745192,41.754754 Z M18.7962156,35.9604255 C9.32105555,35.9498475 1.64255243,28.2713444 1.63197447,18.7961843 C1.63197447,9.31663338 9.3166647,1.63194315 18.7962156,1.63194315 C28.2757666,1.63194315 35.9604568,9.31663338 35.9604568,18.7961843 C35.9604568,28.2757353 28.2757666,35.9604255 18.7962156,35.9604255 Z M45.7464693,45.7457394 C45.3667603,46.1257477 44.8514339,46.3391032 44.3142531,46.3389037 C43.777172,46.3405003 43.2617458,46.1272446 42.8828352,45.7465377 L30.7026106,33.5654151 L33.5654464,30.7025793 L45.7456709,42.8836022 C46.536224,43.673756 46.5366231,44.9551864 45.7464693,45.7457394 Z" id="Shape" stroke="#040F3D" stroke-width="2"></path>
                <path d="M18.2169391,5.23420511 L18.1746273,6.8308787 C22.30612,6.93785583 26.1771553,8.87292444 28.7422115,12.1134733 L29.9924069,11.1203423 C27.1336626,7.51006373 22.8205483,5.35405542 18.2169391,5.23420511 Z" id="Path"></path>
                <path d="M32.1571803,13.8008413 L30.7880327,14.6223298 C31.0855129,15.1166001 31.3521574,15.6287332 31.5863695,16.1559348 L33.0425358,15.5108787 C32.7826772,14.9233028 32.487093,14.3521926 32.1571803,13.8008413 Z" id="Path"></path>
            </g>
        </g>
    </g>
</svg>