<?xml version="1.0" encoding="UTF-8"?>
<svg width="52px" height="50px" viewBox="0 0 52 50" version="1.1" xmlns="http://www.w3.org/2000/svg" xmlns:xlink="http://www.w3.org/1999/xlink">
    <!-- Generator: Sketch 54.1 (76490) - https://sketchapp.com -->
    <title>Group 3</title>
    <desc>Created with Sketch.</desc>
    <g id="Page-1" stroke="none" stroke-width="1" fill="none" fill-rule="evenodd">
        <g id="Mobile" transform="translate(-267.000000, -219.000000)">
            <g id="Group-3" transform="translate(268.000000, 216.000000)">
                <g id="Group-2" transform="translate(0.000000, 3.857143)">
                    <g id="Group" transform="translate(1.638889, 2.204082)">
                        <path d="M21.5787037,43.5306122 C33.4962927,43.5306122 43.1574074,33.7859528 43.1574074,21.7653061 C43.1574074,9.74465948 33.4962927,0 21.5787037,0 C9.66111473,0 0,9.74465948 0,21.7653061 C0,33.7859528 9.66111473,43.5306122 21.5787037,43.5306122 Z" id="Path" fill="#040F3D" fill-rule="nonzero"></path>
                        <polygon id="Path-2" fill="#FFFFFF" points="25.8335114 27.1244989 31.9793447 6.6122449 33.8703704 6.6122449 27.724537 26.9741709 32.9248575 36.4448342 31.0338319 36.4448342"></polygon>
                        <path d="M23.9424858,27.9212372 L15.4139601,28.0490912 L11.6271813,36.4448342 L9.28703704,36.4448342 L22.9875178,6.6122449 L25.8335114,6.6122449 L25.8335114,36.4448342 L23.9424858,36.4448342 L23.9424858,27.9212372 Z M23.9424858,26.0271046 L24.0512197,8.99885204 L16.2649217,26.2165179 L23.9424858,26.0271046 Z" id="A" fill="#FFFFFF" fill-rule="nonzero"></path>
                    </g>
                    <path d="M29.6350043,0.660963987 C27.8388265,0.228808286 25.9644232,0 24.037037,0 C10.7617481,0 0,10.8548106 0,24.244898 C0,37.6349854 10.7617481,48.4897959 24.037037,48.4897959 L24.037037,48.4897959 C25.2645319,48.4897959 26.4705366,48.3969904 27.6485308,48.2179565" id="Path" stroke="#040F3D" stroke-width="1.10000002"></path>
                </g>
                <path d="M16.1472698,20.0426151 L14.4719024,21.5086293 L14.8098854,22.6499513 L14.5829268,22.8485493 L13.4057258,18.772305 L13.6161784,18.5881505 L17.4508586,20.3389929 L17.2238999,20.5375909 L16.1472698,20.0426151 Z M15.9149296,19.9322468 L13.7093641,18.9151166 L14.4004965,21.257437 L15.9149296,19.9322468 Z M18.9736053,15.869939 C19.2894017,15.7021843 19.5875018,15.6621546 19.8679144,15.7498489 C20.148327,15.8375432 20.3793251,16.055277 20.5609156,16.4030568 L21.3373381,17.8900519 L21.0956584,18.018435 L20.3294184,16.5509414 C20.180073,16.2649169 19.9946709,16.0852381 19.7732066,16.0118996 C19.5517423,15.9385611 19.3121173,15.9703627 19.0543242,16.1073053 C18.7578622,16.2647893 18.5709106,16.478273 18.4934636,16.7477629 C18.4160166,17.0172527 18.4562079,17.3031313 18.6140389,17.6054072 L19.321729,18.9607667 L19.0800492,19.0891497 L17.7512211,16.5441942 L17.9832336,16.4209464 L18.2708918,16.9718659 C18.2645561,16.7468825 18.3212818,16.5382243 18.4410705,16.3458853 C18.5608593,16.1535463 18.7383691,15.9948991 18.9736053,15.869939 Z M25.3448943,13.3854403 L26.0704984,16.1670959 L25.8169069,16.2343951 L25.6612218,15.6375647 C25.6206152,15.8572592 25.5246315,16.0451157 25.3732677,16.2011399 C25.2219039,16.357164 25.0247118,16.4674222 24.7816854,16.5319175 C24.422429,16.6272586 24.1142529,16.6007877 23.8571478,16.4525042 C23.6000428,16.3042207 23.4219143,16.0400199 23.3227572,15.659894 L22.8987932,14.0345971 L23.1629509,13.9644938 L23.5813548,15.5684753 C23.6629046,15.8811022 23.8042393,16.0980907 24.005363,16.2194471 C24.2064868,16.3408035 24.451452,16.3631581 24.7402659,16.2865114 C25.0502126,16.2042564 25.270393,16.0413665 25.4008136,15.7978368 C25.5312343,15.5543071 25.5533526,15.2673516 25.4671694,14.9369617 L25.0807365,13.4555436 L25.3448943,13.3854403 Z M29.5628583,14.0412988 L28.8495154,14.7559571 L28.8856924,15.6092589 L28.6127937,15.6210298 L28.4396107,11.5361917 L28.7125095,11.5244207 L28.8350446,14.4146364 L30.5868211,12.656929 L30.9361315,12.6418622 L29.7573346,13.8564228 L31.1780418,15.5103831 L30.8396474,15.5249791 L29.5628583,14.0412988 Z M34.6170504,12.8336359 C34.9658183,12.8903625 35.2193328,13.0236882 35.3776012,13.233617 C35.5358697,13.4435457 35.5871729,13.7225846 35.5315125,14.0707419 L35.2436449,15.8713591 L34.9847669,15.8292529 L35.0656481,15.3233394 C34.9490888,15.4755445 34.7971259,15.5838496 34.6097549,15.648258 C34.4223839,15.7126664 34.2082508,15.7252793 33.9673492,15.686097 C33.6545366,15.6352185 33.4192322,15.5206684 33.2614288,15.3424433 C33.1036253,15.1642182 33.0441477,14.9536164 33.0829941,14.7106316 C33.1206809,14.4749 33.2348599,14.2971943 33.4255345,14.1775091 C33.6162092,14.057824 33.8949152,14.0278071 34.2616609,14.0874578 L35.2270602,14.2444786 L35.2635872,14.0160015 C35.3059124,13.7512569 35.2670796,13.5384316 35.1470878,13.3775193 C35.027096,13.216607 34.8304723,13.1139296 34.5572108,13.069484 C34.3702424,13.0390739 34.1861486,13.0426193 34.0049238,13.0801203 C33.823699,13.1176213 33.6650655,13.1811211 33.5290186,13.2706215 L33.4254952,13.0528537 C33.5860143,12.9487289 33.7708017,12.8773902 33.9798628,12.8388353 C34.1889238,12.8002804 34.4013176,12.7985473 34.6170504,12.8336359 Z M34.0407595,15.4692003 C34.27447,15.507213 34.4818178,15.4851245 34.662809,15.4029342 C34.8438003,15.3207439 34.9921667,15.1830169 35.1079126,14.9897491 L35.1931423,14.4566359 L34.2331363,14.3004923 C33.9562792,14.2554619 33.7477135,14.2736314 33.6074328,14.3550013 C33.4671522,14.4363713 33.3828081,14.5659069 33.3543981,14.7436122 C33.3248285,14.9285708 33.3698063,15.0856521 33.4893331,15.2148607 C33.6088599,15.3440694 33.7926668,15.4288484 34.0407595,15.4692003 Z M40.1024162,14.2294742 C40.4342484,14.3620489 40.658439,14.5642249 40.7749947,14.8360082 C40.8915504,15.1077914 40.8780739,15.4263981 40.7345649,15.7918377 L40.1209663,17.3543403 L39.8670144,17.2528805 L40.4725658,15.7108697 C40.5905919,15.4103213 40.605113,15.1513986 40.5161296,14.934094 C40.4271461,14.7167893 40.2472154,14.5540273 39.976332,14.445803 C39.6648161,14.321345 39.3824491,14.3171882 39.1292225,14.4333324 C38.875996,14.5494766 38.6870195,14.7663579 38.5622873,15.083983 L38.0030073,16.5081658 L37.7490554,16.406706 L38.7992142,13.7325211 L39.0430081,13.8299225 L38.8156749,14.4088169 C38.9808643,14.2574998 39.1748215,14.1650927 39.3975521,14.1315927 C39.6202828,14.0980926 39.8552351,14.1307195 40.1024162,14.2294742 Z M46.8503215,16.5201766 L44.5459645,19.8838235 L44.3257413,19.730333 L44.7077304,19.1727474 C44.4885515,19.2923613 44.2609087,19.3435603 44.0247951,19.3263459 C43.7886816,19.3091315 43.5642613,19.2263903 43.3515276,19.0781199 C43.1328014,18.9256728 42.9702483,18.7364701 42.8638636,18.510506 C42.7574789,18.284542 42.7162123,18.0459194 42.7400627,17.7946313 C42.763913,17.5433431 42.8555477,17.3013495 43.0149694,17.0686432 C43.1743911,16.8359369 43.3669163,16.6631453 43.5925505,16.5502632 C43.8181848,16.4373812 44.0540672,16.3919249 44.3002047,16.4138932 C44.5463422,16.4358615 44.7787706,16.5230679 44.9974968,16.6755149 C45.2072343,16.821697 45.3610848,17.0026018 45.4590531,17.2182346 C45.5570214,17.4338674 45.5928678,17.6642471 45.5665935,17.9093806 L46.6256039,16.3635537 L46.8503215,16.5201766 Z M43.5047627,18.8835225 C43.6845377,19.0088214 43.874569,19.0787571 44.0748624,19.0933317 C44.2751558,19.1079062 44.4682583,19.0683544 44.6541758,18.9746751 C44.8400933,18.8809958 44.9993028,18.7374492 45.1318091,18.544031 C45.2643155,18.3506128 45.3411294,18.1496383 45.3622531,17.9411017 C45.3833769,17.732565 45.351764,17.5363919 45.2674137,17.3525764 C45.1830634,17.1687609 45.0510027,17.014206 44.8712278,16.8889071 C44.6914528,16.7636081 44.5014215,16.6936724 44.3011281,16.6790979 C44.1008347,16.6645234 43.9077322,16.7040752 43.7218147,16.7977545 C43.5358973,16.8914338 43.3766877,17.0349804 43.2441814,17.2283986 C43.111675,17.4218168 43.0348611,17.6227912 43.0137374,17.8313279 C42.9926136,18.0398646 43.0242265,18.2360377 43.1085768,18.4198532 C43.1929271,18.6036686 43.3249878,18.7582235 43.5047627,18.8835225 Z M48.6240197,19.4078248 L48.8180261,19.6017671 L46.810628,21.6447093 L46.6166215,21.450767 L48.6240197,19.4078248 Z M49.2094129,19.0077583 C49.1654378,18.9637978 49.1426716,18.9113004 49.1411134,18.8502644 C49.1395552,18.7892285 49.1605676,18.7365336 49.2041512,18.6921783 C49.2477348,18.6478231 49.3004288,18.6255064 49.3622349,18.6252277 C49.4240409,18.624949 49.4769307,18.6467896 49.5209057,18.69075 C49.5648807,18.7347105 49.5876469,18.7872079 49.5892051,18.8482439 C49.5907633,18.9092798 49.5697509,18.9619747 49.5261673,19.00633 C49.4825838,19.0506853 49.4298897,19.0730019 49.3680837,19.0732806 C49.3062776,19.0735593 49.2533879,19.0517188 49.2094129,19.0077583 Z M52.8975079,25.0480145 C53.0871674,25.3486378 53.1486843,25.6411546 53.0820605,25.9255739 C53.0154366,26.2099931 52.8177415,26.4577096 52.4889693,26.6687308 L51.0832444,27.5709898 L50.9366012,27.3385503 L52.3238903,26.4481242 C52.5942825,26.2745741 52.7581088,26.0758093 52.8153743,25.851824 C52.8726398,25.6278386 52.825996,25.3965298 52.6754416,25.1578908 C52.5033793,24.8851604 52.2825062,24.7232274 52.0128156,24.672087 C51.743125,24.6209466 51.4654062,24.6870809 51.1796509,24.8704918 L49.8983673,25.6928787 L49.7517241,25.4604393 L51.1390132,24.5700132 C51.4094053,24.396463 51.5732317,24.1976982 51.6304972,23.9737129 C51.6877627,23.7497275 51.6411189,23.5184188 51.4905644,23.2797797 C51.3185022,23.0070493 51.0976291,22.8451164 50.8279385,22.793976 C50.5582479,22.7428356 50.2805291,22.8089698 49.9947738,22.9923808 L48.7134901,23.8147677 L48.5668469,23.5823282 L50.9727104,22.0381341 L51.1134879,22.261276 L50.5972873,22.5925973 C50.817119,22.5647079 51.0242372,22.6004918 51.2186481,22.6999502 C51.4130591,22.7994085 51.5796736,22.9591572 51.7184965,23.179201 C51.8573194,23.3992449 51.9259602,23.6175235 51.9244208,23.8340435 C51.9228813,24.0505634 51.8473911,24.2524991 51.6979479,24.4398564 C51.9269975,24.4060505 52.148012,24.4416233 52.3609982,24.546576 C52.5739845,24.6515286 52.7528192,24.8186731 52.8975079,25.0480145 Z M55.3434864,29.8697399 C55.4487997,30.2098668 55.4436439,30.4981975 55.3280187,30.7347407 C55.2123936,30.9712839 54.9877171,31.1421175 54.6539826,31.2472464 L52.9279583,31.7909577 L52.849788,31.5384936 L53.3347434,31.3857288 C53.1476864,31.3484416 52.9837793,31.2596066 52.8430172,31.1192213 C52.7022552,30.9788359 52.5955047,30.7911796 52.5227624,30.5562465 C52.4283061,30.2511843 52.4249302,29.9876695 52.5126345,29.7656943 C52.6003388,29.543719 52.760648,29.396048 52.9935668,29.3226767 C53.2195329,29.2514957 53.4281525,29.2752544 53.619432,29.3939536 C53.8107115,29.5126529 53.96172,29.7508285 54.0724619,30.1084877 L54.3639722,31.0499683 L54.5829843,30.9809778 C54.8367616,30.9010359 55.0082566,30.7710076 55.0974745,30.5908887 C55.1866923,30.4107699 55.1900444,30.1874682 55.1075309,29.920977 C55.0510742,29.738641 54.9657741,29.5740527 54.8516279,29.4272074 C54.7374817,29.2803621 54.6103503,29.165511 54.4702301,29.0826505 L54.617241,28.892024 C54.7812575,28.9904478 54.9270154,29.1254082 55.054519,29.2969094 C55.1820226,29.4684105 55.2783441,29.6593521 55.3434864,29.8697399 Z M52.7479598,30.5257163 C52.8185307,30.7536364 52.9306602,30.9309394 53.0843518,31.0576307 C53.2380434,31.1843219 53.4264494,31.2567806 53.6495754,31.2750089 L54.1606038,31.114031 L53.870722,30.1778101 C53.7871227,29.9078124 53.6779267,29.7276611 53.5431307,29.6373508 C53.4083346,29.5470404 53.2557671,29.5287153 53.0854235,29.5823749 C52.908127,29.6382247 52.7888321,29.7489233 52.727535,29.9144742 C52.666238,30.080025 52.6730462,30.2837704 52.7479598,30.5257163 Z M57.6178173,33.7386595 L57.6548208,34.0116299 L53.6386701,34.5655102 L53.6016666,34.2925398 L57.6178173,33.7386595 Z M57.9718743,37.1365557 L57.9744691,37.4120534 L53.9211334,37.4508926 L53.9185387,37.1753948 L57.9718743,37.1365557 Z M56.5417191,41.4827301 C56.4871242,41.8347776 56.3561385,42.0911102 56.1487582,42.2517355 C55.9413779,42.4123608 55.6649764,42.465423 55.3195453,42.4109236 L53.5330279,42.1290612 L53.5735518,41.8677488 L54.0755038,41.9469428 C53.9240556,41.8300946 53.8159636,41.6773301 53.7512245,41.4886446 C53.6864854,41.2999591 53.672971,41.0840361 53.710681,40.8408693 C53.7596476,40.5251153 53.8721047,40.2872385 54.0480557,40.1272317 C54.2240067,39.967225 54.4325201,39.9062406 54.6736022,39.9442766 C54.9074878,39.9811772 55.0842065,40.0955043 55.2037634,40.2872613 C55.3233203,40.4790182 55.3543938,40.7599897 55.2969846,41.130184 L55.1458643,42.1046613 L55.3725524,42.1404263 C55.6352239,42.1818686 55.8460391,42.1416968 56.0050042,42.0199099 C56.1639693,41.898123 56.264838,41.699317 56.3076134,41.4234859 C56.3368808,41.2347594 56.3324977,41.0490924 56.2944641,40.8664793 C56.2564304,40.6838663 56.1927276,40.5241622 56.103354,40.3873624 L56.3187642,40.281918 C56.422752,40.4433324 56.4943498,40.6293793 56.5335596,40.840064 C56.5727694,41.0507488 56.5754892,41.2649687 56.5417191,41.4827301 Z M53.9260619,40.9138908 C53.8894777,41.149799 53.9123543,41.3588333 53.9946926,41.541 C54.0770308,41.7231668 54.2142751,41.872165 54.4064296,41.9879992 L54.9353683,42.0714509 L55.0856444,41.1024177 C55.1289826,40.8229572 55.1099856,40.6126759 55.0286526,40.4715675 C54.9473197,40.3304591 54.8184983,40.2459974 54.6421845,40.21818 C54.4586742,40.1892273 54.3031535,40.2353343 54.1756177,40.3565027 C54.0480819,40.477671 53.9648975,40.6634652 53.9260619,40.9138908 Z" id="Anukandimalla" stroke="#040F3D" stroke-width="0.5" fill="#040F3D" fill-rule="nonzero" transform="translate(35.690097, 26.978027) rotate(65.000000) translate(-35.690097, -26.978027) "></path>
            </g>
        </g>
    </g>
</svg>