<?xml version="1.0" encoding="UTF-8"?>
<svg width="42px" height="42px" viewBox="0 0 42 42" version="1.1" xmlns="http://www.w3.org/2000/svg" xmlns:xlink="http://www.w3.org/1999/xlink">
    <!-- Generator: Sketch 54.1 (76490) - https://sketchapp.com -->
    <title>smile</title>
    <desc>Created with Sketch.</desc>
    <g id="Page-1" stroke="none" stroke-width="1" fill="none" fill-rule="evenodd">
        <g id="Artboard" transform="translate(-63.000000, -297.000000)" fill="#343A6E" fill-rule="nonzero">
            <g id="smile" transform="translate(63.000000, 297.000000)">
                <path d="M21,0 C9.42046875,0 0,9.42046875 0,21 C0,32.5795312 9.42046875,42 21,42 C32.5795312,42 42,32.5795312 42,21 C42,9.42046875 32.5795313,0 21,0 Z M21,39.375 C10.8681563,39.375 2.625,31.1318438 2.625,21 C2.625,10.8681563 10.8681563,2.625 21,2.625 C31.1318438,2.625 39.375,10.8681563 39.375,21 C39.375,31.1318438 31.1318438,39.375 21,39.375 Z" id="Shape"></path>
                <circle id="Oval" cx="13.4649375" cy="14.0181562" r="2.8468125"></circle>
                <circle id="Oval" cx="28.53375" cy="14.0181562" r="2.8468125"></circle>
                <path d="M34.4800312,23.99775 C33.789,23.790375 33.0546563,24.1860937 32.8472812,24.87975 C32.8243125,24.9578437 30.3935625,32.7199687 21,32.7199687 C11.6687812,32.7199687 9.2505,25.19475 9.15140625,24.8745 C8.94140625,24.1821562 8.20575,23.7916875 7.51996875,23.99775 C6.825,24.2057812 6.43059375,24.9375 6.63796875,25.6311562 C6.6675,25.7282812 9.6744375,35.3449687 21,35.3449687 C32.3255625,35.3449687 35.3325,25.7282812 35.3620313,25.6305 C35.5694063,24.9375 35.175,24.2057812 34.4800312,23.99775 Z" id="Path"></path>
            </g>
        </g>
    </g>
</svg>