<?xml version="1.0" encoding="UTF-8"?>
<svg width="53px" height="47px" viewBox="0 0 53 47" version="1.1" xmlns="http://www.w3.org/2000/svg" xmlns:xlink="http://www.w3.org/1999/xlink">
    <!-- Generator: Sketch 54.1 (76490) - https://sketchapp.com -->
    <title>work</title>
    <desc>Created with Sketch.</desc>
    <g id="Page-1" stroke="none" stroke-width="1" fill="none" fill-rule="evenodd">
        <g id="Artboard" transform="translate(-227.000000, -269.000000)" fill="#040F3D" fill-rule="nonzero">
            <g id="work" transform="translate(227.000000, 269.000000)">
                <polygon id="Path" points="21.8417969 25.0666667 31.1582031 25.0666667 31.1582031 28.2 21.8417969 28.2"></polygon>
                <path d="M42.9982071,28.2 L34.2636719,28.2 L34.2636719,29.7666667 C34.2636719,30.6324131 33.5689849,31.3333333 32.7109375,31.3333333 L20.2890625,31.3333333 C19.4310151,31.3333333 18.7363281,30.6324131 18.7363281,29.7666667 L18.7363281,28.2 L10.0017929,28.2 C7.99415583,28.2 6.21862033,26.908724 5.58296969,24.9871093 L0,8.08506074 L0,42.3 C0,44.8915278 2.08972168,47 4.65820312,47 L48.3417969,47 C50.9102783,47 53,44.8915278 53,42.3 L53,8.08628472 L47.416626,24.9871093 C46.7813797,26.908724 45.0058442,28.2 42.9982071,28.2 Z" id="Path"></path>
                <path d="M32.7109375,2.48689958e-14 L20.2890625,2.48689958e-14 C17.7205811,2.48689958e-14 15.6308594,2.10847222 15.6308594,4.7 L15.6308594,6.26666667 L2.67159274,6.26666667 L8.52790827,23.9957032 C8.74019625,24.6366493 9.3329849,25.0666667 10.0017929,25.0666667 L18.7363281,25.0666667 L18.7363281,23.5 C18.7363281,22.6342535 19.4310151,21.9333333 20.2890625,21.9333333 L32.7109375,21.9333333 C33.5689849,21.9333333 34.2636719,22.6342535 34.2636719,23.5 L34.2636719,25.0666667 L42.9982071,25.0666667 C43.6670151,25.0666667 44.2598037,24.6366493 44.4720917,23.9957032 L50.3288116,6.26666667 L37.3691406,6.26666667 L37.3691406,4.7 C37.3691406,2.10847222 35.2794189,2.48689958e-14 32.7109375,2.48689958e-14 Z M18.7363281,6.26666667 L18.7363281,4.7 C18.7363281,3.8354774 19.4322281,3.13333333 20.2890625,3.13333333 L32.7109375,3.13333333 C33.5677719,3.13333333 34.2636719,3.8354774 34.2636719,4.7 L34.2636719,6.26666667 L18.7363281,6.26666667 Z" id="Shape"></path>
            </g>
        </g>
    </g>
</svg>